{"glyphs":{"0":{"ha":614,"x_min":0,"x_max":0,"o":"m 265 -3 b 38 369 96 42 50 215 l 35 375 l 35 436 b 54 558 61 472 50 518 b 328 842 68 694 181 842 b 576 432 529 842 576 589 b 292 -11 576 263 501 -11 l 276 -11 l 265 -3 m 185 381 b 303 28 185 301 185 28 b 432 433 431 28 432 347 l 432 542 b 311 800 432 617 414 800 b 185 511 200 800 185 592 l 185 381 m 479 603 b 504 631 486 613 494 622 l 504 633 l 499 639 l 490 633 b 468 614 486 625 476 618 m 449 133 b 467 124 449 125 461 124 l 467 131 b 458 142 467 136 465 142 l 449 133 m 471 363 b 481 354 471 356 475 354 l 488 354 b 476 369 488 363 486 369 l 471 363 m 164 117 l 174 126 l 164 136 l 154 126 m 82 331 l 93 342 l 83 350 l 74 340 m 186 61 l 196 72 l 183 81 l 176 74 m 57 486 b 71 476 57 476 63 476 b 64 492 71 481 71 492 l 63 492 l 57 486 m 451 592 b 464 585 451 586 460 585 l 467 585 l 467 588 b 460 600 467 592 465 600 l 451 592 m 476 561 l 488 569 l 479 581 l 471 571 m 182 103 l 193 113 l 183 122 l 176 114 m 414 747 l 424 756 l 415 767 l 407 757 m 499 417 l 510 426 l 499 433 l 490 426 m 124 458 l 132 467 l 124 475 l 113 464 m 413 78 l 424 88 l 415 97 l 407 88 m 121 167 l 132 175 l 122 183 l 113 175 m 436 103 l 446 111 l 438 119 l 426 110 m 479 142 l 488 150 l 478 158 l 468 153 m 167 81 l 174 88 l 164 97 l 154 89 m 144 186 l 154 193 l 143 203 l 135 196 m 153 285 b 139 271 142 285 139 282 b 153 285 150 271 153 274 m 113 342 l 121 333 l 129 342 l 121 350 l 113 343 m 536 292 b 546 306 543 292 546 300 b 532 294 538 306 532 304 m 63 392 l 71 400 l 61 408 l 54 400 m 539 542 l 549 551 l 539 558 l 532 549 m 479 311 l 488 319 l 476 328 l 471 319 m 146 144 l 154 154 l 146 161 l 138 153 m 436 142 l 446 151 l 438 158 l 429 150 m 63 353 l 71 361 l 64 369 l 54 360 m 121 625 l 129 633 l 122 642 l 113 632 m 519 436 l 526 446 l 519 456 l 513 446 m 85 500 l 93 508 l 83 514 l 74 508 m 168 639 b 156 624 160 639 156 631 l 171 631 l 168 639 m 368 803 b 381 796 368 797 376 796 b 374 811 381 801 379 808 l 368 803 m 457 250 b 464 265 463 253 464 260 b 451 258 460 265 451 264 m 76 258 b 89 251 76 253 85 251 l 92 251 l 83 267 l 76 258 m 547 415 l 547 418 b 540 431 547 422 546 431 l 532 424 m 156 554 b 161 542 156 550 156 542 l 163 542 l 168 547 l 168 549 b 156 554 168 554 160 554 m 496 292 l 497 292 l 507 299 l 499 306 l 490 297 m 522 269 l 526 278 l 521 286 l 513 276 m 164 208 l 171 215 l 164 225 l 157 215 m 458 625 l 465 632 l 461 642 l 451 632 m 540 458 l 549 464 l 540 472 l 532 464 m 522 397 l 526 406 l 519 414 l 513 406 m 143 106 l 151 111 l 143 119 l 135 111 m 146 439 l 154 446 l 144 453 l 138 446 m 144 353 l 154 360 l 144 367 l 138 360 m 165 167 l 174 175 l 165 181 l 157 172 m 500 542 l 507 550 l 499 558 l 493 550 m 435 689 l 443 696 l 435 703 l 426 696 m 478 436 l 485 444 l 478 453 l 471 444 m 83 456 l 90 463 l 82 472 l 76 465 m 539 378 l 549 386 l 540 392 l 532 383 m 396 772 l 397 772 b 401 778 400 772 401 775 l 401 781 l 396 789 l 390 782 m 521 311 l 522 311 b 526 317 525 311 526 314 l 526 319 l 519 328 l 515 321 m 440 731 l 446 736 l 435 744 l 429 739 m 157 468 b 168 460 157 461 163 460 l 168 474 l 157 468 m 450 515 b 457 503 450 511 451 503 l 463 508 b 450 515 463 514 454 515 m 540 503 l 546 508 l 546 510 l 538 517 l 532 511 l 532 510 m 451 422 l 457 417 l 465 422 l 458 431 l 451 424 m 103 481 l 110 489 l 104 494 l 103 494 l 96 489 m 138 486 l 143 481 l 151 488 l 144 494 l 138 488 m 138 528 l 143 522 l 151 529 l 144 536 l 138 529 m 122 389 b 117 378 118 389 117 382 l 128 378 b 122 389 128 382 126 389 m 417 122 l 424 129 l 418 136 l 410 131 m 532 339 l 538 333 l 539 333 b 544 346 544 333 544 342 l 532 340 m 143 397 l 151 403 l 143 411 l 138 406 m 144 608 l 151 617 l 146 622 l 138 617 m 122 253 l 129 258 l 124 267 l 115 258 m 500 250 l 507 257 l 500 264 l 493 258 m 206 81 l 213 89 l 206 94 l 199 88 m 207 42 l 215 50 l 207 56 l 201 49 m 476 394 l 485 404 l 478 408 l 471 403 m 481 269 l 485 276 l 479 283 l 471 278 m 411 789 l 418 797 l 413 803 l 404 796 m 519 522 l 526 526 l 518 536 l 513 529 m 63 439 l 68 444 l 60 453 l 54 446 m 396 61 l 401 67 l 393 75 l 388 69 m 474 233 l 476 231 l 485 236 b 472 243 482 240 476 243 m 429 775 l 432 772 l 440 778 b 428 785 438 782 432 785 m 481 647 l 485 653 l 476 661 l 471 656 m 79 556 b 72 546 74 556 72 550 l 82 547 l 85 550 b 79 556 85 553 82 556 m 79 297 b 86 307 85 297 86 303 b 74 301 82 307 74 307 m 103 189 b 108 201 108 189 108 197 b 99 194 104 201 99 200 m 138 571 b 150 565 138 565 146 565 b 143 575 150 569 149 575 l 138 571 m 96 611 b 101 606 96 608 99 606 b 108 615 107 606 108 611 l 99 614 l 96 611 m 122 419 l 129 424 l 121 431 l 115 425 l 115 424 m 144 233 l 151 239 l 143 244 l 138 238 m 103 314 l 110 319 l 101 325 l 96 318 m 478 522 l 485 528 l 476 533 l 471 526 m 99 271 l 110 279 l 103 283 l 99 283 m 497 461 l 504 465 l 497 472 l 490 467 m 85 586 l 90 592 l 85 597 l 76 592 m 119 583 l 126 589 b 114 596 124 593 118 596 m 556 449 b 561 436 556 444 556 436 l 563 436 l 565 443 l 556 449 m 118 303 b 129 296 118 297 125 296 b 124 306 129 299 128 306 l 118 303 m 521 481 l 526 486 l 526 488 b 521 492 526 490 524 492 l 515 488 m 185 144 l 190 150 l 190 151 b 185 156 190 154 188 156 l 179 151 m 454 753 l 463 758 b 457 764 463 761 460 764 l 451 758 m 107 439 l 107 451 l 96 446 m 160 256 l 169 256 b 163 264 169 260 167 264 l 160 264 m 454 378 b 461 388 460 378 461 383 b 451 382 458 388 451 386 m 160 508 b 165 503 160 506 163 503 l 168 508 b 163 514 168 511 165 514 l 160 508 m 464 710 l 458 722 l 451 715 m 172 585 l 167 597 l 160 590 m 478 481 l 483 493 l 471 488 m 83 419 l 90 425 l 83 431 l 79 425 m 499 497 l 504 506 l 499 508 l 493 504 m 521 650 l 526 656 l 522 661 l 515 654 m 457 542 l 463 547 l 458 553 l 451 546 m 164 711 l 168 715 l 163 722 l 157 719 m 103 564 l 107 569 b 101 575 107 572 104 575 l 99 569 m 476 694 l 482 697 b 476 703 482 700 479 703 l 471 699 m 521 567 b 526 572 524 567 526 569 l 521 575 l 515 571 m 499 669 b 504 675 501 669 504 672 l 499 678 l 493 674 m 349 819 b 354 814 349 817 351 814 l 357 819 l 353 825 l 349 819 m 122 208 l 126 214 l 124 219 b 118 214 121 219 118 217 m 101 525 l 107 529 l 101 533 b 96 528 99 533 96 531 m 85 388 b 76 379 79 388 76 385 b 85 388 82 379 85 382 m 453 335 l 465 339 l 458 344 m 103 356 l 108 364 l 97 364 m 121 126 l 129 132 l 124 136 l 121 136 m 454 672 l 460 676 l 454 681 l 449 676 m 458 294 l 463 300 l 457 303 l 451 300 m 163 417 l 168 424 l 158 428 m 229 33 b 225 25 226 32 225 28 l 235 28 l 229 33 m 181 732 l 190 738 l 185 742 m 122 503 l 128 513 l 118 508 m 521 358 l 525 367 l 517 367 m 121 671 l 129 675 l 124 678 l 121 678 m 86 208 l 90 213 l 81 218 m 150 313 l 144 322 l 140 318 m 158 293 l 168 299 l 164 303 m 60 317 l 65 317 l 65 322 l 60 322 m 496 381 l 501 381 l 501 386 l 496 386 m 460 461 l 460 464 l 456 469 l 451 467 m 518 617 b 521 611 518 614 518 613 l 521 617 l 518 617 m 496 214 l 499 214 l 499 217 l 496 217 m 163 339 l 165 339 l 165 342 l 163 342 m 538 589 l 540 589 l 540 592 l 538 592 m 246 800 l 249 800 l 249 803 l 246 803 m 438 650 l 440 650 l 440 653 l 438 653 m 454 215 b 453 214 453 215 453 214 b 454 213 453 214 453 213 b 456 214 456 213 456 214 b 454 215 456 214 456 215 m 165 672 b 164 674 165 674 164 674 b 163 672 164 674 163 674 b 164 671 163 671 164 671 b 165 672 164 671 165 671 m 496 593 b 494 592 494 593 494 592 b 496 590 494 592 494 590 b 497 592 497 590 497 592 b 496 593 497 592 497 593 m 185 693 b 188 689 185 692 186 690 l 188 690 b 185 694 188 692 186 693 "},"1":{"ha":376,"x_min":0,"x_max":0,"o":"m 172 492 b 181 681 172 554 181 618 l 181 736 l 175 739 l 164 731 b 40 586 142 690 93 586 b 18 608 31 586 18 599 l 19 614 b 208 850 79 657 140 782 l 244 850 b 314 817 260 842 314 839 l 314 681 b 300 610 300 661 300 632 b 300 50 300 424 310 235 b 272 -6 297 10 290 22 l 222 -6 b 172 61 201 -6 172 42 l 172 492 m 232 150 l 242 157 b 218 178 242 165 225 175 l 211 171 m 254 86 l 267 99 l 254 106 l 244 99 m 235 108 l 244 117 l 235 125 l 225 115 m 275 514 l 283 524 l 275 533 l 267 524 m 256 658 l 264 661 l 267 664 l 258 675 l 250 667 m 189 271 b 200 265 189 265 197 265 l 204 265 b 196 278 204 272 204 278 l 189 271 m 236 683 b 243 696 242 683 243 692 l 238 696 b 228 689 233 696 228 694 m 276 681 l 286 690 l 276 697 l 269 690 m 256 533 l 264 543 l 254 550 l 247 543 m 275 444 b 268 432 269 444 268 436 l 271 432 b 283 438 275 432 283 432 l 275 444 m 253 132 b 264 144 263 132 264 136 l 253 144 m 232 558 l 242 565 l 233 572 l 225 565 m 235 308 l 236 308 l 242 314 l 232 322 l 225 317 m 274 722 l 281 732 l 274 739 l 267 732 m 233 350 l 242 357 l 233 364 l 225 357 m 235 514 l 242 521 l 235 531 l 228 522 m 251 414 l 261 421 l 253 428 l 244 421 m 254 325 l 261 335 l 256 342 l 247 333 m 235 600 l 244 607 l 238 614 l 228 606 m 256 450 l 261 458 l 253 467 l 247 461 m 254 369 l 264 379 l 257 383 l 247 376 m 196 558 l 206 568 l 199 572 l 189 564 m 235 264 l 236 264 l 242 269 l 233 278 l 228 272 m 256 244 l 261 253 l 254 258 l 247 250 m 274 392 l 281 399 l 274 406 l 267 399 m 194 431 l 203 439 l 194 444 l 189 438 m 215 411 l 222 418 l 215 425 l 208 417 m 256 786 l 264 794 l 256 800 l 250 793 m 275 308 l 281 315 l 275 322 l 267 315 m 274 153 l 281 158 l 272 167 l 267 160 m 257 578 l 264 585 l 256 592 l 250 586 m 238 389 l 242 396 l 233 403 l 228 397 m 208 710 b 221 704 208 704 217 704 b 214 714 221 708 219 714 l 208 710 m 235 725 l 236 725 l 242 731 l 235 736 l 228 732 m 268 233 b 278 224 268 226 271 224 l 278 233 l 268 233 m 272 768 b 283 774 276 768 283 769 l 276 778 l 272 778 m 269 557 b 281 563 274 557 281 558 l 274 567 l 269 567 m 258 203 l 261 210 l 257 217 l 256 217 l 250 211 m 228 647 b 233 642 228 644 231 642 l 239 647 l 233 653 b 228 647 231 653 228 650 m 231 772 b 238 767 232 768 235 767 l 239 767 l 242 772 l 236 778 l 235 778 l 231 772 m 275 108 l 281 117 l 274 122 l 269 117 m 247 294 b 260 288 250 290 256 288 l 254 300 l 247 294 m 256 22 b 251 11 251 21 251 14 l 260 11 b 256 22 260 14 260 21 m 236 433 l 239 439 l 233 444 b 228 439 231 444 228 442 m 193 225 l 200 229 l 194 236 l 189 231 m 235 475 l 239 481 l 233 486 l 228 479 m 269 481 b 275 472 271 478 272 474 l 278 479 l 274 486 l 269 481 m 214 89 l 219 96 l 214 100 l 208 96 m 214 244 l 219 250 l 213 256 l 208 251 m 217 539 l 219 544 l 214 550 l 208 546 m 250 750 b 256 744 250 747 253 744 l 261 749 l 256 753 l 250 750 m 192 156 b 197 161 194 156 197 158 l 192 164 l 186 160 m 194 394 b 200 400 197 394 200 397 l 194 403 l 189 399 m 272 75 b 278 69 272 72 275 69 l 278 81 b 272 75 275 81 272 78 m 217 675 b 210 667 211 675 210 671 l 217 667 l 217 675 m 229 811 l 240 811 l 235 819 m 235 28 l 239 33 l 235 39 l 231 33 m 281 643 l 281 654 l 272 649 m 254 619 l 258 625 l 254 631 l 250 625 m 269 268 l 281 272 l 274 278 m 278 600 l 278 610 l 269 604 m 231 228 l 239 231 l 232 236 l 231 236 m 279 349 l 274 358 l 269 353 m 236 69 l 240 78 l 232 78 m 257 50 l 261 54 l 257 58 l 253 54 m 194 311 l 199 319 l 190 319 m 253 171 b 261 175 256 171 260 172 l 256 178 m 221 454 l 215 464 l 211 460 m 233 194 b 231 189 231 193 231 192 l 236 189 b 233 194 236 192 236 193 m 192 519 b 197 525 194 519 197 522 l 192 525 m 192 769 b 194 775 194 771 194 772 l 189 775 m 192 353 l 194 353 l 194 358 l 192 358 m 253 500 l 256 503 l 253 506 l 250 503 m 211 333 l 217 333 l 217 336 l 211 336 m 214 372 b 217 378 217 374 217 375 l 214 378 m 214 500 l 217 500 l 217 503 l 214 503 m 192 75 l 194 78 l 192 81 m 189 478 l 192 478 l 192 481 l 189 481 m 214 625 l 217 628 l 214 631 m 214 293 b 213 292 213 293 213 292 b 214 290 213 292 213 290 b 215 292 215 290 215 292 b 214 293 215 292 215 293 m 214 583 l 217 586 l 214 586 "},"2":{"ha":576,"x_min":0,"x_max":0,"o":"m 99 89 b 57 8 67 76 60 39 l 54 6 l 35 6 l 35 53 b 107 242 88 92 56 194 b 379 658 267 392 379 439 b 274 806 379 724 351 806 b 176 671 204 806 176 729 b 226 529 176 618 226 581 l 215 519 b 57 656 125 519 57 554 b 281 846 57 779 168 846 b 513 640 401 846 513 769 b 76 129 513 321 79 276 l 82 122 b 158 144 110 124 131 144 b 414 83 243 144 322 83 b 485 138 449 83 485 97 b 449 211 485 165 467 190 l 449 213 l 458 222 b 538 100 513 222 515 135 l 538 69 b 438 -33 503 17 493 0 l 401 -33 b 318 -3 376 -17 344 -17 b 118 89 254 31 196 89 m 399 531 l 400 531 b 410 543 406 531 408 539 l 401 550 l 393 539 m 443 658 b 450 671 449 658 450 667 l 450 674 b 435 665 446 674 435 671 l 435 664 m 440 569 l 451 578 l 442 589 l 435 579 m 317 367 l 329 375 l 319 383 l 310 375 m 444 531 l 451 536 l 443 550 l 435 540 m 332 396 b 344 388 332 389 339 388 l 344 392 b 339 403 344 394 344 403 l 332 396 m 415 478 b 431 471 418 472 425 471 b 422 483 431 478 431 483 l 421 483 l 415 478 m 442 700 l 451 708 l 442 717 l 435 708 m 413 608 b 424 597 413 601 417 597 l 426 600 l 428 608 l 413 608 m 446 492 l 451 499 l 443 508 l 435 501 m 149 758 b 142 746 143 758 142 750 l 142 743 l 157 750 l 149 758 m 121 608 b 133 597 121 600 126 597 b 126 611 133 601 132 611 l 121 608 m 404 492 l 410 497 l 410 499 l 403 508 l 396 500 m 424 556 l 432 563 l 424 569 l 415 564 m 424 511 l 429 519 l 421 528 l 415 519 m 422 722 l 429 732 l 422 739 l 415 731 m 360 450 l 361 450 b 368 457 365 450 368 453 l 361 464 l 354 458 m 465 650 b 458 638 460 650 458 642 b 471 644 463 638 471 639 l 465 650 m 422 761 l 429 767 l 424 775 l 415 767 m 442 617 l 449 624 l 442 631 l 435 624 m 360 411 l 368 417 l 358 425 l 354 418 m 396 458 b 408 449 396 453 404 450 b 401 461 408 453 407 461 l 396 458 m 394 46 b 406 35 394 38 397 35 b 394 46 406 43 403 46 m 418 686 l 429 686 l 429 694 l 418 694 m 111 672 b 106 660 106 672 106 664 b 115 667 110 660 115 661 l 111 672 m 463 692 b 456 682 457 692 456 686 b 468 688 460 682 468 682 l 463 692 m 479 583 b 485 578 479 581 482 578 b 492 588 490 578 492 583 l 482 586 l 479 583 m 110 711 b 103 701 104 711 103 706 b 115 708 108 701 113 703 l 110 711 m 400 783 l 404 790 l 399 797 l 393 792 l 393 790 m 149 701 b 158 711 156 701 158 704 l 149 711 m 379 472 l 381 472 l 385 479 l 382 486 l 374 478 m 379 433 l 385 439 l 379 447 l 374 439 m 229 81 b 239 76 231 76 236 76 b 235 86 239 79 239 85 l 229 81 m 396 750 b 406 746 397 746 403 746 b 401 756 406 749 406 754 l 396 750 m 396 625 b 406 621 397 621 403 621 b 401 631 406 624 406 629 l 396 625 m 408 701 l 403 714 l 396 707 m 113 619 l 118 625 l 113 631 l 107 625 m 485 619 l 490 622 b 485 628 490 625 488 628 l 479 624 m 335 431 b 342 439 340 431 342 435 l 335 439 m 465 515 l 465 526 l 457 521 m 150 578 l 154 583 l 150 589 l 146 583 m 486 658 l 492 667 l 481 667 m 169 764 l 176 769 l 171 772 l 165 768 m 322 408 l 326 413 l 321 417 l 315 414 m 165 563 b 172 558 165 560 169 558 b 168 567 172 561 171 565 l 165 563 m 343 807 l 343 815 l 335 811 m 147 622 l 156 622 l 151 631 m 400 581 l 404 585 l 400 589 l 396 585 m 465 722 l 468 732 l 460 726 m 357 793 l 365 797 l 360 800 l 357 800 m 124 763 l 132 767 l 128 772 m 460 558 l 465 558 l 465 564 l 460 564 m 188 292 b 193 289 189 289 190 289 l 193 294 b 188 292 190 294 189 294 m 126 647 b 132 642 126 644 129 642 l 132 647 l 126 647 m 299 347 l 299 356 l 293 351 m 438 39 b 443 42 440 39 442 39 l 438 42 m 379 519 l 382 519 l 382 522 l 379 522 m 235 331 l 238 331 l 238 333 l 235 333 m 129 725 l 132 728 l 129 731 m 190 122 l 193 122 l 193 125 l 190 125 m 379 813 b 378 811 378 813 378 811 b 379 810 378 811 378 810 b 381 811 381 810 381 811 b 379 813 381 811 381 813 m 213 813 b 211 811 211 813 211 811 b 213 810 211 811 211 810 b 214 811 214 810 214 811 b 213 813 214 811 214 813 m 193 796 b 192 794 192 796 192 794 b 193 793 192 794 192 793 b 194 794 194 793 194 794 b 193 796 194 794 194 796 m 90 689 b 89 690 90 690 89 690 b 88 689 89 690 88 690 b 89 688 88 688 89 688 b 90 689 89 688 90 688 m 440 747 l 443 747 l 443 750 "},"3":{"ha":561,"x_min":0,"x_max":0,"o":"m 35 165 b 169 306 35 242 92 306 l 190 306 l 199 294 b 160 172 199 250 160 217 b 264 25 160 107 185 25 b 385 147 326 25 385 83 b 221 439 385 268 375 422 l 215 449 b 374 649 335 489 374 519 b 272 808 374 715 357 808 b 171 675 200 808 171 738 b 204 567 171 633 188 604 b 175 553 204 553 185 553 b 63 676 107 553 63 611 b 271 844 63 785 174 844 b 493 646 389 844 493 772 b 343 456 493 514 413 533 b 443 392 343 432 424 408 b 526 233 493 349 500 290 l 526 189 b 411 36 488 140 497 36 l 404 44 l 401 40 l 404 36 b 293 -11 378 3 324 18 l 235 -11 b 35 165 201 38 35 -12 m 104 174 b 114 158 104 168 107 158 l 124 165 b 104 174 124 172 110 174 m 92 150 b 83 133 85 150 83 139 b 99 143 89 133 99 136 l 92 150 m 444 572 l 454 579 l 444 592 l 438 583 m 447 614 l 454 622 l 444 633 l 438 625 m 419 689 b 426 675 419 685 419 675 l 432 681 b 419 692 432 689 426 692 m 403 75 b 411 88 411 75 411 81 l 406 88 b 396 81 401 88 396 86 m 488 197 l 496 206 l 486 214 l 479 204 m 422 636 l 432 644 l 422 653 l 415 644 m 382 511 l 390 522 l 382 528 l 374 518 m 404 656 l 413 664 l 403 672 l 396 664 m 444 153 l 451 161 l 442 169 l 435 161 m 424 594 l 432 603 l 424 611 l 415 603 m 403 575 l 413 585 l 404 592 l 396 583 m 446 117 l 454 122 l 444 133 l 438 125 m 113 114 l 114 114 b 121 122 118 114 121 118 l 115 131 l 107 122 m 465 594 l 474 600 l 464 611 l 457 603 m 471 136 l 476 144 l 468 153 l 460 146 m 403 531 l 410 540 l 401 550 l 396 540 m 404 114 l 413 124 l 404 131 l 399 122 m 69 158 l 76 165 l 69 175 l 63 165 m 425 92 l 432 100 l 425 108 l 418 99 m 404 742 l 413 750 l 404 756 l 396 750 m 96 175 l 101 183 l 94 192 l 88 183 m 444 200 l 451 208 l 444 217 l 438 208 m 92 94 l 99 103 l 90 111 l 85 104 m 440 660 b 453 669 447 660 453 661 l 440 669 m 85 685 b 96 679 85 681 92 679 l 96 693 l 85 686 m 425 553 l 426 553 l 432 558 l 424 567 l 418 560 m 449 700 l 454 706 l 447 714 l 446 714 l 440 708 m 68 124 b 75 117 68 119 71 117 l 76 117 l 79 122 l 79 124 l 72 131 l 68 124 m 440 286 l 446 281 l 447 281 b 453 293 453 281 453 289 l 440 288 m 382 53 l 390 61 l 383 67 l 376 61 m 403 697 l 410 704 l 403 711 l 396 706 m 110 200 l 118 208 l 111 214 l 104 208 m 467 639 l 474 646 l 468 653 l 460 646 m 446 75 l 451 82 l 444 89 l 438 85 m 383 764 b 389 776 389 764 389 772 b 379 769 385 776 379 775 m 131 139 l 138 144 l 131 150 l 129 150 l 124 144 m 460 225 l 465 219 l 471 226 l 467 233 l 460 226 m 425 139 l 426 139 l 432 144 l 425 150 l 418 146 m 406 200 l 407 200 l 413 206 l 406 214 l 401 207 m 419 232 b 429 219 419 225 424 222 l 429 224 b 419 232 429 231 426 232 m 133 97 l 140 101 l 133 108 l 126 103 m 72 200 l 79 206 l 74 211 l 65 204 m 424 722 b 431 735 429 722 431 731 l 418 726 m 488 286 l 493 289 l 486 297 l 479 292 m 463 681 l 471 681 l 471 689 l 463 689 m 472 263 l 467 275 l 460 268 m 486 156 l 493 161 l 488 167 l 482 161 m 132 178 l 138 182 l 132 189 l 126 185 m 154 742 l 160 749 l 154 753 l 149 749 m 92 222 l 96 228 l 92 233 l 85 228 m 467 97 l 471 103 l 465 108 l 460 104 m 115 75 b 121 81 118 75 121 78 l 115 83 l 110 79 m 404 286 b 410 292 407 286 410 289 l 404 294 l 399 290 m 443 742 b 449 747 446 742 449 744 l 444 753 l 440 747 m 135 53 l 135 65 l 126 60 m 485 119 l 490 122 b 481 129 490 126 485 129 m 360 490 l 368 496 l 363 500 l 360 500 m 346 806 l 349 810 l 344 814 l 340 810 m 465 304 l 474 308 l 468 311 l 465 311 m 386 556 l 392 565 l 382 560 m 149 81 b 153 78 150 79 151 78 b 157 81 154 78 156 79 b 153 83 156 82 154 83 b 149 81 151 83 150 82 m 129 772 b 135 769 131 771 132 769 l 138 769 l 135 775 l 129 772 m 407 253 b 404 247 404 251 404 250 l 410 247 b 407 253 410 250 410 251 m 388 731 b 382 725 385 731 382 728 l 388 725 l 388 731 m 151 39 l 157 39 b 154 44 157 42 157 43 m 501 228 b 504 222 501 225 501 224 l 504 228 l 501 228 m 401 369 l 404 369 l 404 372 l 401 372 m 151 706 l 157 706 l 151 708 m 426 350 l 429 353 l 424 353 m 340 17 l 343 19 l 340 22 m 426 769 b 425 768 425 769 425 768 b 426 767 425 768 425 767 b 428 768 428 767 428 768 b 426 769 428 768 428 769 m 401 790 b 400 789 400 790 400 789 b 401 788 400 789 400 788 b 403 789 403 788 403 789 b 401 790 403 789 403 790 m 135 271 b 133 269 133 271 133 269 b 135 268 133 269 133 268 b 136 269 136 268 136 269 b 135 271 136 269 136 271 m 132 686 b 136 683 133 685 135 683 l 138 683 b 133 686 136 685 135 686 l 132 686 m 401 328 l 404 328 l 404 331 m 90 644 l 93 644 l 90 647 m 363 414 l 365 414 l 363 417 "},"4":{"ha":590,"x_min":0,"x_max":0,"o":"m 297 57 b 286 143 297 68 307 143 l 17 143 l 6 154 l 4 165 b 14 190 4 175 7 183 l 183 451 b 289 801 258 567 267 671 b 375 838 293 828 356 825 b 428 796 414 838 428 844 b 339 538 428 710 393 606 l 69 199 b 64 188 67 196 65 190 l 75 179 l 156 178 b 297 421 340 178 289 224 l 314 429 l 344 429 b 418 276 456 429 418 382 b 431 260 418 268 421 260 b 532 360 485 260 481 360 b 558 329 547 360 554 340 b 419 157 558 179 429 210 b 414 15 411 113 417 61 l 403 1 l 339 1 b 297 57 310 1 297 32 m 311 735 b 333 756 322 735 333 744 l 325 763 b 306 743 314 763 306 754 m 374 374 l 383 382 l 375 388 l 367 381 m 328 121 l 336 131 l 331 138 l 322 128 m 347 401 b 360 394 347 396 356 394 b 353 407 360 399 358 407 l 347 401 m 283 590 b 296 583 283 585 292 583 b 289 596 296 588 294 596 l 283 590 m 313 199 b 307 188 308 199 307 192 l 318 188 b 313 199 318 192 317 199 m 354 101 l 361 110 l 354 115 l 347 110 m 372 207 l 381 215 l 374 221 l 367 214 m 347 613 b 357 606 347 607 353 606 b 351 618 357 610 357 618 l 347 613 m 365 763 b 375 753 365 756 368 753 l 375 763 l 365 763 m 394 313 l 403 318 l 396 324 l 389 318 m 353 643 l 358 650 l 353 657 l 347 650 m 372 710 l 378 717 l 372 724 l 367 717 m 332 376 l 339 383 l 332 388 l 325 381 m 311 607 b 317 611 314 607 317 608 l 317 613 l 311 618 l 310 618 l 306 613 m 331 668 b 336 672 333 668 336 669 l 336 674 l 331 679 l 329 679 l 325 674 m 354 685 l 358 692 l 353 699 l 347 693 m 356 351 l 361 357 l 354 365 l 350 358 m 306 568 b 310 563 306 565 307 563 l 311 563 l 317 568 l 310 574 l 306 568 m 374 335 l 381 338 b 374 343 381 342 376 343 l 367 339 m 396 190 b 403 196 399 190 403 192 l 396 199 l 389 194 m 496 250 l 508 256 l 501 263 m 331 85 l 336 90 l 331 96 l 325 90 m 375 293 l 381 299 l 375 304 l 369 299 m 311 688 l 317 693 l 311 699 l 306 693 m 332 210 l 336 215 l 333 221 b 328 215 331 221 328 218 m 369 126 b 375 132 372 126 375 129 l 371 138 l 367 132 m 350 315 l 356 319 l 350 324 b 344 318 347 324 344 321 m 353 146 l 358 150 l 353 154 l 347 150 m 253 458 l 253 469 l 244 464 m 353 232 l 358 236 l 353 240 l 347 236 m 392 268 l 397 275 l 393 279 l 389 274 m 332 585 l 336 590 l 333 596 l 328 589 m 308 272 l 317 279 l 311 282 l 308 282 m 350 274 b 354 282 353 275 354 279 b 347 278 351 282 347 281 m 374 671 b 378 678 376 671 378 675 b 369 674 375 678 371 676 m 353 774 l 357 783 l 347 778 m 351 188 l 356 193 l 351 196 l 347 192 m 332 335 l 336 339 l 332 343 l 328 339 m 228 440 l 233 444 l 229 449 l 225 444 m 269 565 l 275 569 l 271 574 l 267 569 m 292 544 l 292 553 l 283 549 m 356 60 l 360 68 l 351 68 m 393 357 l 397 361 l 393 365 l 389 361 m 331 251 b 335 260 333 253 335 257 l 328 257 m 311 68 l 317 68 b 313 74 317 71 315 74 l 311 74 m 311 782 b 308 776 310 781 308 778 l 317 776 l 311 782 m 328 171 l 336 171 l 332 176 m 436 193 l 439 193 b 436 199 439 196 439 197 m 522 321 b 528 318 524 318 525 318 l 528 321 l 522 321 m 292 633 b 290 632 290 633 290 632 b 292 631 290 632 290 631 b 293 632 293 631 293 632 b 292 633 293 632 293 633 m 333 715 b 332 717 333 717 332 717 b 331 715 332 717 331 717 b 332 714 331 714 332 714 b 333 715 332 714 333 714 m 331 801 b 329 800 329 801 329 800 b 331 799 329 800 329 799 b 332 800 332 799 332 800 b 331 801 332 800 332 801 m 394 68 b 393 67 393 68 393 67 b 394 65 393 67 393 65 b 396 67 396 65 396 67 b 394 68 396 67 396 68 m 392 115 b 390 114 390 115 390 114 b 392 113 390 114 390 113 b 393 114 393 113 393 114 b 392 115 393 114 393 115 m 272 529 b 271 531 272 531 271 531 b 269 529 271 531 269 531 b 271 528 269 528 271 528 b 272 529 271 528 272 528 m 311 319 b 310 318 310 319 310 318 b 311 317 310 318 310 317 b 313 318 313 317 313 318 b 311 319 313 318 313 319 m 333 296 l 333 299 l 331 299 m 369 801 l 372 801 l 369 804 m 106 276 l 106 279 l 103 279 "},"5":{"ha":542,"x_min":0,"x_max":0,"o":"m 213 -6 b 28 178 117 31 28 57 l 29 194 l 35 200 b 167 322 53 269 88 322 l 190 322 l 193 317 l 193 314 b 151 171 164 271 151 222 b 249 25 151 108 171 25 b 360 244 351 25 360 171 b 201 472 360 354 336 472 b 85 447 161 472 119 447 l 75 447 b 94 731 79 542 85 638 b 107 808 97 756 99 785 b 111 814 107 808 108 814 b 349 767 158 814 257 767 b 424 801 374 767 424 764 b 401 863 424 825 403 840 l 411 872 b 485 754 458 872 485 793 b 381 650 485 693 442 650 b 149 756 292 650 214 701 l 140 758 l 132 750 l 111 524 l 115 519 b 242 539 158 519 199 539 b 496 260 406 539 496 415 b 239 -12 496 114 389 -12 l 218 -11 l 213 -6 m 424 269 l 432 279 b 418 292 431 285 425 292 l 415 289 l 413 281 m 439 289 l 451 300 l 442 308 l 432 299 m 64 186 l 74 196 l 65 203 l 54 196 m 85 125 l 96 135 l 86 142 l 76 132 m 399 189 l 410 197 l 400 203 l 388 196 m 81 182 b 94 168 81 171 83 168 b 81 182 94 179 92 182 m 251 486 l 260 494 l 251 503 l 243 494 m 439 186 l 446 193 l 438 203 l 429 196 m 443 250 l 449 256 l 449 257 l 442 267 l 435 258 m 465 272 l 474 281 l 465 286 l 457 279 m 397 144 l 407 153 l 397 158 l 390 153 m 375 125 l 385 131 l 375 139 l 368 133 m 126 125 l 135 131 l 125 139 l 118 132 m 126 42 l 135 49 l 125 56 l 118 50 m 108 64 l 115 71 l 106 78 l 99 72 m 424 358 l 429 364 l 419 375 l 415 368 m 443 336 b 450 349 449 336 450 344 l 440 347 l 438 344 m 457 319 l 463 314 l 471 321 l 463 328 l 457 321 m 108 144 l 113 151 l 106 158 l 99 151 m 64 147 l 71 156 l 64 161 l 57 153 m 106 189 l 113 197 l 107 203 l 99 194 m 85 86 l 90 94 l 85 103 l 79 93 m 442 158 b 436 146 436 158 436 150 b 446 153 440 146 446 147 l 442 158 m 126 292 b 119 283 122 292 119 288 l 133 283 b 126 292 133 288 131 292 m 107 117 b 100 107 103 117 100 111 b 113 114 106 107 113 107 l 107 117 m 400 261 l 407 267 l 401 272 l 400 272 l 393 265 m 425 314 l 432 322 l 426 328 l 425 328 l 421 321 m 418 128 b 424 133 421 128 424 131 b 418 139 424 136 421 139 l 413 133 m 125 83 l 132 89 l 125 94 l 118 88 m 376 83 l 382 89 l 376 94 l 368 89 m 247 751 b 254 739 247 747 249 739 l 260 743 l 247 751 m 371 411 b 381 407 372 407 378 407 b 376 417 381 410 381 415 l 371 411 m 403 65 l 397 78 l 390 71 m 375 367 l 382 372 l 378 378 l 371 371 m 126 169 l 132 172 b 126 178 132 175 129 178 l 121 174 m 376 47 l 382 51 l 376 56 l 371 51 m 457 169 l 463 174 l 457 178 l 451 174 m 440 376 l 449 382 l 443 386 l 440 386 m 413 206 l 418 206 l 418 214 l 413 214 m 376 172 l 382 176 l 378 181 l 371 175 m 394 303 b 399 310 397 303 399 307 b 390 306 396 310 392 308 m 311 472 l 319 472 l 315 481 m 443 739 l 447 747 l 439 747 m 440 699 l 449 703 l 443 706 l 440 706 m 147 64 l 153 74 l 143 68 m 424 400 l 431 406 l 424 406 m 424 722 l 429 725 b 425 728 428 726 426 728 l 424 728 m 379 331 b 374 328 376 331 375 331 l 379 328 l 379 331 m 85 244 l 88 244 l 88 247 l 85 247 m 335 47 l 338 47 l 338 50 l 335 50 m 85 211 b 83 213 85 213 83 213 b 82 211 83 213 82 213 b 83 210 82 210 83 210 b 85 211 83 210 85 210 m 190 768 b 189 767 189 768 189 767 b 190 765 189 767 189 765 b 192 767 192 765 192 767 b 190 768 192 767 192 768 m 107 268 b 106 267 106 268 106 267 b 107 265 106 267 106 265 b 108 267 108 265 108 267 b 107 268 108 267 108 268 m 210 744 b 208 743 208 744 208 743 b 210 742 208 743 208 742 b 211 743 211 742 211 743 b 210 744 211 743 211 744 m 399 113 b 397 111 397 113 397 111 b 399 110 397 111 397 110 b 400 111 400 110 400 111 b 399 113 400 111 400 113 m 426 686 b 425 688 426 688 425 688 b 424 686 425 688 424 688 b 425 685 424 685 425 685 b 426 686 425 685 426 685 m 210 499 b 208 497 208 499 208 497 b 210 496 208 497 208 496 b 211 497 211 496 211 497 b 210 499 211 497 211 499 "},"6":{"ha":564,"x_min":0,"x_max":0,"o":"m 349 844 b 372 826 356 836 364 831 b 367 817 368 825 367 822 l 376 817 l 376 824 b 504 694 436 792 504 813 b 365 561 504 617 442 561 l 349 561 l 343 569 b 390 710 343 621 390 658 b 321 808 390 750 369 808 b 179 468 193 808 179 558 l 179 442 l 186 439 l 190 439 b 308 483 225 464 265 483 b 526 275 453 483 478 385 l 526 231 b 504 144 508 207 515 171 b 304 -11 467 49 390 25 l 257 -11 b 188 11 240 8 210 6 b 35 353 54 42 35 242 l 38 360 l 35 367 l 35 408 b 331 844 58 435 54 844 l 349 844 m 281 450 b 176 397 251 450 176 435 l 176 197 b 286 22 176 129 200 22 b 396 236 382 22 396 167 b 281 450 396 311 382 450 m 433 208 b 461 246 447 208 461 233 l 446 239 b 424 218 442 231 432 224 m 363 446 b 382 435 363 438 375 435 b 369 453 381 442 378 453 l 363 446 m 435 667 l 443 678 l 433 686 l 424 678 m 389 414 l 399 425 l 389 433 l 382 422 m 154 160 b 163 144 154 154 156 144 l 168 151 b 154 160 168 160 161 160 m 436 750 l 446 757 l 433 767 l 426 760 m 100 214 b 108 226 108 214 108 219 b 93 218 104 226 93 225 m 413 603 l 421 611 l 413 619 l 404 613 m 415 244 b 408 229 410 243 408 235 b 421 239 415 229 421 231 l 415 244 m 426 93 b 436 83 428 89 432 83 l 438 83 l 440 92 l 432 100 l 426 93 m 161 103 l 168 113 l 161 122 l 154 113 m 117 228 l 126 239 l 119 244 l 110 233 m 479 710 l 479 725 l 474 728 l 468 718 m 182 42 l 190 53 l 188 56 l 175 57 m 78 228 l 85 236 l 79 244 l 71 236 m 142 81 l 149 89 l 142 97 l 135 89 m 165 64 l 174 71 l 165 78 l 157 71 m 414 772 l 421 779 l 413 789 l 407 782 m 413 356 l 421 365 l 414 369 l 404 361 m 450 103 b 458 115 457 103 458 110 b 446 108 454 115 446 114 m 407 649 b 418 657 413 649 418 650 l 411 661 l 407 661 m 468 133 b 481 126 468 128 476 126 b 474 139 481 131 479 139 l 468 133 m 181 711 l 188 719 l 182 728 b 176 718 178 726 176 722 m 432 125 l 440 133 l 435 139 l 433 139 l 426 132 m 61 386 b 56 375 57 386 56 379 l 67 375 b 61 386 67 379 65 386 m 121 106 l 126 114 l 118 119 l 113 114 m 475 669 l 482 676 l 474 683 l 468 676 m 429 167 l 438 174 l 432 181 l 424 174 m 456 689 l 460 696 l 453 703 l 446 696 m 433 253 l 440 258 l 432 267 l 426 258 m 433 625 l 440 633 l 433 639 l 426 633 m 121 189 l 126 196 l 121 203 l 113 196 m 392 792 l 399 799 l 390 806 l 385 799 m 92 553 b 99 542 92 549 93 542 l 101 544 l 103 553 l 92 553 m 454 147 l 460 153 l 453 161 l 446 154 m 494 233 l 501 240 l 493 247 l 488 242 m 456 356 l 463 361 l 454 369 l 449 364 m 147 390 b 136 379 139 390 136 388 b 147 390 144 379 147 382 m 85 285 b 74 275 78 285 74 282 l 85 275 l 85 285 m 397 585 b 390 597 397 590 397 597 l 385 590 m 144 181 b 136 168 138 181 136 174 l 149 174 l 144 181 m 431 297 l 438 300 b 431 308 438 304 435 307 l 424 303 m 181 81 b 186 93 186 81 186 89 b 176 86 182 93 176 92 m 121 367 b 114 358 117 367 114 363 l 128 358 b 121 367 128 363 125 367 m 118 158 b 111 147 113 158 111 151 l 124 151 l 118 158 m 365 31 b 371 25 365 28 368 25 l 376 31 l 371 36 b 365 31 368 36 365 33 m 135 258 b 140 253 135 256 138 253 b 146 258 143 253 146 256 l 140 264 l 135 258 m 100 128 l 107 133 l 99 139 l 93 132 m 392 44 l 399 50 l 392 56 l 385 50 m 478 253 l 482 260 l 476 267 l 471 260 m 433 714 l 440 718 l 432 725 l 426 719 m 406 157 b 413 144 406 153 408 147 l 418 151 l 406 157 m 451 647 b 458 660 456 650 458 656 l 446 654 m 153 244 b 160 233 153 240 154 233 l 163 239 b 153 244 163 243 156 244 m 413 67 b 418 71 415 67 418 68 l 418 72 l 413 78 l 407 71 m 449 283 l 447 271 l 457 279 l 451 286 m 410 696 b 421 690 410 692 417 690 b 415 700 421 693 419 700 l 410 696 m 419 397 b 413 408 419 401 418 408 l 407 404 m 94 346 b 101 336 94 342 96 336 l 104 340 b 94 346 104 344 97 346 m 478 292 l 482 297 l 476 303 l 471 297 m 432 417 l 438 424 l 432 428 l 426 424 m 494 272 l 499 278 l 494 283 l 488 278 m 454 731 l 457 738 l 454 744 l 449 738 m 447 775 l 457 775 l 457 785 m 140 128 l 146 133 l 140 136 l 135 133 m 200 25 l 211 25 l 206 33 m 413 108 l 418 113 l 413 117 l 407 113 m 428 339 l 439 339 l 432 347 m 136 219 b 146 214 136 215 143 214 l 146 219 l 136 219 m 96 172 l 104 172 b 99 178 104 175 101 178 l 96 178 m 138 592 b 146 588 139 589 143 588 b 142 594 146 590 144 594 l 138 592 m 140 336 l 146 339 l 142 344 l 138 342 m 118 317 l 124 321 l 114 326 m 419 315 l 414 325 l 410 319 m 79 190 l 79 199 l 71 194 m 121 397 l 125 406 l 117 406 m 163 189 l 168 192 l 163 197 l 160 192 m 343 461 l 349 461 l 349 467 l 343 467 m 115 275 l 121 275 l 121 281 l 115 281 m 410 733 l 415 733 l 415 739 l 410 739 m 143 292 l 146 300 l 139 300 m 410 197 b 414 194 411 196 413 194 b 418 197 415 194 417 196 b 414 200 417 199 415 200 b 410 197 413 200 411 199 m 118 442 l 124 444 b 119 447 122 446 121 447 b 115 444 118 447 117 446 m 474 222 b 471 217 471 221 471 219 l 476 217 b 474 222 476 219 476 221 m 494 192 l 499 197 l 490 197 m 454 317 l 460 319 b 456 322 458 321 457 322 l 454 322 m 432 803 b 429 797 431 801 429 799 b 435 800 431 797 433 799 l 432 803 m 140 550 l 146 550 b 142 553 144 551 143 553 l 140 553 m 79 361 l 82 361 l 82 364 l 79 364 m 140 628 l 143 631 l 140 633 m 163 525 l 163 531 l 160 531 m 160 694 l 165 694 l 160 697 m 179 636 b 178 635 178 636 178 635 b 179 633 178 635 178 633 b 181 635 181 633 181 635 b 179 636 181 635 181 636 m 60 339 b 58 340 60 340 58 340 b 57 339 58 340 57 340 b 58 338 57 338 58 338 b 60 339 58 338 60 338 m 182 674 b 181 672 181 674 181 672 b 182 671 181 672 181 671 b 183 672 183 671 183 672 b 182 674 183 672 183 674 m 493 319 b 492 318 492 319 492 318 b 493 317 492 318 492 317 b 494 318 494 317 494 318 b 493 319 494 318 494 319 m 82 404 b 81 403 81 404 81 403 b 82 401 81 403 81 401 b 83 403 83 401 83 403 b 82 404 83 403 83 404 m 372 826 l 376 824 l 376 826 "},"7":{"ha":522,"x_min":0,"x_max":0,"o":"m 115 53 b 463 679 115 440 463 482 l 454 692 b 382 664 426 692 410 664 b 146 739 296 664 232 739 b 85 688 114 739 85 722 b 107 622 85 664 106 646 l 99 611 b 32 724 61 613 32 693 l 32 742 b 151 849 63 794 79 849 b 413 714 258 849 339 714 b 482 828 469 714 478 785 l 485 831 l 508 831 b 251 118 508 556 251 392 b 254 8 251 82 254 44 b 215 -11 244 -4 228 -4 l 182 -11 b 115 53 158 4 115 18 m 156 178 b 185 204 168 178 185 190 l 176 211 l 149 183 m 156 136 l 163 144 b 142 167 163 156 153 167 l 132 158 m 197 258 b 204 261 199 257 203 260 l 204 275 l 196 278 l 188 271 m 232 307 b 249 297 232 297 242 297 b 240 314 249 303 247 314 l 232 307 m 188 183 l 190 178 l 206 178 b 197 192 206 185 206 192 l 188 185 m 207 206 b 222 197 207 199 217 197 b 214 214 222 203 221 214 l 207 206 m 182 71 l 182 85 b 171 76 176 85 171 83 m 199 147 b 192 135 193 147 192 139 b 204 142 196 135 204 136 l 199 147 m 254 369 l 260 364 l 268 371 l 261 378 l 254 371 m 257 322 l 258 322 l 265 329 l 261 336 l 251 328 m 156 231 b 150 219 151 231 150 224 l 161 219 b 156 231 161 224 160 231 m 218 239 l 226 246 l 218 253 l 213 246 m 175 156 l 182 163 l 176 169 l 168 163 m 218 111 l 226 119 l 218 125 l 213 119 m 214 292 b 221 281 214 288 215 281 l 224 283 l 225 292 l 214 292 m 156 94 l 163 101 l 157 108 l 149 100 m 196 219 l 201 226 l 197 233 l 188 225 m 174 114 l 182 121 l 176 128 l 168 118 m 239 261 l 246 267 l 238 272 l 232 267 m 113 761 l 118 768 l 113 775 l 107 767 m 260 742 l 265 747 l 258 753 l 251 749 m 132 122 b 142 115 132 117 138 115 b 136 125 142 118 140 125 l 132 122 m 238 344 b 243 350 240 344 243 347 l 239 356 l 235 350 m 129 789 b 138 785 131 786 135 785 b 133 792 138 788 136 792 l 129 789 m 281 394 b 276 388 278 394 276 390 b 285 392 279 388 283 389 l 281 394 m 215 329 b 222 325 215 326 219 325 b 218 333 222 328 221 332 l 215 329 m 133 75 l 142 75 l 138 83 m 299 411 l 304 411 l 304 417 l 299 417 m 318 431 l 324 431 l 324 436 l 318 436 m 238 765 b 240 761 238 764 239 763 b 243 765 242 763 243 764 b 240 769 243 767 242 768 b 238 765 239 768 238 767 m 193 100 b 197 97 194 99 196 97 l 201 103 l 199 103 b 193 100 196 103 194 101 m 88 786 b 93 792 90 786 93 789 l 88 792 m 160 772 b 154 767 157 772 154 769 l 160 767 l 160 772 m 154 806 b 160 808 157 806 158 806 l 154 808 m 196 31 b 199 25 196 28 196 26 l 199 31 l 196 31 m 74 764 l 76 767 l 71 767 m 176 789 b 175 790 176 790 175 790 b 174 789 175 790 174 790 b 175 788 174 788 175 788 b 176 789 175 788 176 788 m 215 78 l 218 78 l 215 81 m 113 811 l 113 814 l 110 814 m 199 61 l 199 64 l 196 64 "},"8":{"ha":596,"x_min":0,"x_max":0,"o":"m 249 -11 b 188 6 231 0 207 -1 b 35 217 82 43 90 150 l 35 267 b 88 389 64 286 65 360 b 190 467 100 406 169 451 b 71 633 182 490 71 510 b 274 842 71 775 167 794 l 296 843 b 518 639 413 843 518 761 b 388 467 518 536 389 499 l 396 456 b 560 258 535 376 499 393 b 324 -11 560 78 468 53 l 249 -11 m 182 233 b 290 25 182 163 193 25 b 418 236 396 25 418 154 b 297 444 418 314 399 444 b 182 233 190 444 182 313 m 204 631 b 292 481 204 572 215 481 b 388 640 369 481 388 579 b 297 803 388 700 378 803 b 204 631 211 803 204 694 m 492 222 l 504 236 l 494 247 l 485 233 m 153 532 b 163 514 153 526 154 514 l 171 522 b 153 532 171 531 158 532 m 411 572 b 401 556 401 572 401 563 b 418 565 408 556 418 556 l 411 572 m 75 261 l 85 272 l 75 281 l 65 272 m 474 283 l 482 292 l 472 303 l 463 293 m 139 325 l 149 333 l 136 344 l 129 335 m 96 283 l 104 293 l 93 306 l 88 296 m 89 658 b 104 669 97 658 104 660 l 97 678 m 472 89 l 482 97 l 472 106 l 463 97 m 117 306 l 126 314 l 119 325 l 110 314 m 118 344 l 126 356 l 117 364 l 110 357 m 136 281 l 146 292 l 138 300 l 129 290 m 158 597 l 171 607 l 161 614 l 151 606 m 119 261 l 126 269 l 117 281 l 110 274 m 431 47 l 438 56 l 431 64 l 421 57 m 201 764 l 210 774 l 201 781 l 193 772 m 160 344 l 168 353 l 160 361 l 151 354 m 158 306 l 168 315 l 168 317 l 163 322 l 151 313 m 513 328 b 519 340 518 328 519 336 l 517 340 b 504 335 513 340 504 340 m 413 64 l 418 74 l 411 83 l 404 74 m 450 347 l 457 358 l 450 367 l 443 356 m 490 108 l 501 119 l 493 125 l 485 117 m 161 642 b 168 649 165 642 168 644 l 168 650 l 158 656 l 151 650 m 472 328 l 474 328 l 479 333 l 471 342 l 463 335 m 424 751 b 439 744 424 746 435 744 l 432 758 l 424 753 m 168 265 b 161 281 168 269 167 281 l 160 281 l 154 272 m 99 328 l 104 336 l 97 344 l 90 336 m 515 283 l 521 292 l 515 300 l 507 292 m 119 111 l 126 118 l 119 128 l 113 119 m 490 267 l 499 275 l 492 283 l 485 275 m 161 767 l 168 774 l 158 781 l 151 774 m 349 453 l 354 461 l 347 469 l 340 461 m 136 533 l 146 542 l 138 547 l 129 542 m 450 267 l 460 274 l 451 281 l 443 272 m 451 642 l 460 649 l 450 656 l 443 650 m 118 181 l 126 186 l 117 194 l 110 188 m 449 111 l 457 117 l 447 125 l 440 118 m 417 779 b 403 768 408 779 403 778 b 417 779 411 768 417 769 m 167 404 b 153 393 158 404 153 403 b 167 404 161 393 167 394 m 140 200 l 146 207 l 138 217 l 132 208 m 428 369 l 435 376 l 425 386 l 421 379 m 432 103 b 425 90 426 103 425 94 b 438 97 429 90 438 92 l 432 103 m 96 628 b 108 621 96 622 104 621 b 101 633 108 625 107 633 l 96 628 m 78 306 l 88 308 l 76 317 l 68 311 m 101 174 b 89 164 94 174 89 172 l 101 164 l 101 174 m 444 82 b 450 69 444 78 444 69 l 451 69 l 457 75 b 444 82 454 79 449 82 m 225 453 l 226 453 l 232 458 l 224 467 l 218 460 m 76 222 l 82 231 l 74 236 l 68 229 m 132 708 l 138 703 l 139 703 b 144 715 144 703 144 711 l 132 710 m 431 619 l 438 626 l 432 633 l 424 626 m 158 181 l 165 188 l 160 194 l 151 188 m 493 306 l 501 311 l 493 319 l 488 313 m 408 517 l 415 522 l 407 531 l 401 522 m 182 578 l 188 586 l 181 592 l 174 588 m 139 161 l 146 168 l 138 175 l 132 169 m 140 367 l 146 372 l 138 381 l 132 374 m 450 389 l 457 399 l 451 403 l 443 396 m 99 203 l 104 208 l 96 217 l 90 211 m 497 351 b 490 364 497 357 497 364 l 485 357 m 519 163 b 513 175 519 168 519 175 l 507 168 m 182 547 b 175 538 176 547 175 542 b 188 543 179 538 188 538 l 182 547 m 406 654 b 411 642 406 650 406 642 l 415 647 b 406 654 415 653 410 654 m 404 396 b 410 392 404 393 407 392 l 415 397 b 411 403 415 400 414 403 l 410 403 l 404 397 m 194 529 b 201 517 194 524 196 519 l 204 522 b 194 529 204 528 199 529 m 433 536 l 438 543 l 432 550 l 426 544 l 426 543 m 132 583 l 138 578 l 143 585 l 139 592 l 132 585 m 411 728 l 418 733 l 413 739 l 411 739 l 404 732 m 69 192 b 79 182 69 185 72 182 l 79 192 l 69 192 m 174 375 b 179 369 174 372 176 369 l 185 375 l 179 381 b 174 375 176 381 174 378 m 181 47 l 188 53 l 179 58 l 174 51 m 450 686 l 457 690 l 451 697 l 443 690 m 179 622 l 188 628 l 179 633 l 174 628 m 432 331 l 440 336 l 432 342 l 426 336 m 140 622 l 146 628 l 138 633 l 132 628 m 158 725 l 165 732 l 158 736 l 151 732 m 182 786 l 188 793 l 182 800 l 176 794 m 179 744 l 185 751 l 181 758 l 174 750 m 472 369 l 479 374 l 471 381 l 465 375 m 472 206 l 479 210 l 471 217 l 465 211 m 451 317 b 446 307 447 317 446 310 b 457 313 450 307 457 308 l 451 317 m 154 114 l 167 114 b 160 122 167 118 165 122 m 510 206 l 519 206 b 513 214 519 210 517 214 l 510 214 m 57 247 l 63 253 l 57 258 l 51 253 m 179 706 l 185 711 l 179 717 l 174 713 m 138 747 l 143 753 l 138 758 l 132 751 m 429 581 l 435 585 l 429 592 l 424 585 m 118 561 l 124 569 l 118 572 l 113 568 m 429 411 l 435 417 l 431 422 l 424 415 m 492 600 l 496 606 l 493 611 b 488 606 490 611 488 608 m 446 231 b 451 225 446 228 449 225 l 454 231 l 450 236 l 446 231 m 472 622 l 476 628 l 474 633 b 468 628 471 633 468 631 m 451 603 b 457 608 454 603 457 606 l 451 611 l 446 607 m 383 497 l 396 503 l 389 508 m 539 268 l 535 281 l 529 274 m 182 675 b 175 667 176 675 175 671 l 182 667 l 182 675 m 426 701 l 435 707 l 429 711 l 426 711 m 450 558 l 456 567 l 444 567 m 139 128 l 144 136 l 133 136 m 199 436 l 204 436 l 204 444 l 199 444 m 453 725 l 457 729 l 444 738 m 161 686 l 165 692 l 156 696 m 92 249 l 101 254 l 96 258 m 406 685 l 415 690 l 410 694 m 489 186 l 497 186 l 493 194 m 140 665 l 140 674 l 132 669 m 118 726 l 126 731 l 121 733 l 118 733 m 478 579 l 472 589 l 468 585 m 179 500 l 185 500 l 185 506 l 179 506 m 407 603 l 413 603 l 413 608 l 407 608 m 54 208 l 60 208 l 60 214 l 54 214 m 471 250 l 476 253 l 469 256 l 465 253 m 510 250 l 515 250 b 511 256 515 253 514 256 l 510 256 m 115 644 l 121 644 b 117 650 121 647 119 650 l 115 650 m 157 225 l 163 229 l 158 233 l 157 233 m 204 38 b 196 33 201 38 197 36 l 204 33 l 204 38 m 468 667 b 474 672 471 667 474 669 l 468 672 m 115 603 b 121 606 118 603 119 603 b 117 608 119 607 118 608 l 115 608 m 138 250 b 140 256 139 251 140 254 b 135 253 139 256 136 254 m 182 100 b 179 94 181 99 179 96 b 185 97 181 94 183 96 l 182 100 m 176 417 l 178 417 b 182 419 179 417 181 418 l 179 422 m 390 56 b 388 50 388 54 388 53 l 390 50 l 390 56 m 426 667 l 429 667 l 429 669 l 426 669 m 474 714 b 472 713 472 714 472 713 b 474 711 472 713 472 711 b 475 713 475 711 475 713 b 474 714 475 713 475 714 m 432 133 b 431 135 432 135 431 135 b 429 133 431 135 429 135 b 431 132 429 132 431 132 b 432 133 431 132 432 132 m 471 133 b 469 132 469 133 469 132 b 471 131 469 132 469 131 b 472 132 472 131 472 132 b 471 133 472 132 472 133 m 160 79 b 158 78 158 79 158 78 b 160 76 158 78 158 76 b 161 78 161 76 161 78 b 160 79 161 78 161 79 "},"9":{"ha":564,"x_min":0,"x_max":0,"o":"m 211 274 l 219 269 l 219 268 b 175 129 188 225 175 182 b 250 24 175 81 192 24 b 386 360 361 24 386 279 l 386 393 l 374 399 b 250 349 326 397 297 349 b 36 557 100 349 110 464 l 36 604 b 242 843 110 761 67 763 l 271 844 b 531 515 540 844 500 560 l 531 407 b 508 271 510 369 519 314 b 233 -12 472 139 389 -12 b 64 90 181 -12 64 25 l 64 179 b 190 274 64 239 139 274 m 169 557 b 296 390 169 486 215 390 b 389 435 318 390 389 406 l 389 615 b 267 813 389 690 363 813 b 169 608 176 813 169 674 l 169 557 m 132 582 l 142 593 l 132 601 l 122 592 m 122 676 l 125 671 l 142 671 l 142 672 b 131 685 142 678 135 682 l 122 678 m 132 168 l 142 175 l 139 182 l 132 182 l 122 176 m 115 143 l 117 143 l 122 149 l 111 160 l 103 154 m 465 585 l 475 590 l 467 601 l 458 592 m 125 217 b 136 211 125 211 132 211 l 139 211 l 139 222 l 136 222 b 125 217 132 222 125 222 m 129 46 b 138 58 138 46 138 51 b 122 51 133 58 122 57 m 421 499 l 431 508 l 424 515 l 414 506 m 103 696 b 115 689 103 690 111 689 l 118 689 l 111 704 l 103 696 m 396 706 b 406 690 396 700 399 690 l 411 697 l 396 706 m 489 565 l 497 572 l 488 579 l 481 572 m 110 188 l 119 194 l 110 201 l 103 196 m 446 479 l 453 488 l 447 496 l 439 486 m 151 65 l 161 72 l 153 79 l 144 71 m 111 646 l 117 653 l 110 660 b 103 651 106 660 103 656 m 133 629 l 136 629 b 142 633 139 629 142 631 l 142 635 l 132 640 l 125 635 m 89 588 b 96 600 94 588 96 596 b 83 593 92 600 83 599 m 444 521 b 451 533 450 521 451 529 b 439 526 447 533 439 532 m 104 536 b 111 524 104 532 106 524 l 117 529 b 104 536 117 535 108 536 m 110 65 l 117 71 l 111 79 l 103 72 m 151 149 l 158 156 l 153 163 l 144 156 m 383 751 l 389 758 l 382 765 l 375 758 m 132 85 l 139 92 l 131 99 l 125 92 m 461 504 l 469 510 l 461 518 l 456 510 m 400 732 l 408 739 l 401 746 l 394 739 m 425 710 l 431 717 l 422 724 l 417 717 m 442 690 l 450 697 l 442 704 l 436 697 m 422 751 l 431 760 l 424 765 l 417 758 m 214 376 l 222 385 l 215 390 l 208 383 m 150 24 l 158 32 l 151 38 l 144 29 m 111 607 l 119 613 l 111 618 l 103 611 m 424 463 l 431 467 l 422 474 l 414 469 m 132 421 l 142 429 l 133 432 l 125 425 m 131 754 b 138 764 136 754 138 760 b 125 758 133 764 125 764 m 446 607 l 453 611 l 446 618 l 439 613 m 465 671 l 472 678 l 465 682 l 458 678 m 469 335 l 475 342 l 468 346 l 461 342 m 447 438 l 453 442 l 453 443 l 447 449 l 446 449 b 442 443 443 449 442 446 m 446 732 l 453 736 l 444 743 l 439 738 m 131 546 l 139 553 l 132 557 l 125 551 m 111 565 l 117 571 l 110 576 l 103 572 m 400 774 l 408 782 l 401 785 l 394 781 m 396 650 b 408 657 400 650 408 651 l 404 663 m 124 711 b 136 718 128 711 136 713 l 132 724 m 67 607 b 74 617 72 607 74 613 b 64 611 71 617 64 615 m 144 113 b 150 107 144 110 147 107 l 156 110 b 150 115 156 113 153 115 l 144 113 m 421 626 l 428 632 l 422 638 l 417 633 m 444 357 l 450 363 l 444 368 l 439 363 m 150 651 l 156 657 l 149 663 l 144 657 m 111 107 l 117 113 l 110 118 l 106 113 m 422 293 l 428 300 l 422 304 l 417 299 m 486 357 l 492 364 l 486 368 l 481 363 m 485 440 l 492 447 l 486 451 l 481 447 m 129 504 l 136 511 l 131 515 l 125 511 m 444 651 l 450 657 l 444 663 l 439 657 m 154 399 l 158 404 l 153 410 l 147 406 m 421 588 l 428 594 l 422 599 l 417 593 m 485 485 l 489 490 l 483 496 l 478 492 m 485 399 l 492 407 l 486 410 l 481 406 m 113 440 l 117 446 l 111 451 l 106 449 m 150 610 l 156 614 l 150 618 b 144 613 147 618 144 615 m 144 196 b 150 190 144 193 147 190 l 156 194 l 150 199 l 144 196 m 418 344 b 425 335 418 340 421 335 l 428 340 l 418 344 m 94 96 b 88 86 89 96 88 90 b 97 93 92 88 94 90 l 94 96 m 422 671 b 429 679 426 671 429 675 b 419 676 426 679 422 678 m 96 631 l 90 640 l 83 635 m 481 647 l 489 651 l 483 657 l 481 657 m 403 565 b 410 574 408 565 410 569 l 403 574 m 422 546 l 428 550 l 422 554 l 417 550 m 486 610 l 492 614 l 486 618 l 481 614 m 443 565 l 447 572 l 443 576 l 439 571 m 151 232 l 157 240 l 146 240 m 92 671 l 97 676 l 92 679 l 86 675 m 364 67 l 364 78 l 356 72 m 90 171 l 97 176 l 92 179 l 86 175 m 460 554 b 467 546 460 550 463 546 l 467 554 l 460 554 m 111 732 b 115 740 114 733 115 738 b 108 736 113 740 108 739 m 399 194 l 408 200 l 403 204 m 193 401 l 197 407 l 193 410 l 189 406 m 90 546 l 96 556 l 86 550 m 135 131 l 129 140 l 125 136 m 506 421 l 511 421 b 507 426 511 424 510 426 l 506 426 m 461 713 b 467 718 464 713 467 715 l 461 718 m 419 424 l 428 424 l 424 429 m 69 654 b 75 657 72 654 74 654 b 71 660 74 658 72 660 l 69 660 m 153 532 b 150 526 150 531 150 529 l 156 526 l 153 532 m 92 513 b 89 507 89 511 89 510 l 92 507 l 92 513 m 150 696 b 156 699 153 696 154 696 l 150 699 m 458 301 l 467 301 l 461 304 m 467 632 l 469 632 l 469 635 l 467 635 m 153 738 b 151 736 151 738 151 736 b 153 735 151 736 151 735 b 154 736 154 735 154 736 b 153 738 154 736 154 738 m 426 382 b 422 379 425 382 424 381 l 424 379 b 428 382 425 379 426 381 m 69 531 b 68 529 68 531 68 529 b 69 528 68 529 68 528 b 71 529 71 528 71 529 b 69 531 71 529 71 531 m 447 322 b 446 321 446 322 446 321 b 447 319 446 321 446 319 b 449 321 449 319 449 321 b 447 322 449 321 449 322 m 406 364 b 404 363 404 364 404 363 b 406 361 404 363 404 361 b 407 363 407 361 407 363 b 406 364 407 363 407 364 m 508 507 b 507 508 508 508 507 508 b 506 507 507 508 506 508 b 507 506 506 506 507 506 b 508 507 507 506 508 506 m 67 574 l 69 574 l 67 576 "},"Ã†":{"ha":1135,"x_min":0,"x_max":0,"o":"m 40 46 b 201 263 96 111 85 263 b 313 244 226 263 299 271 b 93 6 199 196 93 151 b 211 -115 93 -62 142 -115 b 432 121 319 -115 399 33 l 663 715 b 950 840 704 824 850 840 b 1121 726 1026 840 1121 821 b 986 610 1121 651 1056 610 l 960 610 l 938 624 l 938 626 b 1018 740 969 661 1018 688 b 965 796 1018 772 999 796 b 829 594 867 796 829 675 b 935 465 829 525 857 465 b 1071 524 986 465 1031 494 b 1085 499 1083 524 1085 508 b 810 190 1085 408 810 407 b 929 49 810 117 849 49 b 1135 322 1067 49 1135 204 l 1149 315 b 1185 194 1171 279 1185 238 l 1185 171 b 913 -7 1136 42 1047 -7 b 651 176 793 -7 668 43 l 646 182 l 506 182 b 232 -157 417 3 410 -79 l 188 -157 b 40 -10 100 -89 88 -124 m 529 243 b 532 226 528 238 531 232 l 649 226 b 768 365 671 226 733 343 b 868 414 782 375 868 400 l 868 415 b 682 621 742 432 696 500 b 674 618 679 622 675 619 l 529 243 m 713 954 b 653 882 668 954 671 883 l 649 885 l 649 903 b 742 1026 649 956 681 1026 b 906 949 807 1026 840 949 b 958 1010 943 949 936 1010 l 963 1007 l 963 990 b 881 874 963 940 942 874 b 713 954 813 874 775 954 m 761 593 l 768 601 l 768 604 b 765 610 768 606 768 610 l 763 610 l 754 601 l 754 600 m 793 492 b 786 507 793 496 792 507 l 785 507 l 779 499 m 743 574 l 751 579 l 740 588 l 735 582 l 735 581 m 1122 135 l 1129 143 l 1122 149 l 1113 140 m 788 571 l 793 579 l 785 585 l 776 579 m 863 790 b 875 783 863 785 871 783 b 867 796 875 788 872 796 b 863 790 864 796 863 793 m 718 560 b 731 553 718 554 726 553 b 722 565 731 558 729 565 l 718 560 m 738 538 b 750 531 738 532 746 531 b 742 543 750 536 749 543 l 738 538 m 742 993 b 751 999 746 993 750 994 b 742 1001 749 1000 744 1001 b 735 996 738 1001 735 1000 m 744 490 l 751 499 l 743 504 l 738 497 m 847 940 b 842 929 843 940 842 933 l 853 929 b 847 940 853 933 851 940 m 761 565 b 756 554 757 565 756 558 l 767 554 b 761 565 767 558 765 565 m 175 229 b 181 218 175 225 176 218 b 186 229 185 218 186 225 l 175 229 m 769 511 b 764 524 769 515 769 524 l 763 524 l 757 518 l 757 517 m 1064 83 b 1053 72 1056 83 1053 81 b 1064 83 1061 72 1064 75 m 1118 94 b 1129 101 1122 94 1129 96 l 1122 104 l 1118 104 m 1146 154 l 1151 163 l 1144 168 l 1140 161 m 742 615 l 749 621 l 742 626 l 735 621 m 783 615 l 790 621 l 785 629 l 779 621 m 1035 657 l 1040 663 l 1033 671 l 1029 664 m 779 540 b 792 533 779 535 788 533 l 783 546 l 779 540 m 1075 53 l 1088 58 l 1081 65 m 925 428 l 938 433 l 931 440 m 138 179 l 143 185 l 136 190 l 132 185 m 865 449 l 871 454 l 867 460 l 860 453 m 804 515 l 810 519 l 804 524 b 799 518 801 524 799 521 m 801 681 b 810 688 806 681 810 682 l 801 688 m 782 282 l 788 286 l 783 290 l 776 286 m 819 746 l 831 746 l 825 754 m 121 158 l 121 169 l 113 164 m 1038 50 l 1046 56 l 1040 60 l 1038 60 m 746 281 l 746 292 l 738 288 m 743 699 l 749 704 l 743 710 l 740 704 m 808 304 b 804 315 808 307 808 314 l 801 310 m 1165 175 l 1165 185 l 1157 181 m 725 638 l 729 643 l 719 647 m 1011 639 l 1021 644 l 1015 649 m 800 764 l 810 768 l 806 774 m 869 910 l 874 914 l 869 918 l 865 914 m 1161 221 l 1165 225 l 1161 229 l 1157 225 m 1146 199 l 1149 203 l 1144 207 l 1140 203 m 806 932 l 810 935 l 804 940 l 801 936 m 1010 806 l 1018 810 l 1013 813 l 1010 813 m 1100 76 l 1106 86 l 1096 81 m 801 640 l 807 640 l 807 646 l 801 646 m 1140 118 l 1146 118 l 1146 124 l 1140 124 m 740 660 l 746 660 l 746 665 l 740 665 m 721 682 l 726 682 l 726 688 l 721 688 m 1099 118 l 1104 118 b 1100 124 1104 121 1103 124 l 1099 124 m 910 918 b 907 913 907 917 907 915 l 913 913 b 910 918 913 915 913 917 m 821 332 b 826 329 822 329 824 329 l 826 335 b 821 332 824 335 822 335 m 801 599 b 807 604 804 599 807 601 l 801 604 m 826 371 b 821 365 822 371 821 369 b 826 371 825 365 826 367 m 764 640 l 768 646 l 760 646 m 885 807 b 890 810 888 807 889 807 b 886 813 889 811 888 813 l 885 813 m 1079 96 l 1085 99 b 1081 101 1083 100 1082 101 l 1079 101 m 721 96 l 726 99 b 722 101 725 100 724 101 l 721 101 m 801 726 b 807 724 803 725 804 724 l 810 724 b 804 726 808 725 807 726 l 801 726 m 679 682 l 682 682 b 679 688 682 685 682 686 m 824 454 l 829 454 l 826 457 m 57 15 l 60 15 l 60 18 l 57 18 m 763 724 l 765 724 l 765 726 l 763 726 m 807 475 b 806 474 806 475 806 474 b 807 472 806 474 806 472 b 808 474 808 472 808 474 b 807 475 808 474 808 475 m 724 267 b 722 265 722 267 722 265 b 724 264 722 265 722 264 b 725 265 725 264 725 265 b 724 267 725 265 725 267 m 785 956 b 783 954 783 956 783 954 b 785 953 783 954 783 953 b 786 954 786 953 786 954 b 785 956 786 954 786 956 m 743 206 b 742 204 742 206 742 204 b 743 203 742 204 742 203 b 744 204 744 203 744 204 b 743 206 744 204 744 206 m 993 628 b 992 626 992 628 992 626 b 993 625 992 626 992 625 b 994 626 994 625 994 626 b 993 628 994 626 994 628 m 807 61 b 806 60 806 61 806 60 b 807 58 806 60 806 58 b 808 60 808 58 808 60 b 807 61 808 60 808 61 m 888 894 b 886 893 886 894 886 893 b 888 892 886 893 886 892 b 889 893 889 892 889 893 b 888 894 889 893 889 894 m 724 518 b 722 519 724 519 722 519 b 721 518 722 519 721 519 b 722 517 721 517 722 517 b 724 518 722 517 724 517 m 785 665 b 783 667 785 667 783 667 b 782 665 783 667 782 667 b 783 664 782 664 783 664 b 785 665 783 664 785 664 m 865 378 b 864 376 864 378 864 376 b 865 375 864 376 864 375 b 867 376 867 375 867 376 b 865 378 867 376 867 378 m 788 953 b 786 951 786 953 786 951 b 788 950 786 951 786 950 b 789 951 789 950 789 951 b 788 953 789 951 789 953 m 785 121 b 783 122 785 122 783 122 b 782 121 783 122 782 122 b 783 119 782 119 783 119 b 785 121 783 119 785 119 m 804 563 l 807 563 l 804 565 m 721 599 l 724 599 l 721 601 m 782 788 l 785 790 l 782 790 "},"B":{"ha":582,"x_min":0,"x_max":0,"o":"m 147 3 b 57 61 117 -8 57 31 l 57 178 l 60 183 b 85 592 67 319 76 456 l 99 833 l 107 844 b 238 796 142 844 238 847 b 226 667 238 753 226 710 l 226 642 l 231 636 b 417 828 258 710 328 828 b 554 689 519 828 506 751 l 554 647 l 549 642 b 476 500 531 597 508 535 b 368 415 463 485 368 425 b 392 399 368 404 383 400 b 532 271 468 379 532 369 b 179 0 532 103 329 -8 b 164 -6 174 -3 171 -6 b 147 3 158 -6 151 -1 m 185 50 b 200 42 185 42 196 42 b 399 275 318 42 399 167 b 250 378 399 363 321 378 l 215 378 b 196 342 197 378 196 353 b 185 94 192 260 185 178 l 185 50 m 213 422 b 235 417 218 421 229 417 b 424 681 360 417 424 575 b 372 769 424 715 418 769 b 213 450 281 769 213 483 l 213 422 m 171 428 l 199 457 l 188 464 b 163 438 176 464 163 449 m 400 486 b 424 518 413 486 424 507 l 417 525 l 393 494 m 121 469 l 128 469 b 138 474 131 469 138 469 l 136 488 b 154 494 142 486 154 486 l 154 497 l 149 503 l 147 503 l 118 479 m 399 114 l 413 124 l 400 133 b 390 131 397 135 393 132 l 390 124 m 192 486 l 201 494 l 188 508 l 182 499 m 163 569 b 174 553 163 561 164 553 l 179 561 b 163 569 179 568 168 569 m 99 204 b 110 196 99 197 103 196 l 114 196 b 106 214 114 201 113 214 l 99 204 m 149 450 l 157 458 l 147 467 l 140 467 l 138 458 m 128 386 l 138 394 l 135 403 l 128 403 l 118 396 m 379 94 l 388 103 l 376 114 l 368 103 m 129 303 l 138 311 l 125 322 l 118 313 m 108 531 l 115 540 l 107 553 l 99 542 m 136 363 b 154 372 142 363 154 364 l 143 381 m 147 114 l 157 124 l 157 125 l 149 133 l 140 122 m 132 11 l 138 22 l 128 31 l 121 21 m 126 344 l 138 353 l 129 361 l 118 353 m 128 428 l 138 436 l 128 444 l 118 435 m 85 94 l 96 103 l 86 111 l 76 101 m 358 75 l 368 81 l 357 92 l 349 83 m 126 508 l 135 517 l 126 528 l 121 525 l 121 518 m 163 603 b 172 596 163 597 168 596 l 178 596 b 169 608 178 603 178 608 l 163 603 m 106 492 b 114 504 114 492 114 497 l 110 504 b 99 499 107 504 99 504 m 107 239 l 113 244 l 113 246 l 106 256 l 96 247 m 392 379 b 400 367 392 374 393 367 l 407 374 b 396 379 407 379 399 379 l 392 379 m 460 344 l 468 353 l 460 361 l 451 350 m 107 450 l 115 457 l 107 467 l 99 458 m 399 156 l 407 163 l 399 172 l 390 163 m 211 761 l 221 768 l 213 778 l 204 768 m 129 597 l 138 603 l 129 614 l 121 604 m 128 214 l 135 222 l 126 231 l 118 224 m 171 469 l 179 475 l 169 486 l 163 476 m 189 697 l 199 706 l 190 714 l 182 704 m 149 281 l 157 286 l 157 288 b 149 294 157 292 153 294 l 140 289 m 171 803 b 178 815 176 803 178 811 l 175 815 b 163 810 171 815 163 815 m 439 492 l 446 499 l 435 508 l 429 500 m 128 133 l 135 142 l 128 153 l 121 142 m 151 531 l 157 536 l 147 547 l 140 539 m 165 511 l 176 518 l 168 525 l 157 515 m 140 164 b 153 157 140 158 147 157 l 154 157 b 147 169 154 161 153 169 l 140 164 m 453 611 b 461 597 453 604 453 597 l 468 604 l 453 611 m 171 761 l 179 768 l 169 775 l 163 768 m 172 678 l 179 686 l 171 692 l 163 686 m 86 178 l 93 185 l 86 194 l 79 185 m 210 722 l 218 728 l 218 729 b 211 736 218 733 215 736 l 204 729 m 146 200 l 154 210 l 147 217 l 140 208 m 128 803 l 138 811 l 129 817 l 121 810 m 189 406 l 196 414 l 188 419 l 179 415 m 125 719 l 132 726 l 124 736 l 118 728 m 460 556 l 468 561 l 461 569 l 451 560 m 110 367 l 115 374 l 108 383 l 101 375 m 149 408 l 154 415 l 147 425 l 140 418 m 479 325 l 488 333 l 482 342 l 474 332 m 121 271 b 133 265 121 265 129 265 l 136 265 b 128 275 136 271 135 275 l 121 271 m 457 514 l 468 514 b 461 525 468 519 468 525 l 457 525 m 82 306 l 93 306 b 86 317 93 311 93 317 l 82 317 m 475 660 l 481 660 b 490 667 485 660 490 661 l 483 672 m 126 181 b 133 193 132 181 133 189 b 121 186 129 193 121 192 m 189 744 l 196 751 l 190 758 b 182 750 186 757 183 754 m 165 225 l 175 224 b 168 236 175 228 174 236 l 163 228 m 415 475 l 425 474 b 418 486 425 478 424 486 l 413 478 m 442 628 b 436 617 438 628 436 621 l 447 617 b 442 628 447 621 446 628 m 308 419 b 314 408 308 415 310 408 b 319 419 318 408 319 415 l 308 419 m 411 231 b 417 219 411 226 413 219 b 422 231 421 219 422 226 l 411 231 m 167 389 l 174 394 l 167 403 l 160 394 m 108 156 l 115 161 l 108 169 l 101 161 m 149 783 l 157 789 l 150 797 l 143 789 m 461 303 l 468 310 l 461 317 l 454 308 m 461 219 l 468 228 l 461 233 l 454 225 m 125 556 l 132 561 l 124 569 l 118 561 m 374 478 b 385 471 374 472 381 471 l 385 482 l 376 481 l 374 478 m 146 742 l 154 750 l 147 756 l 140 749 m 483 700 l 490 704 l 482 714 l 476 706 m 113 281 l 113 293 b 101 286 108 293 101 292 m 167 342 l 174 350 l 167 358 l 163 350 m 185 786 l 196 786 l 196 794 l 185 794 m 482 200 l 490 207 l 482 211 l 474 206 m 153 75 l 160 79 l 151 86 l 143 82 m 499 683 l 501 681 b 507 686 504 681 507 683 b 497 693 507 692 501 693 m 163 22 b 172 15 163 17 168 15 b 167 28 172 19 172 28 l 163 22 m 511 299 b 517 286 511 294 511 286 l 521 292 b 511 299 521 297 515 299 m 482 575 b 489 585 488 575 489 581 b 476 579 485 585 476 585 m 525 661 l 532 667 l 526 672 l 525 672 l 518 665 m 189 661 l 196 664 l 189 672 l 188 672 l 182 667 m 82 260 b 92 269 89 260 92 263 l 82 269 m 481 742 l 488 749 l 481 753 l 474 747 m 440 575 l 449 581 l 442 586 l 435 581 m 108 408 l 115 414 l 108 419 l 101 414 m 500 639 l 507 644 l 500 650 l 493 644 m 107 33 l 113 40 l 106 44 l 99 40 m 210 556 l 218 561 l 210 567 l 204 561 m 481 283 l 488 292 l 481 297 l 476 290 m 504 303 l 510 308 l 503 314 l 496 310 m 149 700 l 157 707 l 150 711 l 143 706 m 208 803 l 215 808 l 207 814 l 201 810 m 125 53 l 132 60 l 128 67 l 121 58 m 143 332 b 156 326 143 326 151 326 l 150 336 l 143 332 m 376 144 b 382 139 376 142 379 139 l 388 142 b 382 147 388 144 385 147 l 376 144 m 217 596 l 211 608 l 204 601 m 418 139 l 424 144 l 418 150 l 413 144 m 107 328 l 113 333 l 107 339 l 101 333 m 481 533 l 488 540 l 482 544 l 476 539 m 110 619 l 115 622 b 110 628 115 625 113 628 l 104 624 m 521 619 l 526 624 l 521 628 b 515 622 518 628 515 625 m 338 67 b 335 57 336 64 335 60 b 343 64 339 57 343 60 l 338 67 m 188 576 l 196 581 l 190 586 l 188 586 m 165 721 l 174 725 l 168 731 l 165 731 m 86 139 l 93 143 l 88 147 l 82 144 m 215 399 b 207 392 211 399 207 397 l 215 392 l 215 399 m 168 303 l 174 307 l 168 314 l 165 308 m 88 222 l 93 226 l 88 231 l 82 226 m 108 658 l 113 664 l 108 669 l 104 664 m 440 328 l 446 332 l 443 336 l 435 331 m 422 100 b 418 111 422 103 422 110 l 415 104 m 310 38 b 321 42 313 38 319 38 l 315 44 m 360 786 l 363 792 l 358 794 l 354 790 m 193 538 l 193 546 l 185 542 m 524 703 l 529 708 l 524 711 l 521 707 m 86 347 l 90 351 l 86 356 l 82 351 m 146 31 l 150 39 l 142 39 m 414 353 l 424 353 l 421 358 m 438 369 l 443 369 b 439 375 443 372 442 375 l 438 375 m 444 539 b 449 542 446 539 447 540 b 443 544 447 543 446 544 l 440 544 m 393 81 b 399 83 396 81 397 81 b 394 86 397 85 396 86 l 393 86 m 190 619 l 197 619 l 190 625 m 371 389 l 379 392 b 375 394 378 393 376 394 m 107 81 l 113 81 b 110 86 110 82 110 83 l 107 86 m 210 642 l 213 644 l 210 647 l 207 644 m 168 186 l 174 186 l 174 189 l 168 189 m 168 267 l 171 267 b 168 272 171 269 171 271 m 421 306 b 424 311 424 307 424 308 l 421 311 m 460 642 l 465 642 b 461 644 464 643 463 644 l 460 644 m 460 728 l 463 728 l 463 731 l 460 731 m 457 144 l 460 144 l 460 147 l 457 147 m 415 186 l 418 186 l 418 189 l 415 189 m 171 643 b 169 642 169 643 169 642 b 171 640 169 642 169 640 b 172 642 172 640 172 642 b 171 643 172 642 172 643 m 210 524 b 208 522 208 524 208 522 b 210 521 208 522 208 521 b 211 522 211 521 211 522 b 210 524 211 522 211 524 m 88 435 b 86 433 86 435 86 433 b 88 432 86 433 86 432 b 89 433 89 432 89 433 b 88 435 89 433 89 435 m 499 561 b 497 560 497 561 497 560 b 499 558 497 560 497 558 b 500 560 500 558 500 560 b 499 561 500 560 500 561 m 438 289 l 440 289 l 438 292 m 501 767 l 504 767 l 501 769 m 396 789 l 399 789 l 399 792 "},"C":{"ha":697,"x_min":0,"x_max":0,"o":"m 40 347 b 424 840 40 564 176 840 b 593 690 510 840 593 782 b 457 529 593 619 533 529 l 368 529 b 338 542 357 529 343 532 b 476 696 407 571 476 610 b 411 801 476 740 469 801 b 196 304 228 801 196 438 b 397 21 196 186 258 21 b 638 121 497 21 593 118 l 646 107 b 382 -24 644 32 435 6 b 40 347 175 -24 40 147 m 521 632 l 526 640 l 519 649 l 513 640 m 131 403 b 125 415 131 407 131 415 l 124 415 l 118 410 l 118 408 m 100 383 b 113 392 106 383 113 385 l 106 396 m 264 758 b 276 767 269 758 276 760 l 269 771 m 149 268 b 142 258 143 268 142 263 b 154 264 146 258 154 258 l 149 268 m 57 347 b 69 342 57 342 65 342 b 63 351 69 346 68 351 l 57 347 m 118 369 b 131 364 118 364 126 364 b 124 374 131 368 129 374 l 118 369 m 99 264 b 111 258 99 258 107 258 b 104 268 111 263 110 268 l 99 264 m 249 699 b 256 708 254 699 256 704 b 243 701 250 708 246 707 m 496 614 b 506 624 503 614 506 617 l 496 624 m 88 417 b 78 407 81 417 78 414 l 88 407 l 88 417 m 88 500 b 78 490 81 500 78 497 l 88 490 l 88 500 m 121 281 b 131 290 128 281 131 283 l 121 290 m 533 667 b 543 654 533 660 538 657 l 546 661 l 533 667 m 249 740 l 257 747 l 250 751 l 243 746 m 475 803 b 488 808 479 803 488 803 l 483 813 m 164 613 l 171 618 l 165 624 l 160 618 m 206 696 l 213 703 l 206 707 l 201 701 m 79 371 b 88 364 79 365 83 364 l 88 371 l 79 371 m 126 238 l 131 246 l 119 246 m 210 615 l 213 624 l 203 624 m 79 331 b 83 324 79 328 81 324 l 88 326 b 79 331 86 329 82 331 m 540 740 l 546 744 l 542 749 l 538 744 m 163 240 l 168 240 l 168 246 l 163 246 m 521 768 b 524 763 521 767 522 764 l 529 768 l 521 768 m 540 624 b 538 618 538 622 538 621 l 543 618 b 540 624 543 621 543 622 m 79 454 b 82 449 79 451 79 450 b 85 454 85 450 85 451 l 79 454 m 140 393 b 146 388 140 390 143 388 l 146 393 l 140 393 m 143 471 b 149 476 146 471 149 474 l 143 476 m 228 721 l 232 726 l 224 726 m 185 93 l 193 93 l 189 99 m 146 638 l 151 638 l 151 640 l 146 640 m 538 701 l 543 701 b 539 704 542 703 540 704 l 538 704 m 163 118 l 168 118 b 164 121 167 119 165 121 l 163 121 m 163 326 l 168 326 l 165 329 m 476 596 l 479 596 l 479 599 l 476 599 m 124 449 l 126 449 l 126 451 l 124 451 m 207 115 b 206 117 207 117 206 117 b 204 115 206 117 204 117 b 206 114 204 114 206 114 b 207 115 206 114 207 114 m 168 576 b 167 578 168 578 167 578 b 165 576 167 578 165 578 b 167 575 165 575 167 575 b 168 576 167 575 168 575 m 82 244 b 81 243 81 244 81 243 b 82 242 81 243 81 242 b 83 243 83 242 83 243 b 82 244 83 243 83 244 m 146 515 b 144 514 144 515 144 514 b 146 513 144 514 144 513 b 147 514 147 513 147 514 b 146 515 147 514 147 515 m 188 561 b 186 560 186 561 186 560 b 188 558 186 560 186 558 b 189 560 189 558 189 560 b 188 561 189 560 189 561 m 104 222 b 103 221 103 222 103 221 b 104 219 103 221 103 219 b 106 221 106 219 106 221 b 104 222 106 221 106 222 m 207 81 b 206 79 206 81 206 79 b 207 78 206 79 206 78 b 208 79 208 78 208 79 b 207 81 208 79 208 81 m 207 663 b 211 660 208 661 210 660 l 213 660 b 208 663 211 661 210 663 l 207 663 m 104 179 b 103 181 104 181 103 181 b 101 179 103 181 101 181 b 103 178 101 178 103 178 b 104 179 103 178 104 178 m 165 368 l 168 368 l 168 371 m 146 96 l 149 96 l 149 99 m 188 638 l 190 638 l 188 640 m 146 221 l 149 224 l 146 224 "},"D":{"ha":660,"x_min":0,"x_max":0,"o":"m 58 179 b 78 310 58 218 74 269 l 94 310 l 97 318 l 90 326 l 78 324 l 78 396 b 82 401 78 399 79 401 b 94 406 86 401 92 400 l 81 413 b 78 482 78 436 78 458 b 106 846 78 525 71 825 l 153 846 b 233 810 172 832 233 843 b 219 617 233 744 219 681 b 225 601 219 614 224 604 l 233 610 b 439 846 285 724 322 790 l 483 846 b 603 735 539 808 578 807 b 633 649 611 710 618 669 l 633 554 l 631 549 b 142 -4 607 281 442 -4 l 111 -4 b 58 57 97 7 58 39 l 58 179 m 178 204 b 183 176 182 196 183 186 b 169 79 183 144 169 113 b 189 35 169 63 175 46 b 489 631 419 35 489 451 b 421 785 489 678 494 785 b 178 210 265 785 185 325 l 165 210 l 171 201 b 178 204 172 203 176 206 m 169 243 l 175 249 l 175 250 l 156 268 l 150 261 m 132 663 b 124 651 125 663 124 658 l 124 647 b 142 656 129 647 142 649 l 132 663 m 164 697 b 182 689 164 690 176 689 l 182 693 b 174 704 182 700 181 704 l 164 697 m 194 474 b 185 464 188 474 185 471 l 185 458 b 203 469 190 460 203 463 l 194 474 m 103 340 l 106 335 l 119 335 l 122 340 l 122 342 l 113 349 l 103 342 m 113 807 b 104 797 107 807 104 803 l 104 792 l 110 792 b 119 800 115 792 119 794 l 113 807 m 164 414 b 174 399 164 407 165 399 l 178 406 b 164 414 178 414 171 414 m 110 582 l 119 593 l 111 601 l 103 593 m 108 457 l 119 467 l 110 474 l 100 465 m 110 540 l 119 550 l 108 560 l 103 551 m 175 601 l 181 611 l 172 621 l 164 613 m 108 290 l 119 297 l 107 307 l 100 300 m 194 624 l 203 632 l 192 640 l 183 635 m 90 213 b 82 200 82 213 82 207 b 97 208 86 200 97 201 l 90 213 m 89 240 l 97 250 l 89 257 l 81 250 m 110 499 l 119 510 l 110 515 l 103 508 m 214 521 l 222 529 l 214 538 l 206 528 m 111 179 l 119 189 l 111 196 l 103 188 m 174 646 l 181 654 l 172 663 l 164 654 m 526 540 l 536 549 l 528 557 l 519 547 m 171 438 l 181 447 l 172 454 l 164 446 m 464 240 l 472 247 l 463 257 l 456 250 m 190 501 l 200 508 l 188 518 l 183 510 m 165 536 b 172 524 165 532 167 524 l 181 529 b 165 536 178 535 171 536 m 113 710 l 119 718 l 110 724 l 103 717 m 153 499 l 158 507 l 150 515 l 144 506 m 110 626 l 119 633 l 110 640 l 103 635 m 111 751 l 119 760 l 111 765 l 103 757 m 90 115 l 97 124 l 92 132 l 83 124 m 110 415 l 117 424 l 110 432 l 103 424 m 193 749 l 200 757 l 194 765 l 186 757 m 171 479 l 181 488 l 171 493 l 164 486 m 132 521 l 142 529 l 132 535 l 125 528 m 133 354 l 142 363 l 132 368 l 125 363 m 382 115 l 389 124 l 381 132 l 375 125 m 92 35 l 97 43 l 90 51 l 83 44 m 504 240 l 514 250 l 499 258 m 96 89 b 82 78 88 89 82 88 b 96 89 90 78 96 79 m 486 293 l 492 299 l 483 307 l 475 300 m 90 160 l 97 167 l 88 174 l 81 168 m 483 335 l 489 343 l 482 349 l 481 349 l 475 343 m 122 488 l 128 482 l 136 490 l 129 496 l 122 489 m 131 774 l 136 782 l 129 788 l 122 782 m 129 115 l 136 122 l 129 129 l 122 121 m 150 179 l 158 185 l 150 193 l 144 188 m 211 774 l 219 782 l 211 788 l 206 782 m 442 179 l 447 186 l 442 193 l 433 186 m 463 201 l 469 207 l 463 215 l 456 207 m 193 543 l 200 549 l 192 557 l 186 550 m 129 243 l 136 249 l 128 257 l 122 250 m 153 557 b 146 542 147 554 146 547 l 158 550 l 153 557 m 171 774 l 181 781 l 172 785 l 164 781 m 186 717 b 199 711 186 711 194 711 b 192 721 199 715 197 721 l 186 717 m 522 796 l 528 790 l 533 797 l 528 804 l 522 797 m 169 565 l 171 565 l 178 571 l 171 576 l 164 571 m 458 318 l 464 313 l 469 319 l 465 326 l 458 319 m 85 449 b 94 439 85 442 88 439 l 94 449 l 85 449 m 479 388 b 489 378 479 381 482 378 l 489 388 l 479 388 m 381 76 l 383 79 l 385 89 l 372 83 m 131 438 l 136 446 l 131 451 l 125 446 m 169 354 l 178 361 l 172 368 l 167 361 m 422 118 l 428 124 l 422 132 l 417 124 m 194 668 l 200 676 l 193 682 l 189 676 m 151 629 l 158 635 l 150 640 l 144 636 m 546 649 l 553 657 l 547 663 l 542 654 m 133 313 l 136 319 l 131 326 l 125 321 m 164 738 b 172 732 165 733 168 732 l 175 738 l 169 743 l 164 738 m 403 99 l 406 104 l 400 110 b 394 104 397 110 394 107 m 124 411 b 131 401 124 407 125 401 l 133 406 b 124 411 133 410 126 411 m 400 138 l 406 143 l 399 149 l 397 149 l 394 143 m 546 400 l 558 406 l 551 413 m 150 754 l 156 760 l 150 765 l 144 760 m 131 607 l 136 613 l 131 618 l 125 613 m 529 504 l 533 510 l 528 515 l 522 510 m 589 649 l 594 654 l 589 660 l 583 656 m 150 335 l 156 340 l 149 346 l 144 340 m 131 690 l 136 696 l 131 701 l 125 697 m 131 735 l 136 739 l 131 746 l 125 739 m 568 671 l 575 676 l 568 682 l 564 676 m 506 396 l 511 403 l 506 407 l 500 403 m 528 418 l 533 425 l 528 429 l 522 425 m 190 418 l 197 425 l 192 429 l 186 424 m 519 340 b 525 335 519 338 522 335 l 531 339 l 525 343 l 519 340 m 124 575 b 131 565 124 571 126 565 l 133 571 l 124 575 m 467 283 b 458 275 461 283 458 281 b 467 283 464 275 467 278 m 592 535 b 585 526 586 535 585 531 l 592 526 l 592 535 m 92 482 l 97 486 l 92 490 l 86 486 m 567 588 l 572 594 l 567 599 l 564 593 m 464 164 l 464 175 l 456 168 m 131 815 l 133 821 l 131 826 l 125 822 m 147 799 l 156 799 l 156 804 l 147 804 m 208 485 l 214 485 l 214 493 l 208 493 m 550 442 l 550 453 l 542 447 m 107 57 l 111 63 l 101 67 m 564 431 b 568 424 564 428 565 424 l 572 426 b 564 431 571 429 567 431 m 486 225 l 486 233 l 478 229 m 192 590 l 194 594 l 190 599 l 186 594 m 129 163 l 133 168 l 129 171 l 125 167 m 89 357 l 94 363 l 90 365 l 86 363 m 440 140 l 449 140 l 444 149 m 157 714 l 151 724 l 147 719 m 93 521 l 99 531 l 89 525 m 150 143 b 156 140 151 140 153 140 l 156 146 b 150 143 153 146 151 146 m 567 467 b 569 463 567 465 568 464 l 572 468 l 569 471 b 567 467 568 469 567 468 m 419 165 b 425 163 421 163 422 163 l 425 168 b 419 165 422 168 421 168 m 150 468 b 156 463 150 465 153 463 l 156 468 l 150 468 m 156 388 b 150 382 151 388 150 386 b 156 388 154 382 156 383 m 425 201 l 425 210 l 419 206 m 503 363 l 511 363 b 506 365 510 364 508 365 l 503 365 m 481 799 b 486 796 482 797 485 796 b 483 801 486 797 485 800 l 481 799 m 108 260 b 111 265 111 261 111 263 l 108 265 m 150 593 b 156 590 151 590 153 590 l 156 593 l 150 593 m 128 279 b 131 285 131 281 131 282 l 128 285 m 506 276 l 506 285 l 503 279 m 464 821 l 469 821 b 465 824 468 822 467 824 l 464 824 m 106 676 l 108 676 l 108 679 l 106 679 m 506 776 l 508 776 l 508 779 l 506 779 m 192 796 l 192 801 l 189 801 m 297 38 l 300 40 l 297 43 m 569 504 l 569 510 l 567 507 m 167 279 l 169 279 l 169 285 m 110 104 b 106 101 108 104 107 103 l 107 101 b 111 104 108 101 110 103 m 544 571 b 549 568 546 569 547 568 l 550 568 b 546 571 549 569 547 571 l 544 571 m 150 676 b 149 675 149 676 149 675 b 150 674 149 675 149 674 b 151 675 151 674 151 675 b 150 676 151 675 151 676 m 111 385 b 110 386 111 386 110 386 b 108 385 110 386 108 386 b 110 383 108 383 110 383 b 111 385 110 383 111 383 m 211 740 b 210 739 210 740 210 739 b 211 738 210 739 210 738 b 213 739 213 738 213 739 b 211 740 213 739 213 740 m 174 324 b 169 321 172 324 171 322 l 171 321 b 175 324 172 321 174 322 m 131 210 b 128 206 129 208 128 207 l 128 204 b 131 208 129 206 131 207 l 131 210 m 106 143 l 108 143 l 106 146 m 483 263 l 486 263 l 483 265 m 81 315 l 78 315 l 78 318 m 522 299 l 525 301 l 522 301 "},"E":{"ha":617,"x_min":0,"x_max":0,"o":"m 206 22 l 208 28 l 203 33 b 188 22 200 28 194 22 b 44 150 103 22 72 81 l 44 194 b 83 289 68 210 64 264 b 264 413 107 318 261 400 b 81 592 160 449 81 461 b 342 844 81 733 203 844 b 511 728 414 844 511 815 b 381 608 511 654 450 608 b 331 624 371 608 331 610 b 411 746 331 664 411 689 b 375 794 411 763 396 794 b 219 593 260 794 219 696 b 328 464 219 525 253 464 b 465 522 381 464 419 522 b 475 501 474 522 475 507 b 200 188 475 401 200 410 b 319 50 200 113 239 50 b 528 319 464 50 514 200 b 578 206 563 319 567 231 l 578 158 b 336 -11 518 65 463 -11 l 283 -11 b 211 17 263 4 236 11 m 476 711 l 481 711 b 497 731 485 715 496 724 l 492 736 l 490 736 l 469 717 m 119 183 l 131 193 l 119 203 l 111 193 m 111 113 b 126 103 111 104 119 103 b 118 117 126 110 126 117 l 111 113 m 178 39 l 189 47 l 179 56 l 169 49 m 78 142 l 86 153 l 76 161 l 69 151 m 97 242 l 106 253 l 97 261 l 89 253 m 451 683 l 461 690 l 450 700 l 442 693 m 163 308 l 169 317 l 160 325 l 150 318 m 181 308 b 172 293 174 308 172 299 l 189 299 l 181 308 m 469 667 l 471 667 b 478 682 476 667 478 678 b 464 674 474 682 464 678 l 464 672 m 449 644 l 458 653 l 450 661 l 442 653 m 99 122 l 106 129 l 96 139 l 89 131 m 243 369 b 233 354 235 369 233 361 l 247 360 l 243 369 m 172 129 b 188 122 172 124 183 122 l 181 136 l 172 131 m 447 58 l 456 67 l 450 75 l 442 68 m 201 311 l 208 319 l 200 328 l 194 319 m 408 644 l 417 654 l 410 661 l 403 654 m 181 81 l 186 89 l 181 97 l 172 88 m 433 664 l 439 672 l 432 681 l 425 672 m 99 164 l 106 171 l 97 178 l 89 172 m 243 19 l 250 29 l 244 36 l 236 28 m 493 106 b 500 114 497 106 500 110 l 496 119 l 486 111 m 424 803 b 429 792 424 799 425 792 b 435 803 433 792 435 799 l 424 803 m 154 271 b 167 276 158 271 167 271 l 167 278 l 161 283 l 160 283 m 157 189 l 164 196 l 157 203 l 150 196 m 285 19 l 292 25 l 283 33 l 278 25 m 76 186 l 83 193 l 78 200 l 69 193 m 392 625 l 397 632 l 390 639 l 383 632 m 99 208 l 106 215 l 99 222 l 92 214 m 536 144 l 542 151 l 536 158 l 528 150 m 517 122 l 522 128 l 515 136 l 508 129 m 199 478 l 206 486 l 200 492 l 192 483 m 446 490 b 457 479 446 482 449 479 b 446 490 457 488 454 490 m 121 61 l 125 68 l 121 75 l 119 75 l 114 69 m 558 176 b 549 167 551 176 549 174 l 558 167 l 558 176 m 425 47 b 431 42 425 44 428 42 b 436 47 433 42 436 44 l 431 53 l 425 47 m 139 292 l 144 299 l 138 306 l 133 297 m 78 228 l 83 235 l 78 242 l 72 233 m 158 478 l 164 485 l 158 492 l 153 485 m 158 106 l 164 111 l 158 117 l 150 111 m 199 64 l 206 67 l 199 75 l 192 67 m 158 228 l 164 235 l 160 242 l 153 235 m 179 333 l 181 333 l 186 339 l 186 340 b 181 344 186 343 183 344 l 175 339 m 121 606 l 128 610 l 119 617 l 114 611 m 161 147 l 167 153 l 167 154 b 161 158 167 157 164 158 l 156 154 m 239 444 b 244 439 239 442 242 439 l 250 444 l 243 450 l 239 444 m 135 218 b 139 208 135 215 135 210 l 144 214 b 135 218 143 218 138 218 m 467 86 b 476 82 468 82 474 82 b 472 92 476 85 476 90 l 467 86 m 226 40 l 221 53 l 214 46 m 139 125 l 144 131 l 139 136 l 133 132 m 154 71 b 161 61 154 67 157 61 l 164 64 b 154 71 164 68 158 71 m 469 753 b 476 763 474 753 476 758 l 467 758 m 164 532 b 156 524 158 532 156 529 b 164 532 161 524 164 526 m 332 21 l 326 31 l 319 25 m 188 463 l 182 472 l 175 467 m 219 333 b 226 342 225 333 226 338 l 219 342 m 364 439 l 369 443 l 364 447 l 358 443 m 369 22 l 375 26 l 369 31 l 364 26 m 114 150 l 119 150 l 119 158 l 114 158 m 507 86 l 518 86 l 513 94 m 121 272 l 125 278 l 121 283 l 117 278 m 142 165 l 142 176 l 133 171 m 139 625 b 146 632 143 625 146 628 b 136 628 143 632 138 632 m 179 253 l 183 258 l 181 264 l 175 257 m 115 231 l 121 240 l 111 235 m 196 354 l 206 360 l 201 364 m 244 772 l 247 779 l 244 783 l 242 778 m 261 794 l 267 794 l 267 800 l 261 800 m 517 169 b 519 174 518 171 519 172 b 517 178 519 175 518 176 l 514 175 m 431 758 b 433 753 431 756 431 754 b 436 758 436 754 436 756 l 431 758 m 200 575 b 194 569 197 575 194 572 l 200 569 l 200 575 m 178 592 b 183 586 178 588 179 586 b 178 592 183 590 182 592 m 428 633 b 433 636 431 633 432 633 b 429 639 432 638 431 639 l 428 639 m 453 733 l 453 739 l 446 739 m 428 467 b 432 464 429 465 431 464 l 433 464 l 431 469 l 428 467 m 181 628 l 181 629 b 178 633 181 631 179 632 l 175 631 m 219 467 b 225 464 221 464 222 464 l 225 467 l 219 467 m 161 608 b 160 607 160 608 160 607 b 161 606 160 607 160 606 b 163 607 163 606 163 607 b 161 608 163 607 163 608 m 142 511 b 140 510 140 511 140 510 b 142 508 140 510 140 508 b 143 510 143 508 143 510 b 142 511 143 510 143 511 m 536 194 b 535 196 536 196 535 196 b 533 194 535 196 533 196 b 535 193 533 193 535 193 b 536 194 535 193 536 193 m 450 778 b 449 776 449 778 449 776 b 450 775 449 776 449 775 b 451 776 451 775 451 776 b 450 778 451 776 451 778 m 178 174 b 176 172 176 174 176 172 b 178 171 176 172 176 171 b 179 172 179 171 179 172 b 178 174 179 172 179 174 m 269 381 b 268 382 269 382 268 382 b 267 381 268 382 267 382 b 268 379 267 379 268 379 b 269 381 268 379 269 379 m 181 214 b 179 215 181 215 179 215 b 178 214 179 215 178 215 b 179 213 178 213 179 213 b 181 214 179 213 181 213 m 97 90 b 96 89 96 90 96 89 b 97 88 96 89 96 88 b 99 89 99 88 99 89 b 97 90 99 89 99 90 m 264 385 b 263 383 263 385 263 383 b 264 382 263 383 263 382 b 265 383 265 382 265 383 b 264 385 265 383 265 385 m 203 696 b 201 694 201 696 201 694 b 203 693 201 694 201 693 b 204 694 204 693 204 694 b 203 696 204 694 204 696 m 200 611 b 199 613 200 613 199 613 b 197 611 199 613 197 613 b 199 610 197 610 199 610 b 200 611 199 610 200 610 m 411 25 l 411 28 l 408 28 m 119 569 l 119 572 l 117 572 m 197 525 l 200 525 l 197 528 m 431 711 l 431 714 l 428 714 "},"Ã":{"ha":671,"x_min":0,"x_max":0,"o":"m 71 293 l -24 293 l -32 301 l -21 321 l 71 321 b 90 436 86 321 90 422 b 103 744 96 539 96 642 b 124 842 103 756 110 842 b 251 783 168 842 251 849 b 238 636 251 735 243 685 l 238 628 l 243 617 l 251 622 b 467 849 296 717 340 849 b 642 632 585 849 642 738 b 368 47 642 436 551 146 b 199 -6 315 19 254 17 b 76 64 150 -6 76 -3 l 76 286 m 196 225 b 199 42 196 164 199 103 l 201 36 l 219 35 b 504 672 463 35 504 525 b 435 792 504 721 500 792 b 254 511 318 792 276 599 b 213 353 249 492 213 360 l 213 333 l 218 328 l 233 326 b 340 347 271 326 303 347 b 371 328 353 347 369 343 l 360 311 b 196 225 293 297 196 311 m 215 742 b 238 767 226 742 238 757 l 231 769 b 207 749 224 767 207 757 m 174 197 b 185 213 183 197 185 204 l 168 211 l 165 208 m 188 768 b 203 758 188 760 196 758 l 203 765 b 194 775 203 771 201 775 l 188 768 m 146 261 l 160 261 l 163 267 l 163 268 l 153 275 l 143 267 m 110 219 l 118 228 l 107 239 l 101 236 l 101 229 m 188 731 b 203 721 188 724 197 721 l 203 726 b 194 736 203 732 200 736 l 188 731 m 486 217 l 496 225 l 485 233 l 476 225 m 174 531 l 185 540 l 174 547 l 165 539 m 167 461 b 176 450 167 454 168 450 l 185 454 l 185 456 l 182 461 l 167 461 m 132 197 l 140 207 l 132 214 l 124 206 m 172 700 l 179 708 l 171 717 l 163 708 m 151 217 l 160 224 l 151 233 l 143 225 m 238 553 l 246 561 l 238 569 l 229 561 m 132 281 l 140 289 l 131 297 l 124 290 m 175 281 l 182 288 l 175 294 l 165 288 m 132 239 l 140 249 l 132 256 l 126 247 m 485 261 l 493 271 l 485 275 l 476 268 m 214 700 l 224 708 l 215 714 l 207 708 m 150 344 l 160 351 l 151 358 l 143 350 m 174 242 l 182 249 l 176 256 l 165 247 m 525 264 b 533 274 532 264 533 268 l 531 274 b 518 268 526 274 518 274 m 214 575 l 224 583 l 217 589 l 207 581 m 151 97 b 158 110 157 97 158 106 b 146 101 153 110 146 108 m 150 511 b 158 524 157 511 158 518 b 146 517 154 524 146 522 m 551 533 l 554 533 b 560 538 557 533 560 535 l 560 539 l 550 544 l 543 539 m 146 644 b 158 638 146 639 154 638 b 151 650 158 642 157 650 l 146 644 m 217 492 b 224 500 221 492 224 496 l 217 503 l 207 500 m 114 442 b 106 429 108 442 106 433 b 118 438 111 429 118 431 l 114 442 m 200 315 b 189 303 190 315 189 311 b 200 315 197 303 200 308 m 111 300 l 118 308 l 113 314 l 104 308 m 214 783 l 221 792 l 214 797 l 207 793 m 133 44 l 140 54 l 133 58 l 126 53 m 153 761 l 160 768 l 151 775 l 146 769 m 193 553 l 201 561 l 194 567 l 188 560 m 194 675 l 201 682 l 193 689 l 188 683 m 464 200 l 474 207 l 465 211 l 457 206 m 153 556 l 160 561 b 147 568 160 568 153 568 m 522 565 b 529 556 522 561 524 556 l 535 560 b 522 565 535 565 526 565 m 194 525 b 189 513 189 525 189 517 b 199 519 193 513 199 514 l 194 525 m 193 817 b 186 807 188 817 186 811 b 199 813 190 807 199 807 l 193 817 m 568 514 b 575 524 574 514 575 519 b 563 518 571 524 563 524 m 335 53 b 347 46 335 46 342 46 b 340 56 347 50 344 56 l 335 53 m 168 372 b 181 365 168 365 175 365 b 174 375 181 369 178 375 l 168 372 m 149 724 l 157 725 l 160 728 b 153 733 160 732 156 733 l 149 733 m 524 471 b 535 478 528 471 535 472 l 528 481 l 524 481 m 149 60 b 160 67 153 60 160 61 l 153 69 l 149 69 m 190 438 b 199 429 190 432 193 429 l 199 443 l 190 438 m 569 553 l 571 553 l 576 558 l 569 564 l 563 560 m 524 513 b 533 522 531 513 533 515 l 524 522 m 585 535 b 594 544 592 535 594 538 l 585 544 m 174 742 b 179 747 176 742 179 744 b 174 753 179 750 176 753 l 168 747 m 506 239 l 513 246 l 507 253 l 501 246 m 569 431 l 576 436 l 569 442 l 563 435 m 214 533 l 221 540 l 214 544 l 207 539 m 153 389 l 160 393 l 153 400 l 146 394 m 111 264 l 118 269 l 113 275 l 104 269 m 508 325 l 515 331 l 507 336 l 501 331 m 172 114 l 179 119 l 172 125 l 165 119 m 133 703 l 140 708 l 133 714 l 126 708 m 486 300 l 493 307 l 486 314 l 482 307 m 153 300 l 160 307 l 153 311 l 146 307 m 172 658 l 174 658 l 179 664 l 179 665 b 174 669 179 668 176 669 l 168 664 m 111 136 l 113 136 l 118 142 l 118 143 b 113 147 118 146 115 147 l 107 142 m 443 139 l 449 144 b 444 150 449 147 447 150 l 443 150 l 438 144 l 438 143 m 528 303 l 535 310 l 529 314 l 521 308 m 569 761 l 574 768 l 568 775 l 563 769 m 151 469 l 160 476 l 153 481 l 146 475 m 506 286 l 513 290 l 504 297 l 499 292 m 133 117 l 140 121 l 132 128 l 126 122 m 172 575 l 179 582 l 174 589 l 168 581 m 153 681 l 160 688 l 154 692 l 146 686 m 549 408 l 554 414 l 547 419 l 540 417 m 194 639 l 201 644 l 193 650 l 188 647 m 104 101 b 115 96 104 97 111 96 b 110 106 115 99 114 106 l 104 101 m 132 658 l 140 664 b 135 669 140 667 138 669 l 129 664 m 131 494 b 136 507 136 494 136 503 l 126 501 m 565 389 l 574 389 l 574 397 l 565 397 m 210 453 l 218 453 l 218 461 l 210 461 m 214 658 l 221 663 l 215 669 l 210 664 m 133 450 l 139 463 l 126 457 m 172 408 l 179 413 l 172 419 l 168 414 m 131 325 l 138 331 l 132 336 l 126 331 m 508 786 l 515 793 l 510 797 l 504 792 m 194 469 l 201 476 l 196 481 l 190 475 m 153 136 l 157 142 l 151 147 l 146 143 m 214 617 l 218 622 l 213 628 l 207 624 m 192 389 l 199 397 l 193 400 l 188 393 m 111 389 l 118 393 l 111 397 l 104 393 m 528 639 l 535 643 l 528 647 l 521 643 m 110 475 b 115 481 113 475 115 478 l 110 483 l 104 479 m 126 372 b 132 367 126 369 129 367 l 138 371 l 132 375 l 126 372 m 169 618 b 179 625 174 618 179 621 l 174 628 m 90 247 b 99 240 90 242 94 240 l 99 247 l 90 247 m 421 158 b 428 167 426 158 428 163 l 421 167 m 463 242 b 469 250 468 242 469 246 l 463 250 m 129 536 b 136 544 135 536 136 540 l 129 544 m 506 367 l 513 371 l 507 375 l 501 371 m 174 328 l 179 332 l 174 336 l 168 332 m 194 597 l 199 604 l 194 608 l 190 603 m 449 218 l 449 229 l 440 222 m 529 385 l 529 396 l 521 392 m 526 761 l 532 768 l 528 772 l 524 767 m 110 192 b 106 183 107 190 106 186 b 113 188 108 183 113 185 l 110 192 m 113 597 l 118 600 l 114 606 l 110 603 m 131 583 b 126 576 128 583 126 579 b 135 581 129 576 133 578 l 131 583 m 153 806 l 157 810 l 153 814 l 149 810 m 590 619 l 594 628 l 586 628 m 149 599 l 157 603 l 151 606 l 149 606 m 88 201 l 96 206 l 90 208 l 88 208 m 175 783 l 181 793 l 171 788 m 525 806 l 531 815 l 521 810 m 171 47 l 176 47 l 176 53 l 171 53 m 504 453 l 510 453 l 510 458 l 504 458 m 172 158 l 178 167 l 168 163 m 526 600 b 529 604 528 601 529 603 b 526 608 529 606 528 607 l 524 603 m 113 564 b 115 558 113 561 113 560 b 118 564 118 560 118 561 l 113 564 m 132 789 b 129 783 129 788 129 786 l 135 783 b 132 789 135 786 135 788 m 546 328 b 551 333 549 328 551 331 l 546 333 m 529 356 b 524 350 525 356 524 354 b 529 356 528 350 529 351 m 588 661 b 593 664 590 661 592 661 b 589 667 592 665 590 667 l 588 667 m 110 347 l 113 347 l 113 356 l 110 356 m 444 183 l 449 189 l 440 189 m 546 369 l 551 372 b 547 375 550 374 549 375 l 546 375 m 568 597 l 571 597 l 571 603 l 568 603 m 132 747 l 135 747 l 135 753 l 132 753 m 463 161 l 465 164 l 463 167 l 460 164 m 463 290 b 465 286 463 289 464 288 l 468 289 l 463 292 m 149 439 b 151 433 149 436 149 435 l 151 439 l 149 439 m 443 811 l 446 811 b 443 817 446 814 446 815 m 588 750 l 593 750 b 589 753 592 751 590 753 l 588 753 m 151 188 b 150 186 150 188 150 186 b 151 185 150 186 150 185 b 153 186 153 185 153 186 b 151 188 153 186 153 188 m 551 494 l 551 497 l 549 497 m 90 161 l 93 161 l 90 164 m 421 122 l 424 125 l 421 125 "},"â‚¬":{"ha":825,"x_min":0,"x_max":0,"o":"m 42 332 l 136 332 l 142 342 l 142 400 l 133 407 l 42 407 l 42 436 l 131 436 b 151 475 136 436 149 471 b 213 608 169 521 189 565 b 524 839 278 728 376 839 b 692 689 611 839 692 782 b 553 528 692 618 629 528 l 469 528 l 439 540 l 442 544 b 575 722 526 567 575 635 b 514 806 575 760 558 806 b 306 464 367 806 306 582 l 306 444 l 319 436 l 519 436 l 519 407 l 308 407 b 297 376 296 407 297 379 l 297 342 l 306 332 l 472 332 l 475 328 b 472 304 476 319 474 311 l 311 304 l 300 294 b 501 19 300 171 354 19 b 738 122 597 19 697 119 l 750 113 l 750 111 b 458 -25 683 33 561 -25 l 433 -25 b 281 39 381 -3 325 -1 b 144 294 186 125 201 199 l 131 303 l 42 303 m 192 435 b 215 411 192 424 204 411 l 222 417 l 222 419 l 200 442 l 197 442 l 192 435 m 297 575 b 308 590 307 575 308 582 b 292 582 303 590 292 589 m 260 283 b 268 300 267 283 268 294 b 253 290 261 300 253 299 m 333 43 b 349 32 333 36 343 32 l 349 38 b 340 47 349 43 347 47 l 333 43 m 217 533 b 224 546 222 533 224 542 l 224 549 b 208 540 219 549 208 546 l 208 539 m 196 511 l 208 521 l 199 528 l 189 519 m 314 650 b 319 642 314 647 315 642 b 326 654 326 642 326 649 l 317 653 l 314 650 m 240 344 l 247 353 l 240 361 l 233 354 m 239 139 l 247 144 l 239 153 l 231 147 m 260 325 l 267 332 l 258 339 l 250 333 m 303 617 l 311 628 l 304 631 l 294 624 m 217 286 l 225 292 l 215 300 l 208 296 m 253 376 b 265 368 253 369 260 368 b 258 381 265 372 264 381 l 253 376 m 190 356 b 196 344 190 353 190 344 l 203 353 l 190 360 m 321 719 b 329 731 328 719 329 725 l 315 731 m 340 703 b 350 708 344 703 349 704 l 342 714 l 333 707 m 281 678 l 282 678 l 289 685 l 282 692 l 275 683 m 300 119 l 308 125 l 301 133 l 294 125 m 258 536 l 264 543 l 258 550 l 250 543 m 283 639 l 289 646 l 282 653 l 275 649 m 240 306 l 247 313 l 239 319 l 233 315 m 176 286 l 183 292 b 171 299 183 299 176 299 m 254 215 b 260 203 254 211 254 203 l 264 208 b 254 215 264 214 258 215 m 213 461 b 219 453 213 457 215 453 b 226 461 224 453 226 457 l 213 461 m 239 567 b 232 557 235 567 232 561 b 244 564 238 557 244 557 l 239 567 m 239 261 l 244 269 l 239 275 l 238 275 l 233 268 m 301 661 l 303 661 l 308 667 l 301 672 l 294 668 m 260 117 l 264 124 l 260 131 l 258 131 l 253 125 m 232 233 b 242 224 232 226 235 224 l 242 233 l 232 233 m 256 243 b 265 253 263 243 265 246 l 256 253 m 217 576 b 226 586 224 576 226 579 l 217 586 m 211 493 b 221 503 218 493 221 496 l 211 503 m 211 167 b 217 161 211 164 214 161 l 222 167 l 217 172 b 211 167 214 172 211 169 m 196 472 l 203 478 l 196 483 l 189 479 m 281 139 l 286 146 l 281 153 l 275 146 m 282 553 l 286 560 l 281 567 l 275 561 m 365 14 l 372 19 b 360 26 369 24 364 26 m 194 221 b 203 228 199 221 203 224 l 197 233 l 194 233 m 257 158 l 264 165 l 260 172 l 253 164 m 636 703 l 642 707 l 635 711 b 628 707 632 711 628 710 l 628 706 m 233 589 l 242 597 l 238 603 l 231 594 m 213 338 b 218 325 213 333 213 325 l 219 325 l 222 331 l 213 338 m 613 678 l 619 689 l 607 689 m 214 244 l 222 244 l 222 253 l 214 253 m 236 433 l 246 433 b 239 442 246 438 243 442 l 236 442 m 256 582 b 268 576 256 576 264 576 l 260 586 l 256 582 m 178 407 l 178 421 l 169 415 m 635 661 l 639 667 l 636 672 b 631 667 633 672 631 669 m 281 181 l 285 193 l 275 188 m 193 275 b 201 267 193 269 196 267 b 193 275 201 272 199 275 m 306 704 l 306 715 l 297 708 m 239 475 l 244 479 l 239 483 l 233 479 m 261 619 l 265 628 l 254 628 m 278 474 l 286 479 l 279 483 l 278 483 m 611 600 l 619 600 b 614 606 619 603 617 606 l 611 606 m 610 764 l 615 774 l 606 769 m 236 392 l 242 396 l 238 400 l 233 396 m 276 347 l 282 357 b 272 350 278 356 275 353 m 240 514 l 244 518 l 235 524 m 403 17 l 408 17 l 408 22 l 403 22 m 256 417 l 261 417 l 261 422 l 256 422 m 194 311 l 200 311 l 200 317 l 194 317 m 592 583 l 597 583 b 593 589 597 586 596 589 l 592 589 m 278 103 l 283 103 b 279 108 283 106 282 108 l 278 108 m 300 83 l 306 83 b 301 89 306 86 304 89 l 300 89 m 172 460 b 175 456 172 458 174 457 l 178 458 l 175 464 b 172 460 174 463 172 461 m 342 744 b 347 747 344 744 346 744 b 343 750 346 749 344 750 l 342 750 m 258 83 b 264 81 260 82 261 81 l 267 81 l 261 86 l 258 83 m 178 336 b 175 331 176 335 175 332 b 181 333 176 331 179 332 l 178 336 m 194 392 l 197 392 l 197 397 l 194 397 m 278 269 l 283 269 l 283 272 l 278 272 m 236 186 l 242 186 l 242 189 l 236 189 m 322 64 b 317 61 319 64 318 64 l 322 61 l 322 64 m 361 728 b 364 733 364 729 364 731 l 361 733 m 469 3 b 467 -3 467 1 467 0 l 469 -3 l 469 3 m 594 669 b 592 664 592 668 592 667 l 594 664 l 594 669 m 281 597 l 283 600 l 278 600 m 175 369 l 178 369 l 178 372 l 175 372 m 200 558 l 203 558 l 203 561 l 200 561 m 278 226 b 276 225 276 226 276 225 b 278 224 276 225 276 224 b 279 225 279 224 279 225 b 278 226 279 225 279 226 m 300 544 b 299 543 299 544 299 543 b 300 542 299 543 299 542 b 301 543 301 542 301 543 b 300 544 301 543 301 544 m 281 518 b 279 517 279 518 279 517 b 281 515 279 517 279 515 b 282 517 282 515 282 517 b 281 518 282 517 282 518 m 206 557 b 204 556 204 557 204 556 b 206 554 204 556 204 554 b 207 556 207 554 207 556 b 206 557 207 556 207 557 m 592 793 b 590 792 590 793 590 792 b 592 790 590 792 590 790 b 593 792 593 790 593 792 b 592 793 593 792 593 793 m 300 168 b 299 167 299 168 299 167 b 300 165 299 167 299 165 b 301 167 301 165 301 167 b 300 168 301 167 301 168 m 322 107 b 321 106 321 107 321 106 b 322 104 321 106 321 104 b 324 106 324 104 324 106 b 322 107 324 106 324 107 m 217 210 b 215 208 215 210 215 208 b 217 207 215 208 215 207 b 218 208 218 207 218 208 b 217 210 218 208 218 210 m 258 460 b 257 458 257 460 257 458 b 258 457 257 458 257 457 b 260 458 260 457 260 458 b 258 460 260 458 260 460 m 614 642 b 613 643 614 643 613 643 b 611 642 613 643 611 643 b 613 640 611 640 613 640 b 614 642 613 640 614 640 "},"G":{"ha":672,"x_min":0,"x_max":0,"o":"m 319 -257 b 461 8 319 -140 461 -101 l 461 40 l 450 43 b 296 -12 422 47 356 -12 b 44 354 114 -12 44 204 b 440 843 44 575 193 843 b 619 694 526 843 619 789 l 619 676 b 446 532 589 596 539 532 b 378 547 436 532 378 533 b 417 563 378 556 410 560 b 500 713 468 588 500 657 b 429 801 500 758 482 801 b 200 313 207 801 200 469 b 328 29 200 226 204 29 b 472 363 524 29 450 233 l 486 374 l 556 374 b 600 343 574 374 596 363 b 603 136 604 328 603 165 b 390 -340 603 1 582 -340 b 319 -257 347 -340 319 -296 m 361 -244 b 393 -293 361 -265 367 -293 b 458 -149 457 -293 458 -193 l 458 -107 b 449 -104 456 -106 451 -104 b 361 -244 399 -104 361 -203 m 486 271 b 503 261 486 264 497 261 b 494 276 503 267 501 276 l 486 271 m 175 199 l 186 210 l 175 215 l 167 208 m 419 832 b 410 817 413 832 410 822 b 425 826 415 817 425 819 l 419 832 m 86 418 b 101 408 86 411 96 408 b 90 424 101 414 97 424 l 86 418 m 158 301 l 167 310 l 157 318 l 150 310 m 553 654 l 561 664 l 553 671 l 544 661 m 193 650 b 200 638 193 646 194 638 l 208 644 b 196 650 208 650 200 650 l 193 650 m 136 282 l 147 289 l 136 296 l 128 290 m 575 638 l 583 644 l 569 654 l 567 647 m 553 701 l 561 707 l 553 715 l 544 710 m 263 743 l 269 747 b 258 757 269 753 263 756 l 256 750 m 185 672 b 174 658 175 672 174 667 b 185 672 183 658 185 664 m 538 775 b 526 761 528 775 526 769 b 538 775 536 761 538 767 m 567 685 l 572 679 l 583 689 l 576 693 l 567 686 m 121 358 b 108 350 117 358 108 356 b 114 346 108 347 111 346 b 121 358 119 346 121 354 m 111 469 b 122 478 117 469 122 471 l 115 482 l 111 482 m 526 650 b 533 638 526 646 528 638 l 539 643 b 526 650 539 649 531 650 m 533 676 b 540 689 539 676 540 685 b 528 682 536 689 528 688 m 131 207 b 143 200 131 201 139 200 b 136 213 143 204 142 213 l 131 207 m 507 626 b 513 615 507 622 508 615 b 518 626 517 615 518 622 l 507 626 m 200 679 l 206 689 l 199 693 l 192 688 m 553 743 l 561 751 l 553 757 l 547 751 m 157 346 l 164 354 l 157 360 l 150 354 m 535 596 l 542 604 l 533 610 l 528 604 m 535 260 l 542 267 l 535 274 l 528 268 m 115 263 l 122 269 l 118 276 l 108 268 m 139 368 l 147 372 l 138 379 l 131 374 m 494 596 l 503 599 l 493 607 l 486 600 m 136 451 b 143 464 143 451 143 458 l 131 458 m 72 426 l 81 436 l 75 440 l 67 432 m 136 626 l 135 617 b 144 624 139 617 144 618 b 139 629 144 626 142 629 m 197 601 b 207 594 197 596 203 594 b 201 607 207 599 207 607 l 197 601 m 596 671 b 590 658 590 671 590 663 b 600 665 594 658 600 660 l 596 671 m 111 226 b 121 219 111 221 117 219 b 115 232 121 224 121 232 l 111 226 m 111 436 b 124 431 111 431 119 431 b 117 440 124 435 122 440 l 111 436 m 74 349 b 82 358 79 349 82 353 b 69 353 78 358 69 358 m 486 -104 b 496 -111 486 -108 492 -111 b 489 -99 496 -106 496 -99 l 486 -104 m 139 588 b 132 578 135 588 132 582 b 144 583 136 578 144 578 l 139 588 m 111 306 b 122 311 115 306 122 307 l 115 315 l 111 315 m 153 219 b 164 225 157 219 164 221 l 157 229 l 153 229 m 508 576 l 518 575 l 513 588 l 506 579 m 138 243 l 144 250 l 138 254 l 131 247 m 138 118 l 144 124 l 138 129 l 131 122 m 138 326 l 144 332 l 138 338 l 131 333 m 243 721 l 250 726 l 243 732 l 236 728 m 153 101 l 158 96 l 160 96 b 164 101 163 96 164 99 l 158 107 l 153 103 m 117 388 l 122 393 l 115 399 l 108 394 m 178 535 l 183 540 l 176 546 l 169 542 m 550 782 l 558 788 l 553 793 l 544 786 m 158 554 l 161 563 l 156 565 b 150 560 153 565 150 563 m 568 179 l 579 179 b 572 190 578 183 576 188 m 572 263 l 574 263 b 578 268 576 263 578 265 l 574 274 l 567 268 m 101 504 b 93 493 94 504 93 500 b 101 504 100 493 101 497 m 471 -218 b 476 -206 476 -218 476 -210 l 467 -211 m 221 701 l 225 707 b 219 713 225 710 222 713 l 214 708 m 92 538 b 101 533 93 533 99 533 b 97 543 101 536 101 542 l 92 538 m 528 -107 b 538 -111 529 -111 535 -111 b 533 -101 538 -108 538 -103 l 528 -107 m 174 335 b 179 324 174 331 175 324 l 181 324 l 183 331 l 174 335 m 218 35 l 225 40 l 219 46 l 214 42 m 514 115 l 519 121 l 514 126 l 508 122 m 492 54 l 497 58 l 492 65 l 486 61 m 472 -254 l 478 -251 b 472 -246 478 -249 475 -246 l 467 -250 m 69 396 b 75 390 69 393 72 390 l 81 394 l 75 399 l 69 396 m 178 285 l 183 288 b 174 294 183 292 178 294 m 531 307 b 538 315 536 307 538 311 l 531 315 m 511 -90 b 518 -82 517 -90 518 -86 l 511 -82 m 489 138 b 496 146 494 138 496 142 l 489 146 m 489 99 b 496 107 494 99 496 103 l 489 107 m 114 515 l 119 519 l 114 524 l 108 519 m 218 660 l 222 665 l 218 671 l 214 665 m 569 219 l 578 225 l 572 229 l 569 229 m 508 785 l 514 785 l 514 793 l 508 793 m 217 76 l 222 76 l 222 85 l 217 85 m 511 325 l 519 332 l 513 335 l 511 335 m 515 199 l 519 204 l 510 208 m 139 490 l 143 499 l 135 499 m 96 285 l 100 290 l 96 293 l 92 289 m 113 140 l 121 140 l 117 149 m 178 579 l 183 579 l 183 585 l 178 585 m 94 368 l 100 372 l 96 376 l 94 376 m 158 399 b 156 393 157 397 156 396 l 156 390 l 161 394 b 158 399 161 396 160 397 m 200 107 b 194 101 197 107 194 104 l 200 101 l 200 107 m 531 349 b 536 351 533 349 535 349 b 532 354 535 353 533 354 l 531 354 m 511 -171 b 517 -168 514 -171 515 -171 b 513 -165 515 -167 514 -165 l 511 -165 m 178 79 l 185 85 l 178 85 m 469 579 b 475 576 471 578 474 576 b 472 582 475 578 474 581 l 469 579 m 94 326 b 97 331 96 328 97 329 b 94 335 97 332 96 333 m 489 346 b 492 351 492 347 492 349 l 489 351 m 136 410 l 139 415 l 136 415 m 156 601 l 161 601 l 156 604 m 156 479 b 154 478 154 479 154 478 b 156 476 154 478 154 476 b 157 478 157 476 157 478 b 156 479 157 478 157 479 m 536 729 b 535 731 536 731 535 731 b 533 729 535 731 533 731 b 535 728 533 728 535 728 b 536 729 535 728 536 728 m 556 626 b 553 622 554 625 553 624 l 553 621 b 556 625 554 622 556 624 l 556 626 m 536 226 b 535 228 536 228 535 228 b 533 226 535 228 533 228 b 535 225 533 225 535 225 b 536 226 535 225 536 225 m 75 314 b 74 313 74 314 74 313 b 75 311 74 313 74 311 b 76 313 76 311 76 313 b 75 314 76 313 76 314 m 536 143 b 535 144 536 144 535 144 b 533 143 535 144 533 144 b 535 142 533 142 535 142 b 536 143 535 142 536 142 m 97 249 b 96 250 97 250 96 250 b 94 249 96 250 94 250 b 96 247 94 247 96 247 b 97 249 96 247 97 247 m 453 563 b 451 561 451 563 451 561 b 453 560 451 561 451 560 b 454 561 454 560 454 561 b 453 563 454 561 454 563 m 178 624 l 181 624 l 178 626 m 572 310 b 569 306 571 308 569 307 l 569 304 l 572 310 "},"H":{"ha":974,"x_min":0,"x_max":0,"o":"m 683 246 b 689 368 683 286 689 328 l 681 374 l 594 374 b 542 371 576 374 560 374 l 533 354 l 500 4 l 489 -4 l 429 -4 b 372 18 417 -4 372 -1 b 389 207 372 82 389 146 b 408 582 389 333 408 457 b 276 824 408 671 396 824 b 122 628 172 824 122 719 b 303 446 122 515 190 446 l 319 446 l 322 439 b 206 382 322 397 238 382 b 31 588 94 382 31 485 b 313 860 31 743 160 860 b 539 418 563 860 539 589 l 547 413 l 664 410 l 694 421 l 753 815 l 761 824 b 886 765 808 824 886 832 b 844 468 886 671 858 563 b 844 449 843 463 844 454 b 854 446 847 447 851 446 b 974 504 900 446 936 504 b 992 490 982 504 989 499 l 993 475 b 814 267 993 340 814 499 b 889 -115 814 85 808 43 b 822 -149 888 -137 839 -140 l 792 -149 b 683 29 732 -69 683 -121 l 683 246 m 772 713 l 781 721 l 771 729 l 761 722 m 501 524 l 508 533 l 499 543 l 492 535 m 85 649 l 92 657 l 83 665 l 75 657 m 750 568 l 758 579 l 750 585 l 742 576 m 500 443 l 508 450 l 499 460 l 492 451 m 436 504 l 444 511 l 444 513 l 436 521 l 431 511 m 501 485 l 508 492 l 500 499 l 492 492 m 517 546 l 525 556 l 517 563 l 511 553 m 461 485 l 469 493 l 461 499 l 453 492 m 499 568 l 508 575 l 500 582 l 492 575 m 797 4 l 806 10 l 806 11 b 799 18 806 15 803 18 l 792 11 m 478 463 l 483 471 l 476 479 l 469 472 m 481 507 l 489 513 l 479 521 l 472 514 m 747 613 l 758 621 l 750 626 l 742 618 m 517 507 b 524 519 522 507 524 515 b 511 511 518 519 511 518 m 475 599 b 488 592 475 593 483 592 b 479 604 488 597 486 604 l 475 599 m 729 393 b 721 381 721 393 721 388 l 736 388 l 729 393 m 744 403 b 756 410 749 403 756 404 l 749 415 l 744 415 m 803 349 b 815 342 806 344 811 342 b 810 354 815 346 815 354 l 808 354 l 803 349 m 722 297 b 733 303 726 297 733 299 l 733 304 l 725 310 l 722 310 m 768 635 l 775 642 l 775 643 l 769 649 l 761 642 m 85 613 l 92 619 l 85 626 l 78 619 m 101 549 l 108 556 l 101 563 l 94 554 m 750 651 l 758 658 l 750 665 l 744 657 m 106 507 l 111 513 l 103 521 l 97 514 m 408 121 b 418 110 410 117 413 110 l 419 110 l 419 121 l 408 121 m 494 404 l 497 401 l 506 410 l 503 413 l 493 414 m 746 444 b 758 451 751 444 758 444 l 751 457 m 788 333 b 793 321 788 329 788 321 l 797 326 b 788 333 797 332 792 333 m 63 549 b 71 557 68 549 71 551 l 57 557 m 474 432 b 483 422 474 425 476 422 l 483 432 l 474 432 m 744 535 b 750 529 744 532 747 529 b 756 535 753 529 756 532 l 750 540 l 744 535 m 460 446 l 467 451 l 460 457 l 453 451 m 458 526 l 464 532 l 457 538 l 450 532 m 772 510 l 781 515 l 774 521 l 767 515 m 417 68 l 422 75 l 417 82 l 411 72 m 499 610 l 507 621 l 493 621 m 811 590 l 817 596 l 811 601 l 803 596 m 500 654 l 506 658 l 506 660 l 500 665 l 499 665 b 494 660 496 665 494 663 m 458 321 b 464 325 461 321 464 322 l 464 326 l 458 332 l 457 332 l 453 326 m 771 757 l 775 764 l 769 771 l 764 765 m 819 -71 b 813 -83 815 -74 813 -79 l 825 -78 l 819 -71 m 826 778 b 839 785 831 778 836 781 l 832 790 m 436 674 l 444 681 l 439 685 l 431 679 m 433 554 b 442 549 435 550 438 549 l 444 554 l 439 560 l 433 554 m 500 324 b 506 328 503 324 506 325 l 506 329 l 500 335 l 494 328 m 764 382 l 774 382 b 767 390 774 386 771 390 l 764 390 m 786 615 l 796 615 b 789 624 796 619 793 624 l 786 624 m 58 638 b 68 633 60 633 65 633 b 64 643 68 636 68 642 l 58 638 m 453 782 b 463 778 454 778 460 778 b 458 788 463 781 463 786 l 453 782 m 78 574 b 88 569 79 569 85 569 b 83 579 88 572 88 578 l 78 574 m 747 699 b 757 694 749 694 754 694 b 753 704 757 697 757 703 l 747 699 m 369 826 b 379 822 371 822 376 822 b 375 832 379 825 379 831 l 369 826 m 83 526 l 89 532 l 83 538 l 78 532 m 772 593 l 778 599 l 772 604 l 767 599 m 750 318 l 756 324 l 750 329 l 744 324 m 833 613 l 839 618 l 833 624 l 828 617 m 397 801 l 403 808 l 397 813 l 392 808 m 438 465 l 442 471 l 438 476 l 431 471 m 399 90 l 403 96 l 399 101 l 392 96 m 757 -49 b 749 -57 751 -49 749 -51 b 757 -49 754 -57 757 -54 m 765 432 b 772 424 765 428 767 424 l 772 432 l 765 432 m 744 488 b 751 496 750 488 751 492 l 744 496 m 118 449 l 129 449 l 122 457 m 478 633 l 486 639 l 481 643 l 478 643 m 125 488 l 128 493 l 125 499 l 119 493 m 57 593 l 68 593 l 63 601 m 838 -104 l 843 -96 l 832 -96 m 500 235 l 504 243 l 493 243 m 478 49 b 485 56 482 49 485 51 b 475 51 482 56 476 56 m 814 468 b 821 475 818 468 821 471 b 811 471 818 475 813 475 m 792 571 l 794 581 b 786 576 792 581 788 579 m 103 676 b 110 686 106 679 108 682 l 100 682 m 456 575 l 456 571 b 461 576 458 571 461 574 l 458 582 m 419 781 l 419 789 l 411 785 m 435 176 l 443 176 l 439 185 m 957 446 l 961 450 l 957 454 l 953 450 m 438 635 l 442 639 l 438 643 l 433 639 m 765 676 l 774 676 l 769 685 m 432 426 l 440 426 l 436 435 m 410 738 l 418 738 l 414 746 m 728 340 l 733 343 l 728 349 l 725 344 m 521 465 l 525 469 l 515 475 m 813 551 l 817 556 l 807 561 m 438 799 l 442 803 l 432 808 m 838 569 l 832 579 l 828 575 m 896 424 l 901 433 l 892 428 m 440 340 l 444 344 l 435 350 m 417 321 l 419 326 l 417 332 l 414 326 m 100 593 l 106 593 l 106 599 l 100 599 m 181 426 b 185 424 182 425 183 424 b 189 426 186 424 188 425 b 185 429 188 428 186 429 b 181 426 183 429 182 428 m 119 743 b 124 740 121 742 122 740 b 128 743 125 740 126 742 b 124 746 126 744 125 746 b 119 743 122 746 121 744 m 81 696 l 86 700 l 82 704 l 81 704 m 497 368 b 503 365 499 365 500 365 l 503 371 b 497 368 500 371 499 371 m 100 638 b 106 635 101 635 103 635 l 106 640 b 100 638 103 640 101 640 m 431 390 b 436 385 431 388 433 385 l 436 390 l 431 390 m 747 243 b 753 238 747 240 750 238 l 753 243 l 747 243 m 800 57 b 794 51 797 57 794 54 l 800 51 l 800 57 m 211 413 b 206 407 208 413 206 410 l 211 407 l 211 413 m 414 154 b 419 157 417 154 418 154 b 415 160 418 158 417 160 l 414 160 m 790 -51 b 797 -57 792 -54 794 -57 l 797 -56 b 790 -51 797 -53 793 -51 m 461 81 b 456 74 458 79 456 76 l 457 74 b 461 81 460 74 461 78 m 794 699 l 794 704 b 789 701 792 704 790 704 m 767 -68 b 769 -74 767 -69 768 -72 l 772 -71 b 767 -68 771 -69 768 -68 m 61 513 l 64 513 l 64 518 l 61 518 m 936 426 l 939 426 l 939 432 l 936 432 m 436 135 l 442 135 l 442 138 l 436 138 m 769 301 l 772 301 l 772 307 l 769 307 m 478 554 b 482 551 479 553 481 551 l 483 551 l 481 557 l 478 554 m 478 218 l 483 218 b 479 221 482 219 481 221 l 478 221 m 433 96 l 439 96 b 435 99 438 97 436 99 l 433 99 m 81 488 l 86 488 b 82 490 85 489 83 490 l 81 490 m 789 746 b 788 744 788 746 788 744 b 789 743 788 744 788 743 b 790 744 790 743 790 744 b 789 746 790 744 790 746 m 458 32 b 457 33 458 33 457 33 b 456 32 457 33 456 33 b 457 31 456 31 457 31 b 458 32 457 31 458 31 m 811 722 b 810 721 810 722 810 721 b 811 719 810 721 810 719 b 813 721 813 719 813 721 b 811 722 813 721 813 722 m 792 411 b 790 410 790 411 790 410 b 792 408 790 410 790 408 b 793 410 793 408 793 410 b 792 411 793 410 793 411 m 478 724 b 482 721 479 722 481 721 l 483 721 b 479 724 482 722 481 724 l 478 724 m 817 -121 l 819 -121 l 817 -118 m 789 449 l 792 449 l 789 451 m 833 740 l 836 740 l 833 743 m 789 532 l 792 535 l 789 535 m 519 596 l 522 596 l 519 599 m 458 410 l 458 413 l 456 413 m 478 263 l 481 265 l 478 265 "},"I":{"ha":579,"x_min":0,"x_max":0,"o":"m 349 21 b 382 568 349 204 382 385 b 251 824 382 658 376 824 b 99 632 149 824 99 722 b 279 446 99 517 161 446 l 296 446 l 299 442 b 176 382 299 397 210 382 b 7 586 71 382 7 490 l 7 610 b 285 861 35 638 21 861 b 521 615 421 861 521 749 l 521 499 b 499 229 521 411 506 317 b 474 1 496 183 499 36 l 454 -10 l 385 -10 b 349 21 376 -3 349 10 m 478 629 l 490 640 l 481 649 l 471 638 m 421 582 b 411 567 414 582 411 572 l 417 567 b 426 575 422 567 426 569 l 421 582 m 85 482 l 93 490 l 93 492 l 82 501 l 76 493 m 458 693 l 468 699 l 458 707 l 449 700 m 419 790 b 414 779 414 790 414 783 l 414 776 b 426 783 418 776 426 778 l 419 790 m 76 532 l 82 526 l 90 533 l 82 543 l 76 533 m 419 443 l 429 451 l 421 457 l 413 451 m 396 757 l 404 763 l 396 771 l 388 763 m 439 629 l 446 639 l 439 646 l 432 638 m 433 561 b 440 549 433 557 435 549 l 446 554 b 433 561 446 560 438 561 m 65 518 b 58 506 60 518 58 510 b 71 513 63 506 71 507 l 65 518 m 43 540 b 36 528 39 538 36 532 b 49 533 40 528 49 528 l 49 535 l 43 540 m 439 715 l 446 722 l 439 729 l 438 729 l 432 724 m 481 549 l 488 556 l 479 563 l 474 557 l 474 556 m 461 651 l 468 657 l 460 665 l 454 660 l 454 658 m 38 617 b 49 611 38 613 44 611 l 49 622 b 38 617 44 622 38 621 m 453 750 b 458 738 453 746 453 738 l 460 738 l 465 743 l 465 744 l 453 750 m 432 761 b 444 756 432 756 440 756 l 439 768 l 438 768 l 432 763 m 417 651 l 424 658 l 417 665 l 410 658 m 64 465 l 71 472 l 64 479 l 57 472 m 64 549 l 71 556 l 65 563 l 57 556 m 397 713 l 404 719 l 397 726 l 390 719 m 439 588 l 446 594 l 440 601 l 432 593 m 439 676 l 446 683 l 440 690 l 432 682 m 43 568 b 49 575 47 569 49 572 l 49 576 l 43 582 l 42 582 l 38 575 m 140 426 l 151 426 l 151 435 l 140 435 m 332 819 b 343 826 336 819 343 821 l 336 829 l 332 829 m 435 303 b 440 299 435 300 438 299 l 446 304 b 442 310 446 307 444 310 l 440 310 l 435 304 m 393 218 l 399 213 l 407 218 l 400 224 l 393 219 m 399 799 l 404 804 l 404 806 l 397 810 l 390 806 m 411 704 b 421 694 411 697 414 694 l 421 704 l 411 704 m 463 571 l 465 574 l 467 583 l 454 578 m 461 443 l 468 449 l 461 454 l 454 449 m 476 674 l 482 681 l 475 688 l 471 681 m 399 671 l 404 679 l 399 685 l 393 678 m 128 446 l 135 449 l 128 457 l 121 450 m 417 279 l 418 279 l 424 285 l 424 286 b 418 290 424 289 421 290 l 413 285 m 476 590 l 485 596 b 479 601 485 599 482 601 l 474 596 m 413 493 b 422 489 414 489 419 489 b 418 499 422 492 422 497 l 413 493 m 63 632 l 68 638 l 63 643 l 57 639 m 106 465 l 113 471 l 106 476 l 101 471 m 418 238 l 424 240 b 418 246 424 243 421 246 l 413 242 m 411 525 l 421 531 l 415 538 m 190 424 l 194 432 l 183 432 m 399 468 l 404 472 l 399 476 l 393 472 m 42 654 l 47 663 l 36 663 m 413 614 l 421 619 l 415 624 l 413 624 m 440 93 l 446 96 l 440 101 l 435 96 m 417 71 l 421 76 l 417 82 l 413 76 m 463 613 l 463 622 l 454 618 m 126 410 l 135 410 b 129 415 135 413 132 415 l 126 415 m 438 386 b 444 382 438 383 442 382 b 440 390 444 385 443 389 l 438 386 m 458 529 l 463 533 l 457 538 l 454 533 m 394 385 l 399 389 l 394 393 l 390 389 m 463 489 l 463 497 l 454 493 m 421 319 l 421 328 l 413 324 m 438 510 l 443 510 l 443 515 l 438 515 m 457 282 l 463 282 l 463 288 l 457 288 m 63 679 b 65 674 63 676 63 675 b 68 679 68 675 68 676 l 63 679 m 107 768 b 104 763 104 767 104 765 l 110 763 l 107 768 m 210 404 l 217 410 l 210 410 m 85 746 b 82 740 83 744 82 742 b 88 743 83 740 86 742 l 85 746 m 63 593 l 65 593 l 65 599 l 63 599 m 415 368 l 418 368 l 418 371 l 415 371 m 460 324 l 463 324 l 463 326 l 460 326 m 482 472 b 481 471 481 472 481 471 b 482 469 481 471 481 469 b 483 471 483 469 483 471 b 482 472 483 471 483 472 m 440 17 b 439 15 439 17 439 15 b 440 14 439 15 439 14 b 442 15 442 14 442 15 b 440 17 442 15 442 17 m 393 179 l 396 182 l 393 182 m 460 404 l 463 404 l 463 407 m 457 74 l 460 76 l 457 76 m 399 638 l 401 638 l 401 640 "},"J":{"ha":624,"x_min":0,"x_max":0,"o":"m 172 -158 b 411 343 172 50 411 129 b 403 511 411 399 403 456 b 269 824 403 606 414 824 b 119 635 169 824 119 724 b 317 444 119 507 192 444 b 196 382 317 400 232 382 b 28 557 46 382 93 521 l 28 610 b 300 863 49 625 44 863 b 542 522 488 863 542 678 b 528 299 542 447 528 374 b 353 -218 528 167 486 -137 b 269 -251 326 -233 294 -235 l 239 -251 b 172 -158 199 -229 172 -208 m 225 -153 b 268 -207 225 -183 226 -207 b 383 117 357 -207 383 50 l 383 129 l 378 132 b 225 -153 315 97 225 -81 m 421 -51 b 429 -42 428 -51 429 -47 l 429 -35 b 414 -46 421 -35 414 -36 m 81 599 l 94 611 l 89 621 l 75 607 m 461 729 l 463 729 b 471 744 468 729 471 740 l 468 744 b 456 738 464 744 456 743 m 86 563 l 94 572 l 85 579 l 78 571 m 88 524 l 97 529 l 86 538 l 78 531 m 394 18 b 406 11 394 13 401 11 l 406 25 b 394 18 401 25 394 24 m 67 540 l 72 547 b 67 557 72 551 71 556 b 61 547 63 556 61 551 m 101 556 b 108 543 101 551 103 543 l 114 549 b 101 558 114 554 106 557 m 190 415 l 197 424 l 190 432 l 183 424 m 88 649 l 94 656 l 86 663 l 78 657 m 101 517 b 108 504 101 513 103 504 b 114 508 111 504 114 506 b 101 517 114 514 106 517 m 382 -51 l 389 -44 l 382 -37 l 381 -37 l 375 -43 m 88 479 l 89 479 l 94 485 l 88 493 l 81 486 m 414 111 b 425 106 414 107 421 106 l 425 117 b 414 111 421 117 414 115 m 399 -112 l 406 -106 l 400 -99 l 392 -104 m 211 396 l 217 403 l 211 410 l 203 401 m 153 418 l 158 425 l 153 432 l 144 425 m 129 479 l 136 485 l 128 493 l 122 488 m 419 -10 l 428 -3 l 422 4 l 414 -4 m 485 668 l 490 681 b 478 674 485 681 478 681 m 196 -143 b 188 -156 189 -143 188 -150 l 200 -150 l 196 -143 m 419 149 b 426 158 425 149 426 154 b 414 153 422 158 414 158 m 397 171 l 400 168 b 406 174 403 168 406 171 b 396 181 406 179 400 181 m 478 257 b 486 250 478 253 482 250 l 486 264 b 478 257 482 264 478 261 m 401 -32 l 406 -25 l 400 -18 l 394 -24 l 394 -25 m 439 292 b 449 301 446 292 449 294 l 439 301 m 421 732 l 425 739 l 421 746 l 414 739 m 461 646 l 467 653 l 461 660 l 456 653 m 375 -92 b 383 -85 379 -92 383 -89 l 378 -79 l 375 -79 m 67 588 b 72 597 71 588 72 594 b 61 592 68 597 61 596 m 439 13 l 444 18 l 440 24 l 433 17 m 394 -62 b 400 -68 394 -65 397 -68 l 406 -64 l 400 -60 l 394 -62 m 49 565 l 54 575 l 42 571 m 503 521 l 508 528 l 499 533 m 425 656 b 417 649 421 656 417 654 l 425 649 l 425 656 m 503 315 l 508 319 l 503 324 l 497 319 m 439 214 l 447 219 l 442 224 l 439 224 m 482 293 l 486 299 l 482 304 l 478 299 m 68 626 l 74 636 l 64 632 m 503 563 l 508 565 l 503 571 l 500 568 m 482 424 l 486 428 l 483 432 l 478 426 m 417 -90 l 422 -90 l 422 -85 l 417 -85 m 147 463 l 153 463 l 153 468 l 147 468 m 106 465 l 111 465 l 111 471 l 106 471 m 458 488 b 461 482 458 485 458 483 b 464 488 464 483 464 485 l 458 488 m 422 782 b 419 776 419 781 419 779 l 425 776 b 422 782 425 779 425 781 m 228 424 b 233 418 228 421 231 418 l 233 424 l 228 424 m 486 588 l 486 590 b 483 596 486 593 485 594 l 481 593 m 169 407 b 172 401 169 404 169 403 l 175 407 l 169 407 m 439 -24 b 444 -26 440 -25 443 -26 b 442 -21 444 -25 443 -22 l 439 -24 m 64 674 b 69 671 65 672 68 671 b 67 676 69 672 68 675 l 64 674 m 442 757 b 440 756 440 757 440 756 b 442 754 440 756 440 754 b 443 756 443 754 443 756 b 442 757 443 756 443 757 m 425 276 b 424 278 425 278 424 278 b 422 276 424 278 422 278 b 424 275 422 275 424 275 b 425 276 424 275 425 275 m 108 718 b 106 714 107 717 106 715 l 106 713 b 108 717 107 714 108 715 l 108 718 m 358 -182 b 357 -183 357 -182 357 -183 b 358 -185 357 -183 357 -185 b 360 -183 360 -185 360 -183 b 358 -182 360 -183 360 -182 m 464 276 b 463 278 464 278 463 278 b 461 276 463 278 461 278 b 463 275 461 275 463 275 b 464 276 463 275 464 275 m 125 443 l 128 443 l 125 446 m 439 629 l 442 632 l 439 632 m 481 88 l 483 88 l 483 90 "},"K":{"ha":992,"x_min":0,"x_max":0,"o":"m 592 444 b 518 269 547 444 521 304 l 493 6 l 476 -6 l 426 -6 b 365 17 414 -6 365 -4 b 399 586 365 207 399 396 b 296 822 399 647 388 822 b 115 621 169 822 115 742 b 294 444 115 510 185 444 l 313 444 b 315 436 314 442 315 439 b 194 383 315 396 224 383 b 24 583 88 383 24 485 b 301 858 24 738 149 858 b 533 464 538 858 536 640 l 538 461 l 539 461 l 546 469 b 856 858 596 610 672 858 b 957 778 940 858 919 794 l 957 747 b 876 643 936 713 928 643 b 893 718 878 669 893 692 b 826 792 893 760 871 792 b 593 492 707 792 593 599 l 593 483 l 599 478 b 826 75 879 446 767 267 b 901 -36 838 38 901 -4 b 838 -78 901 -54 851 -69 b 592 444 581 -78 753 444 m 815 -44 l 826 -35 l 817 -25 l 807 -36 m 74 614 l 79 622 b 72 631 79 626 76 631 l 71 631 l 65 622 m 765 208 l 774 218 l 767 225 l 757 215 m 681 417 l 690 426 l 685 433 l 674 425 m 408 83 l 415 92 l 407 97 l 399 90 m 767 292 l 774 300 l 765 308 l 760 300 m 743 272 l 751 279 l 744 286 l 735 279 m 817 822 l 826 828 l 817 836 l 810 829 m 761 253 l 768 260 b 761 267 768 264 765 267 l 760 267 l 754 261 m 704 356 l 713 363 l 706 367 b 696 361 701 367 697 365 m 718 172 l 724 167 l 732 174 l 725 181 l 718 174 m 754 69 l 760 64 l 761 64 b 767 76 767 64 767 72 l 754 71 m 88 475 b 99 468 88 469 94 468 l 99 479 l 90 478 l 88 475 m 721 264 l 719 256 l 731 256 b 724 267 731 260 729 267 m 706 147 l 713 154 l 707 161 l 699 153 m 442 40 b 457 47 447 40 454 42 l 450 53 m 735 85 l 746 90 l 739 97 l 735 97 m 449 83 l 454 92 l 449 97 l 447 97 l 443 90 m 764 336 l 771 342 l 765 347 l 764 347 l 757 340 m 757 172 l 763 167 l 768 174 l 764 181 l 757 174 m 744 317 l 750 329 l 740 328 l 738 325 m 53 592 l 60 599 l 53 606 l 49 599 m 724 211 l 732 217 l 725 222 l 718 217 m 724 347 b 719 336 719 346 719 339 l 728 336 b 724 347 728 339 728 346 m 696 238 b 701 233 696 235 699 233 l 707 238 l 701 244 l 696 239 m 424 724 b 429 719 424 721 426 719 l 435 722 l 429 731 l 424 725 m 68 657 b 79 664 72 658 76 660 l 72 667 l 68 667 m 740 196 b 750 190 740 192 747 190 l 746 203 l 740 197 m 701 203 b 697 193 697 201 697 196 b 707 197 700 193 706 193 l 701 203 m 443 706 b 453 701 444 701 450 701 b 449 711 453 704 453 710 l 443 706 m 725 294 l 731 307 l 718 301 m 178 428 l 182 433 l 178 439 l 171 433 m 746 231 l 751 236 l 746 242 l 740 236 m 746 358 l 751 364 l 746 369 l 740 364 m 686 378 l 690 382 l 683 389 l 679 383 m 383 803 l 388 810 l 383 817 l 379 810 m 114 492 l 118 497 l 115 503 b 110 497 113 503 110 500 m 740 156 b 746 150 740 153 743 150 l 749 156 l 744 161 l 740 156 m 701 403 b 707 408 704 403 707 406 l 701 411 l 696 407 m 756 21 l 765 26 l 760 33 m 150 450 l 161 450 l 156 458 m 726 376 l 726 388 l 718 381 m 913 808 b 921 804 914 806 918 804 b 917 811 921 807 919 811 l 913 808 m 853 -40 l 863 -35 l 857 -31 m 361 821 l 371 826 l 365 831 m 407 742 l 413 746 l 408 750 l 404 747 m 742 3 l 746 7 l 743 11 l 738 7 m 660 442 l 665 446 l 661 450 l 657 446 m 914 764 l 922 764 l 918 772 m 757 -14 b 765 -18 758 -17 763 -18 l 763 -11 l 757 -14 m 425 431 l 432 431 l 429 439 m 721 72 b 718 67 718 71 718 69 l 724 67 b 721 72 724 69 724 71 m 71 583 b 74 578 71 581 71 579 b 76 583 76 579 76 581 l 71 583 m 718 25 b 724 31 721 25 724 28 l 718 31 m 776 89 b 782 92 779 89 781 89 b 778 94 781 93 779 94 l 776 94 m 463 22 b 468 25 465 22 467 22 b 464 28 467 26 465 28 l 463 28 m 68 494 b 75 492 69 493 74 492 l 76 492 l 72 497 b 68 494 71 497 69 496 m 468 185 b 472 178 468 182 469 178 l 474 178 b 468 185 474 181 471 183 m 860 824 l 860 831 l 854 831 m 132 431 l 138 431 l 138 433 l 132 433 m 410 244 l 413 244 l 413 250 l 410 250 m 785 278 l 788 278 l 788 283 l 785 283 m 446 494 l 451 494 l 451 497 l 446 497 m 776 -36 b 781 -39 778 -37 779 -39 l 782 -39 l 779 -33 l 776 -36 m 818 11 b 815 7 817 10 815 8 l 815 6 l 821 8 l 818 11 m 113 453 l 118 453 b 114 456 117 454 115 456 l 113 456 m 426 514 l 432 514 b 428 517 431 515 429 517 l 426 517 m 507 392 l 510 392 l 510 394 l 507 394 m 404 789 l 407 789 l 407 792 l 404 792 m 785 153 l 790 153 l 785 156 m 404 289 l 407 289 l 407 292 l 404 292 m 446 161 l 451 164 l 446 164 m 446 369 l 451 372 l 446 372 m 515 431 b 514 432 515 432 514 432 b 513 431 514 432 513 432 b 514 429 513 429 514 429 b 515 431 514 429 515 429 m 835 -14 b 839 -17 836 -15 838 -17 l 840 -17 b 836 -14 839 -15 838 -14 l 835 -14 m 746 400 b 744 401 746 401 744 401 b 743 400 744 401 743 401 b 744 399 743 399 744 399 b 746 400 744 399 746 399 m 429 310 b 428 308 428 310 428 308 b 429 307 428 308 428 307 b 431 308 431 307 431 308 b 429 310 431 308 431 310 m 532 411 b 531 413 532 413 531 413 b 529 411 531 413 529 413 b 531 410 529 410 531 410 b 532 411 531 410 532 410 m 449 749 b 447 747 447 749 447 747 b 449 746 447 747 447 746 b 450 747 450 746 450 747 b 449 749 450 747 450 749 m 96 517 b 94 518 96 518 94 518 b 93 517 94 518 93 518 b 94 515 93 515 94 515 b 96 517 94 515 96 515 m 788 239 b 786 240 788 240 786 240 b 785 239 786 240 785 240 b 786 238 785 238 786 238 b 788 239 786 238 788 238 m 388 33 b 386 35 388 35 386 35 b 385 33 386 35 385 35 b 386 32 385 32 386 32 b 388 33 386 32 388 32 m 51 556 l 54 558 l 51 558 m 782 322 l 785 325 l 782 325 m 426 72 l 429 75 l 426 75 m 718 106 l 718 108 l 715 108 m 701 275 l 704 275 l 701 278 m 71 536 l 74 539 l 71 539 m 468 106 l 471 108 l 468 108 m 426 106 l 429 108 l 426 108 m 776 6 l 779 6 l 776 8 "},"L":{"ha":624,"x_min":0,"x_max":0,"o":"m 268 -6 b 253 -3 264 -4 257 -3 l 243 -3 b 128 -36 207 -18 168 -36 b 18 53 75 -36 18 -7 b 132 147 18 111 79 147 b 204 133 157 147 179 133 b 224 168 222 133 224 154 b 146 540 224 299 146 411 b 288 839 146 658 165 786 b 368 861 313 850 346 842 b 585 649 503 861 585 786 b 449 464 585 567 546 464 b 354 508 424 464 354 475 b 501 681 444 551 501 568 b 396 825 501 747 475 825 b 263 632 294 825 263 715 b 349 222 263 488 349 365 b 321 78 349 172 340 124 b 501 -6 321 25 460 -6 b 568 56 542 -6 568 14 b 532 136 568 88 533 108 l 540 147 b 624 28 600 132 594 69 l 624 -11 b 521 -119 576 -79 593 -71 l 515 -125 b 268 -6 410 -125 344 -75 m 46 56 b 100 6 46 24 69 6 b 185 58 129 6 185 22 b 99 100 185 92 124 100 b 46 56 71 100 46 86 m 286 131 b 313 158 299 131 313 146 l 307 167 b 279 142 300 165 285 147 l 279 138 m 243 672 l 249 681 l 226 708 l 218 701 b 235 675 219 693 229 682 m 403 -19 b 411 -39 403 -25 404 -39 l 418 -31 b 403 -19 418 -21 411 -19 m 268 147 l 275 167 b 260 157 269 167 260 164 m 228 356 l 235 363 l 224 372 l 215 365 m 436 483 l 443 492 l 435 500 l 426 492 m 224 317 l 232 325 l 224 333 l 215 325 m 285 336 l 293 344 l 283 353 l 276 346 m 349 -17 l 357 -11 l 357 -10 b 349 -3 357 -6 353 -3 l 340 -8 m 538 -36 l 544 -22 b 529 -29 540 -22 529 -24 l 529 -31 m 243 336 l 251 347 l 246 353 l 244 353 l 238 344 m 243 89 l 249 97 l 242 106 l 235 99 m 368 -42 l 376 -31 l 369 -25 l 363 -32 m 218 565 b 229 574 224 565 229 567 l 222 578 l 218 578 m 257 74 b 268 65 257 67 263 65 l 268 79 l 257 74 m 310 289 b 303 276 304 289 303 281 b 315 283 307 276 315 278 l 310 289 m 285 47 b 292 60 290 47 292 56 b 279 53 288 60 279 58 m 204 683 b 197 671 199 683 197 675 b 210 678 201 671 210 672 l 204 683 m 239 725 b 244 714 239 721 240 714 b 250 725 249 714 250 721 l 239 725 m 218 32 b 225 25 218 28 221 25 l 226 25 l 229 31 l 229 32 l 222 39 l 218 32 m 511 -60 b 524 -54 515 -60 524 -60 l 524 -53 l 518 -47 l 517 -47 m 257 200 l 263 194 l 264 194 b 269 207 269 194 269 203 l 257 201 m 433 -58 l 440 -51 l 433 -44 l 426 -51 m 389 -14 l 396 -7 l 389 0 l 382 -7 m 514 778 l 521 785 l 515 792 l 507 785 m 267 111 l 274 115 l 267 125 l 260 118 m 556 653 l 563 660 l 556 667 l 549 660 m 286 89 l 293 96 l 288 103 l 279 94 m 196 725 b 206 714 197 721 200 714 l 207 714 l 207 725 l 196 725 m 257 39 b 267 28 258 35 261 28 l 268 28 l 268 39 l 257 39 m 197 90 b 210 97 203 90 210 90 l 203 103 m 283 217 b 289 229 289 217 289 225 b 279 222 285 229 279 228 m 176 575 b 182 569 176 572 179 569 b 189 579 188 569 189 575 l 179 578 l 176 575 m 240 469 b 247 464 240 465 244 464 l 249 464 l 249 476 b 240 469 243 476 240 475 m 265 289 b 258 281 261 289 258 285 l 272 281 b 265 289 272 285 269 289 m 201 631 l 203 631 l 210 636 l 203 642 l 201 642 l 196 636 m 218 615 b 224 611 218 613 221 611 l 229 617 b 225 622 229 619 228 622 l 224 622 l 218 617 m 264 397 l 271 403 l 265 408 l 264 408 l 257 401 m 267 236 l 274 242 l 268 247 l 267 247 l 260 240 m 207 476 b 197 467 200 476 197 474 l 207 467 l 207 476 m 261 328 b 271 318 261 321 264 318 l 271 328 l 261 328 m 242 300 l 249 304 l 249 306 l 243 311 l 235 303 m 244 214 l 249 221 l 244 228 l 238 221 m 244 506 l 249 513 l 243 519 l 238 514 m 392 -56 l 396 -50 l 390 -42 l 385 -49 m 200 546 b 213 553 204 546 210 549 l 206 558 m 329 19 b 322 7 325 17 322 11 l 335 13 l 329 19 m 243 47 l 244 47 b 249 53 247 47 249 50 l 244 58 l 238 53 m 246 381 l 247 381 b 251 386 250 381 251 383 l 247 392 l 240 386 m 494 797 l 499 804 l 496 811 b 490 804 492 811 490 807 m 513 569 l 521 569 l 521 578 l 513 578 m 301 361 l 311 361 b 304 369 311 365 308 369 l 301 369 m 468 -50 b 478 -54 469 -54 475 -54 b 474 -44 478 -51 478 -46 l 468 -50 m 286 172 l 292 185 l 279 179 m 182 -14 l 188 -8 l 182 -3 l 176 -10 m 204 422 l 210 429 l 204 433 l 199 429 m 494 -36 l 499 -31 l 494 -25 l 488 -31 m 224 736 l 229 742 l 225 747 l 218 740 m 264 361 l 268 367 l 265 372 b 260 367 263 372 260 369 m 447 -79 l 457 -74 l 451 -67 m 239 590 l 249 596 l 243 603 m 511 531 l 522 531 l 517 539 m 225 528 l 231 536 l 219 536 m 219 656 l 231 656 l 224 664 m 449 -35 l 457 -29 l 451 -25 l 449 -25 m 407 -72 l 415 -72 l 415 -67 l 407 -67 m 432 -97 l 438 -92 l 432 -86 l 429 -92 m 246 258 l 251 263 l 246 267 l 240 263 m 179 651 l 188 658 l 182 661 l 179 661 m 597 28 l 601 33 l 599 39 l 593 31 m 529 764 b 538 760 531 761 535 760 b 533 767 538 763 536 767 l 529 764 m 304 194 l 310 199 l 300 204 m 288 381 l 292 389 l 283 389 m 514 -97 l 518 -93 l 514 -89 l 510 -93 m 244 131 l 249 136 l 244 139 l 240 135 m 226 71 l 226 79 l 218 75 m 268 776 l 268 785 l 260 781 m 533 672 l 538 676 l 533 681 l 529 676 m 286 8 l 290 13 l 281 18 m 558 611 l 563 615 l 553 621 m 300 24 l 310 29 l 306 33 m 175 613 l 185 618 l 181 622 m 494 -78 l 499 -74 l 489 -68 m 471 489 l 476 489 l 476 494 l 471 494 m 199 383 l 204 383 l 204 389 l 199 389 m 240 428 l 246 428 b 242 433 246 431 244 433 l 240 433 m 304 -6 b 310 -11 304 -8 307 -11 l 310 -6 l 304 -6 m 449 508 b 454 514 451 508 454 511 l 449 514 m 554 -47 b 560 -53 554 -50 557 -53 l 560 -47 l 554 -47 m 326 217 l 332 217 l 332 219 l 326 219 m 221 408 l 226 408 l 226 411 l 221 411 m 326 183 b 329 178 326 181 326 179 l 329 183 l 326 183 m 368 11 l 374 11 b 369 14 372 13 371 14 l 368 14 m 532 633 l 538 633 b 533 636 536 635 535 636 l 532 636 m 535 -72 l 538 -72 l 538 -69 l 535 -69 m 596 -8 l 599 -8 l 599 -6 l 596 -6 m 307 243 b 306 242 306 243 306 242 b 307 240 306 242 306 240 b 308 242 308 240 308 242 b 307 243 308 242 308 243 m 265 490 b 264 489 264 490 264 489 b 265 488 264 489 264 488 b 267 489 267 488 267 489 b 265 490 267 489 267 490 m 304 322 b 303 321 303 322 303 321 b 304 319 303 321 303 319 b 306 321 306 319 306 321 b 304 322 306 321 306 322 m 163 597 b 161 599 163 599 161 599 b 160 597 161 599 160 599 b 161 596 160 596 161 596 b 163 597 161 596 163 596 m 246 764 b 244 765 246 765 244 765 b 243 764 244 765 243 765 b 244 763 243 763 244 763 b 246 764 244 763 246 763 m 285 429 b 283 428 283 429 283 428 b 285 426 283 428 283 426 b 286 428 286 426 286 428 b 285 429 286 428 286 429 m 310 240 b 308 239 308 240 308 239 b 310 238 308 239 308 238 b 311 239 311 238 311 239 b 310 240 311 239 311 240 m 243 638 b 242 636 242 638 242 636 b 243 635 242 636 242 635 b 244 636 244 635 244 636 b 243 638 244 636 244 638 m 285 265 b 283 264 283 265 283 264 b 285 263 283 264 283 263 b 286 264 286 263 286 264 b 285 265 286 264 286 265 m 560 697 b 558 699 560 699 558 699 b 557 697 558 699 557 699 b 558 696 557 696 558 696 b 560 697 558 696 560 696 m 201 594 b 200 596 201 596 200 596 b 199 594 200 596 199 596 b 200 593 199 593 200 593 b 201 594 200 593 201 593 m 535 557 b 533 556 533 557 533 556 b 535 554 533 556 533 554 b 536 556 536 554 536 556 b 535 557 536 556 536 557 m 224 447 l 224 450 l 221 450 m 246 553 l 246 556 l 243 556 m 432 -14 l 435 -11 l 432 -11 "},"Å":{"ha":749,"x_min":0,"x_max":0,"o":"m 254 -3 b 133 -39 211 -3 176 -39 b 18 50 83 -39 18 -8 l 18 61 b 129 147 60 93 67 147 b 204 133 156 147 178 133 l 221 144 l 221 219 l 213 228 b 147 200 188 228 172 200 l 138 214 l 140 222 l 201 258 b 207 279 203 264 207 274 b 146 557 207 375 146 461 b 363 858 146 764 174 771 l 365 861 l 415 861 b 474 844 432 849 456 851 b 588 654 550 814 588 732 b 449 464 588 569 549 464 b 357 511 425 464 357 481 l 360 517 b 501 685 450 532 501 593 b 393 825 501 753 472 825 b 263 635 294 825 263 715 b 335 347 263 567 301 406 l 344 342 l 346 342 l 490 419 l 494 419 l 507 404 b 354 311 500 389 376 324 l 349 303 b 321 75 350 225 321 151 b 501 -6 321 26 463 -6 b 569 54 542 -6 569 11 b 532 133 569 86 532 103 l 543 144 b 625 7 590 144 625 46 b 515 -125 625 -90 551 -76 l 471 -125 b 376 -83 458 -104 400 -101 b 254 -3 339 -54 308 -3 m 101 100 b 49 78 88 100 49 99 l 49 31 b 97 6 49 13 83 6 b 185 57 126 6 185 19 b 101 100 185 92 126 100 m 186 600 l 196 610 l 186 617 l 176 608 m 226 519 l 235 528 l 224 536 l 215 529 m 476 517 l 485 524 l 476 533 l 468 524 m 207 622 l 215 629 l 206 639 l 199 629 m 535 588 b 550 581 535 582 546 581 l 543 594 l 535 589 m 276 57 b 269 72 276 61 275 72 l 268 72 l 263 64 m 188 686 l 196 692 l 186 700 l 179 692 m 542 706 l 551 714 l 543 719 l 535 713 m 200 551 b 208 539 200 547 203 539 b 213 544 211 539 213 542 b 200 551 213 550 204 551 m 283 176 b 290 164 283 172 285 164 l 296 169 b 283 176 296 175 288 176 m 246 53 b 239 40 240 53 239 44 b 251 47 243 40 251 42 l 246 53 m 210 388 b 200 375 201 388 200 382 l 210 375 l 210 388 m 182 103 l 192 101 b 185 114 192 106 190 114 l 179 106 m 493 543 b 504 538 493 539 500 538 l 504 549 b 493 543 500 549 493 547 m 519 603 l 526 610 l 519 617 l 513 608 m 521 769 l 526 776 l 519 783 l 513 776 m 226 644 l 235 651 l 228 658 l 221 651 m 226 58 l 235 65 l 228 72 l 221 65 m 292 289 l 299 296 l 293 303 l 285 294 m 275 324 b 264 313 267 324 264 321 b 275 324 272 313 275 315 m 333 -3 b 339 10 339 -3 339 6 b 329 3 335 10 329 8 m 310 269 b 317 282 314 272 317 278 b 304 275 313 282 307 279 m 307 310 l 315 311 l 318 314 b 311 319 318 318 314 319 l 307 319 m 493 -43 l 501 -42 l 504 -39 b 497 -33 504 -35 500 -33 l 493 -33 m 310 186 l 315 193 l 311 200 l 310 200 l 304 194 m 288 40 b 297 50 294 40 297 43 l 288 50 m 203 425 b 213 415 203 418 206 415 l 213 425 l 203 425 m 182 650 b 188 644 182 647 185 644 b 193 650 190 644 193 647 l 188 656 l 182 650 m 269 394 l 276 401 l 269 406 l 263 399 m 206 667 l 213 674 l 206 678 l 199 672 m 249 247 l 254 254 l 247 261 l 243 254 m 250 81 l 257 88 l 250 92 l 243 88 m 226 19 l 235 25 l 226 31 l 221 24 m 271 353 l 274 361 l 268 367 l 263 361 m 158 582 b 171 589 163 582 168 585 l 164 594 m 311 144 l 317 157 b 304 150 313 157 307 154 m 515 519 l 521 528 l 517 533 l 510 525 m 222 615 b 228 603 222 611 222 603 l 232 610 l 222 615 m 243 714 b 253 710 244 710 250 710 b 249 719 253 713 253 718 l 243 714 m 540 -36 b 550 -40 542 -40 547 -40 b 546 -31 550 -37 550 -32 l 540 -36 m 557 650 b 567 646 558 646 564 646 b 563 656 567 649 567 654 l 557 650 m 535 631 b 544 626 536 626 542 626 b 540 636 544 629 544 635 l 535 631 m 267 19 l 274 25 l 268 31 l 263 25 m 185 519 l 190 528 l 185 531 l 179 526 m 188 436 l 193 442 l 188 447 l 182 442 m 310 22 l 315 28 l 311 33 l 304 26 m 499 500 l 504 506 l 500 511 l 493 504 m 206 42 l 213 47 l 207 53 l 201 46 m 539 661 l 543 668 l 539 675 l 535 668 m 243 294 b 249 289 243 292 246 289 l 251 294 l 247 300 l 243 294 m 268 228 b 274 233 271 228 274 231 l 269 239 l 265 233 m 214 82 l 208 92 l 201 86 m 518 731 l 524 731 l 524 739 l 518 739 m 374 -42 l 379 -36 l 374 -33 l 368 -36 m 247 417 l 253 425 l 242 425 m 271 438 l 271 449 l 263 443 m 268 269 l 274 276 l 268 281 l 265 275 m 185 567 l 190 571 l 185 575 l 179 569 m 557 688 l 565 693 l 560 697 l 557 697 m 393 -64 l 399 -57 l 394 -53 l 390 -58 m 251 207 l 251 217 l 243 214 m 165 -3 l 171 1 l 161 7 m 500 792 l 506 801 l 496 797 m 435 -22 l 439 -14 l 431 -14 m 246 125 l 251 125 l 251 131 l 246 131 m 229 731 l 232 739 l 225 739 m 267 106 l 272 114 l 263 110 m 479 -64 l 482 -56 l 475 -56 m 164 633 b 168 625 164 631 165 626 l 168 633 l 164 633 m 229 694 b 226 689 226 693 226 692 l 232 689 b 229 694 232 692 232 693 m 479 -97 b 474 -103 475 -97 474 -99 b 479 -97 478 -103 479 -101 m 204 0 b 210 3 207 0 208 0 b 206 6 208 4 207 6 l 204 6 m 535 756 b 540 753 536 753 538 753 l 540 758 l 535 756 m 226 319 b 229 314 226 318 228 315 l 232 317 b 226 319 231 318 228 319 m 165 542 l 168 544 b 164 547 167 546 165 547 l 163 547 m 393 -14 b 396 -19 393 -17 393 -18 l 396 -14 l 393 -14 m 454 508 b 460 506 456 506 457 506 l 460 508 l 454 508 m 374 0 l 379 0 b 375 3 378 1 376 3 l 374 3 m 521 692 l 526 692 b 522 694 525 693 524 694 l 521 694 m 224 358 l 226 358 l 226 361 l 224 361 m 265 147 l 268 147 l 268 150 l 265 150 m 210 343 b 208 342 208 343 208 342 b 210 340 208 342 208 340 b 211 342 211 340 211 342 b 210 343 211 342 211 343 m 207 717 b 206 715 206 717 206 715 b 207 714 206 715 206 714 b 208 715 208 714 208 715 b 207 717 208 715 208 717 m 479 819 b 478 821 479 821 478 821 b 476 819 478 821 476 821 b 478 818 476 818 478 818 b 479 819 478 818 479 818 m 290 128 b 289 129 290 129 289 129 b 288 128 289 129 288 129 b 289 126 288 126 289 126 b 290 128 289 126 290 126 m 290 4 b 289 3 289 4 289 3 b 290 1 289 3 289 1 b 292 3 292 1 292 3 b 290 4 292 3 292 4 m 249 174 b 247 172 247 174 247 172 b 249 171 247 172 247 171 b 250 172 250 171 250 172 b 249 174 250 172 250 174 m 499 -76 b 497 -78 497 -76 497 -78 b 499 -79 497 -78 497 -79 b 500 -78 500 -79 500 -78 b 499 -76 500 -78 500 -76 m 474 483 l 476 486 l 474 486 m 229 403 l 229 406 l 226 406 m 101 -19 l 104 -19 l 101 -17 m 290 86 l 290 89 l 288 89 "},"M":{"ha":1208,"x_min":0,"x_max":0,"o":"m 1013 11 b 1001 175 1013 67 1001 121 l 1001 472 b 996 492 1001 476 997 488 l 994 492 l 988 483 l 910 144 b 768 -11 894 79 844 -11 b 618 181 678 -11 628 104 l 582 478 b 571 542 581 489 590 542 l 568 542 b 546 281 536 461 558 364 b 257 -178 519 114 493 -178 b 36 97 117 -178 36 -28 b 219 347 36 201 97 347 b 342 300 250 347 342 343 l 340 292 b 324 289 335 290 329 289 b 279 292 308 289 294 292 b 104 65 161 292 104 168 b 261 -144 104 -31 150 -144 b 504 389 481 -144 504 233 b 638 840 504 474 511 840 b 717 547 717 840 717 599 b 813 67 717 499 724 67 b 868 136 844 67 863 110 l 996 733 b 1107 825 1010 799 1039 825 b 1149 806 1118 825 1149 824 b 1138 307 1149 639 1138 474 l 1138 183 b 1251 -242 1138 60 1147 -147 b 1175 -289 1251 -272 1200 -289 b 1013 11 1057 -289 1013 -82 m 1032 332 b 1065 300 1032 318 1051 300 l 1074 308 l 1040 336 l 1032 332 m 1082 322 l 1090 329 l 1061 356 l 1054 349 m 675 286 b 667 268 668 286 667 274 b 682 278 675 268 682 267 l 675 286 m 717 181 b 707 165 708 181 707 172 l 714 165 b 724 174 719 165 724 167 l 717 181 m 650 265 b 657 250 650 261 650 250 l 665 258 b 650 268 665 265 656 268 m 1097 525 b 1104 508 1097 519 1099 510 l 1113 515 b 1097 525 1113 522 1103 525 m 1042 236 l 1051 243 l 1038 253 l 1032 246 m 1014 299 l 1017 299 b 1029 307 1022 299 1029 300 l 1021 317 m 1111 440 b 1097 426 1100 440 1097 438 b 1111 440 1108 426 1111 429 m 1014 272 b 1024 258 1014 267 1017 258 l 1026 261 l 1028 272 l 1014 272 m 1015 349 b 1029 339 1015 340 1022 340 l 1029 344 l 1019 356 l 1015 349 m 1082 167 l 1090 175 l 1085 183 l 1074 172 m 1101 256 l 1110 261 l 1099 272 l 1093 265 m 1053 379 l 1058 379 b 1068 388 1064 379 1068 382 l 1061 394 m 675 589 l 682 597 l 678 606 l 668 599 m 1040 447 l 1049 453 l 1040 461 l 1032 453 m 1085 125 l 1093 132 l 1085 139 l 1076 131 m 1040 281 l 1049 288 l 1039 294 l 1032 288 m 1081 361 l 1088 371 l 1081 378 l 1074 371 m 1104 142 l 1113 151 l 1104 158 l 1099 151 m 672 167 l 679 175 l 674 183 l 665 174 m 1015 433 b 1019 428 1015 431 1017 428 b 1028 440 1025 428 1028 436 b 1015 433 1024 440 1015 439 m 671 556 b 675 550 671 553 672 550 b 683 563 681 550 683 558 b 671 556 679 563 671 561 m 1040 406 b 1047 418 1046 406 1047 414 b 1035 411 1043 418 1035 417 m 1018 594 b 1025 607 1024 594 1025 603 b 1013 600 1021 607 1013 606 m 1097 385 b 1110 393 1104 385 1110 385 l 1104 400 m 1057 718 b 1068 725 1061 718 1068 719 l 1061 731 l 1057 731 m 1099 760 b 1108 772 1107 760 1108 765 l 1099 772 m 1063 425 l 1068 433 l 1061 439 l 1054 432 m 1061 217 l 1068 224 l 1060 231 l 1054 224 m 1042 167 l 1049 174 l 1040 181 l 1035 174 m 1061 22 l 1068 28 l 1060 36 l 1054 28 m 1042 697 l 1049 704 l 1042 711 l 1035 706 m 1104 300 l 1113 307 l 1103 314 l 1099 307 m 701 250 l 707 258 l 701 264 l 693 257 m 1060 256 l 1068 264 l 1061 269 l 1054 263 m 1014 718 b 1026 725 1019 718 1026 718 l 1019 731 m 1053 468 b 1065 475 1058 468 1065 468 l 1058 481 m 686 157 b 693 147 686 153 688 147 b 699 153 696 147 699 150 l 696 156 l 686 157 m 1075 457 b 1082 447 1075 453 1076 447 b 1088 453 1085 447 1088 450 l 1085 456 l 1075 457 m 636 250 b 628 240 631 250 628 246 b 640 246 632 240 640 240 l 636 250 m 1096 557 b 1101 553 1096 554 1099 553 l 1107 558 b 1103 564 1107 561 1106 564 l 1101 564 l 1096 558 m 657 293 b 667 303 664 293 667 296 l 657 303 m 1057 760 b 1068 765 1061 760 1068 761 l 1061 769 l 1057 769 m 1106 342 l 1113 347 l 1106 353 l 1099 347 m 1103 217 l 1110 222 l 1103 228 l 1096 222 m 756 42 l 763 47 l 756 53 l 749 47 m 1042 489 l 1049 496 l 1042 500 l 1035 496 m 1035 744 l 1040 739 l 1042 739 b 1046 744 1044 739 1046 742 l 1040 750 l 1035 746 m 693 297 b 697 292 693 294 694 292 l 699 292 l 704 297 l 704 299 l 699 303 l 693 297 m 1044 42 l 1051 47 l 1046 53 l 1038 46 m 676 242 b 669 229 671 242 669 233 l 682 238 l 676 242 m 1104 633 l 1113 639 l 1106 644 l 1099 638 m 1107 717 l 1110 724 l 1103 731 l 1099 725 m 657 568 l 665 576 l 660 583 l 657 583 m 1078 282 b 1090 288 1082 282 1090 282 l 1083 292 m 1122 -28 b 1117 -37 1118 -28 1117 -35 l 1129 -33 l 1124 -28 m 1021 511 l 1026 517 l 1024 522 l 1022 522 l 1015 518 m 64 104 l 76 110 l 69 117 m 1061 675 l 1068 682 l 1056 688 m 1040 364 l 1046 369 l 1040 375 l 1035 369 m 1082 406 l 1088 411 l 1082 417 l 1076 411 m 1124 -125 l 1129 -119 l 1124 -114 l 1118 -118 m 1063 594 l 1068 600 l 1061 606 l 1057 600 m 1063 147 l 1068 153 l 1061 158 l 1057 153 m 1124 739 l 1129 746 l 1124 750 l 1118 742 m 1040 531 l 1049 538 l 1042 542 l 1038 536 m 657 339 l 663 343 l 656 350 l 651 344 m 661 614 l 665 617 b 660 622 665 619 663 622 l 654 619 m 1036 624 b 1043 614 1038 619 1040 617 l 1049 619 l 1036 624 m 1014 388 l 1026 392 l 1019 397 m 672 482 l 685 486 l 678 492 m 1075 574 l 1088 578 l 1081 583 m 671 135 b 679 126 671 129 674 126 b 671 135 679 132 676 135 m 651 515 b 660 507 651 510 654 507 b 651 515 660 513 657 515 m 1079 701 b 1088 708 1083 701 1088 703 l 1079 708 m 1079 240 l 1088 246 l 1082 250 l 1079 250 m 1000 572 l 1004 578 l 1000 583 l 996 578 m 1019 636 l 1024 642 l 1019 647 l 1015 642 m 1097 594 l 1108 594 l 1103 603 m 1125 781 l 1131 789 l 1119 789 m 213 325 l 218 329 l 213 333 l 207 328 m 1207 -247 l 1213 -243 l 1207 -239 l 1201 -244 m 1057 513 l 1065 518 l 1060 522 l 1057 522 m 1079 738 l 1088 743 l 1082 747 l 1079 747 m 1038 661 l 1046 661 b 1040 667 1046 664 1043 667 l 1038 667 m 775 19 l 781 28 l 771 28 m 1079 622 b 1088 618 1081 619 1085 618 b 1083 625 1088 621 1086 625 l 1079 622 m 674 322 b 682 318 675 319 679 318 b 678 325 682 321 681 325 l 674 322 m 1083 531 l 1089 540 l 1079 536 m 1121 -199 b 1125 -206 1121 -201 1122 -206 l 1129 -203 b 1121 -199 1128 -200 1124 -199 m 1121 169 l 1125 178 l 1117 178 m 1021 678 l 1024 683 l 1019 686 l 1015 683 m 85 171 l 93 175 l 88 178 l 85 178 m 674 638 l 682 642 l 676 644 l 674 644 m 1057 554 l 1065 558 l 1060 561 l 1057 561 m 1042 572 l 1046 576 l 1036 582 m 1083 656 l 1088 660 l 1078 665 m 797 42 l 803 51 l 793 46 m 714 128 l 719 138 l 710 132 m 713 42 l 715 47 l 713 53 l 710 47 m 1121 703 l 1126 703 l 1126 708 l 1121 708 m 732 108 l 738 108 b 733 114 738 111 736 114 l 732 114 m 715 236 l 721 236 b 717 242 721 239 719 242 l 715 242 m 1099 681 l 1104 685 l 1100 689 l 1099 689 m 738 28 b 732 22 735 28 732 25 l 738 22 l 738 28 m 1101 808 b 1107 803 1101 806 1104 803 l 1107 808 l 1101 808 m 1001 622 b 996 617 999 622 996 619 l 1001 617 l 1001 622 m 1085 489 l 1085 497 l 1079 493 m 133 281 l 138 286 l 129 286 m 1101 186 l 1107 186 b 1104 192 1107 189 1107 190 m 996 536 l 1001 536 l 1001 539 l 996 539 m 657 785 b 660 781 657 783 658 782 l 660 789 b 657 785 658 788 657 786 m 676 683 b 679 678 676 681 676 679 l 679 683 l 676 683 m 1082 203 l 1085 203 b 1082 208 1085 206 1085 207 m 1063 186 l 1065 186 b 1063 192 1065 189 1065 190 m 713 92 b 718 89 714 89 715 89 l 718 92 l 713 92 m 1126 -244 l 1129 -244 l 1129 -242 l 1126 -242 m 1021 558 l 1024 561 l 1021 564 m 615 514 b 614 515 615 515 614 515 b 613 514 614 515 613 515 b 614 513 613 513 614 513 b 615 514 614 513 615 513 m 613 808 b 611 810 613 810 611 810 b 610 808 611 810 610 810 b 611 807 610 807 611 807 b 613 808 611 807 613 807 m 660 660 b 658 658 658 660 658 658 b 660 657 658 658 658 657 b 661 658 661 657 661 658 b 660 660 661 658 661 660 m 693 110 b 692 108 692 110 692 108 b 693 107 692 108 692 107 b 694 108 694 107 694 108 b 693 110 694 108 694 110 m 1040 788 b 1039 786 1039 788 1039 786 b 1040 785 1039 786 1039 785 b 1042 786 1042 785 1042 786 b 1040 788 1042 786 1042 788 m 632 492 b 631 493 632 493 631 493 b 629 492 631 493 629 493 b 631 490 629 490 631 490 b 632 492 631 490 632 490 m 1021 224 b 1019 222 1019 224 1019 222 b 1021 221 1019 222 1019 221 b 1022 222 1022 221 1022 222 b 1021 224 1022 222 1022 224 m 1060 -57 b 1058 -58 1058 -57 1058 -58 b 1060 -60 1058 -58 1058 -60 b 1061 -58 1061 -60 1061 -58 b 1060 -57 1061 -58 1061 -57 m 985 599 b 983 597 983 599 983 597 b 985 596 983 597 983 596 b 986 597 986 596 986 597 b 985 599 986 597 986 599 m 681 447 b 676 444 679 447 678 446 l 678 444 b 682 447 679 444 681 446 m 1124 90 b 1122 89 1122 90 1122 89 b 1124 88 1122 89 1122 88 b 1125 89 1125 88 1125 89 b 1124 90 1125 89 1125 90 m 1043 93 b 1042 92 1042 93 1042 92 b 1043 90 1042 92 1042 90 b 1044 92 1044 90 1044 92 b 1043 93 1044 92 1044 93 m 257 328 b 256 326 256 328 256 326 b 257 325 256 326 256 325 b 258 326 258 325 258 326 b 257 328 258 326 258 328 m 660 701 b 658 700 658 701 658 700 b 660 699 658 700 658 699 b 661 700 661 699 661 700 b 660 701 661 700 661 701 m 1118 328 l 1121 328 l 1121 331 m 676 358 l 679 358 l 676 361 m 657 381 l 660 381 l 660 383 m 1040 131 l 1040 133 l 1038 133 m 690 186 l 693 189 l 690 189 m 1085 -164 l 1088 -164 l 1085 -161 "},"N":{"ha":1046,"x_min":0,"x_max":0,"o":"m 18 103 b 197 346 18 204 78 346 b 303 275 238 346 303 324 l 293 268 b 86 78 157 275 86 225 b 238 -135 86 -15 126 -135 b 485 461 464 -135 485 303 b 594 835 485 526 479 835 b 667 793 625 835 658 826 b 825 174 715 608 803 357 l 831 165 b 858 351 860 171 854 324 l 908 743 b 1011 963 917 808 954 924 b 1061 988 1026 974 1047 974 b 1188 888 1128 988 1186 968 b 1113 901 1163 889 1139 901 b 956 718 1018 901 967 799 l 861 60 b 767 -12 854 7 817 -12 b 731 4 754 -12 735 -11 l 553 649 l 547 654 l 542 651 b 238 -178 532 439 554 -178 b 19 76 71 -178 76 -36 m 585 696 b 592 704 589 696 592 700 l 583 713 l 575 704 m 767 121 b 774 113 767 117 769 113 l 781 121 l 774 129 l 767 121 m 124 279 l 133 289 l 126 296 l 117 283 m 667 657 l 675 664 l 668 671 l 661 664 m 585 657 l 592 664 l 585 671 l 578 664 m 799 96 l 806 101 b 799 107 804 106 801 107 l 797 107 l 792 101 l 792 100 m 1081 960 b 1074 950 1075 960 1074 954 b 1086 956 1078 950 1086 950 l 1081 960 m 683 390 b 693 383 683 385 689 383 b 688 396 693 388 693 396 l 683 390 m 683 469 b 693 479 690 469 693 472 l 683 479 m 647 718 l 653 726 l 647 732 l 642 725 m 542 699 l 547 706 l 543 713 l 536 706 m 565 721 l 572 725 l 565 732 l 558 725 m 818 46 l 825 51 l 818 57 l 811 53 m 167 282 l 172 288 l 167 296 l 161 288 m 607 593 l 614 601 l 608 607 l 603 600 m 61 178 b 69 185 65 178 69 181 l 64 190 l 61 190 m 629 668 b 624 657 625 668 624 661 b 633 663 626 657 633 658 l 629 668 m 622 743 l 631 743 l 631 751 l 622 751 m 706 493 l 714 493 l 714 501 l 706 501 m 794 26 l 803 26 l 803 35 l 794 35 m 644 679 l 653 679 l 653 688 l 644 688 m 603 804 l 611 804 l 611 813 l 603 813 m 644 471 l 654 471 b 647 479 654 475 651 479 l 644 479 m 578 788 l 583 782 l 589 788 l 582 793 l 578 789 m 715 406 l 710 418 l 703 411 m 86 240 l 92 246 l 85 251 l 81 246 m 586 738 l 589 743 l 585 749 l 578 744 m 567 772 b 558 765 563 772 558 771 l 567 765 l 567 772 m 664 576 l 669 576 l 669 585 l 664 585 m 797 138 l 803 142 l 797 146 l 792 142 m 604 679 l 608 685 l 604 690 l 600 685 m 761 94 l 761 106 l 753 100 m 631 700 l 631 711 l 622 706 m 819 117 l 819 128 l 811 121 m 625 576 b 629 586 629 578 629 583 b 622 579 625 586 622 583 m 774 74 l 781 79 l 775 82 l 769 78 m 661 700 l 669 707 l 664 710 l 661 710 m 817 76 l 822 79 l 818 85 l 814 81 m 83 199 l 89 203 l 79 208 m 776 160 l 781 164 l 776 168 l 772 164 m 565 679 l 569 683 l 565 688 l 561 683 m 838 96 l 842 100 l 838 104 l 833 101 m 731 469 l 731 478 l 722 474 m 754 136 l 764 142 l 760 146 m 625 535 l 631 535 l 631 540 l 625 540 m 600 643 b 606 640 601 640 603 640 l 606 646 b 600 643 603 646 601 646 m 644 643 b 650 640 646 640 647 640 l 650 646 b 644 643 647 646 646 646 m 228 310 b 231 304 228 307 228 306 b 233 310 233 306 233 307 l 228 310 m 61 54 b 67 60 64 54 67 57 l 61 60 m 61 101 b 67 96 61 99 64 96 l 67 101 l 61 101 m 625 618 b 631 624 628 618 631 621 l 625 624 m 625 792 b 629 785 625 789 626 785 l 631 785 b 625 792 631 788 628 790 m 539 751 b 542 746 539 750 540 747 l 544 749 b 539 751 543 750 540 751 m 144 307 l 150 307 l 150 310 l 144 310 m 664 618 l 669 618 l 669 621 l 664 621 m 644 601 l 650 601 l 650 604 l 644 604 m 708 540 b 714 538 710 538 711 538 l 714 540 l 708 540 m 686 429 b 689 435 689 431 689 432 l 686 435 m 583 621 l 586 621 l 586 624 l 583 624 m 1033 913 l 1036 913 l 1036 915 l 1033 915 m 42 79 l 44 79 l 44 82 l 42 82 m 753 35 l 756 35 l 756 38 l 753 38 m 83 -44 b 82 -46 82 -44 82 -46 b 83 -47 82 -46 82 -47 b 85 -46 85 -47 85 -46 b 83 -44 85 -46 85 -44 m 758 225 b 757 224 757 225 757 224 b 758 222 757 224 757 222 b 760 224 760 222 760 224 b 758 225 760 224 760 225 m 50 38 b 49 39 50 39 49 39 b 47 38 49 39 47 39 b 49 36 47 36 49 36 b 50 38 49 36 50 36 m 689 603 b 688 601 688 603 688 601 b 689 600 688 601 688 600 b 690 601 690 600 690 601 b 689 603 690 601 690 603 m 1097 936 b 1096 935 1096 936 1096 935 b 1097 933 1096 935 1096 933 b 1099 935 1099 933 1099 935 b 1097 936 1099 935 1099 936 m 1097 931 b 1096 929 1096 931 1096 929 b 1097 928 1096 929 1096 928 b 1099 929 1099 928 1099 929 b 1097 931 1099 929 1099 931 m 778 206 b 776 204 776 206 776 204 b 778 203 776 204 776 203 b 779 204 779 203 779 204 b 778 206 779 204 779 206 m 106 272 b 104 271 104 272 104 271 b 106 269 104 271 104 269 b 107 271 107 269 107 271 b 106 272 107 271 107 272 m 606 725 b 604 724 604 725 604 724 b 606 722 604 724 604 722 b 607 724 607 722 607 724 b 606 725 607 724 607 725 m 978 851 b 976 853 978 853 976 853 b 975 851 976 853 975 853 b 976 850 975 850 976 850 b 978 851 976 850 978 850 m 1056 939 b 1054 938 1054 939 1054 938 b 1056 936 1054 938 1054 936 b 1057 938 1057 936 1057 938 b 1056 939 1057 938 1057 939 m 1014 890 l 1017 890 l 1014 893 m 644 557 l 647 560 l 644 560 m 647 768 l 647 771 l 644 771 m 1056 932 l 1058 932 l 1058 935 "},"O":{"ha":710,"x_min":0,"x_max":0,"o":"m 58 372 b 92 544 83 425 75 489 b 415 836 135 692 250 836 l 436 836 b 542 792 468 813 510 817 b 663 469 632 722 663 578 b 325 -17 663 282 550 -17 l 300 -17 b 217 11 275 -1 243 -3 b 58 346 111 67 58 235 m 214 351 b 336 31 214 269 215 31 b 508 381 467 31 508 275 l 508 583 b 392 792 508 651 481 792 b 214 351 235 792 214 463 m 551 394 b 578 422 564 394 578 410 l 574 431 b 547 408 567 432 551 414 l 547 403 m 136 522 l 161 546 l 154 553 l 131 528 m 492 78 l 500 86 l 489 97 l 481 89 m 189 179 b 199 164 189 174 192 164 l 200 164 l 206 172 b 192 179 206 179 196 179 l 189 179 m 135 158 b 126 143 126 158 126 150 l 129 143 b 142 150 133 143 142 144 l 135 158 m 610 411 l 619 421 l 614 431 l 606 428 l 606 421 m 615 372 l 625 381 l 615 389 l 606 381 m 504 767 b 517 778 510 767 515 772 l 510 783 l 500 774 m 467 56 l 478 67 l 469 72 l 458 64 m 199 539 l 206 546 l 193 556 l 186 549 m 550 225 l 558 233 l 550 242 l 542 233 m 614 453 l 622 463 l 614 469 l 606 460 m 113 369 l 122 379 l 114 386 l 106 378 m 506 226 b 518 239 515 226 518 229 l 506 239 m 564 465 b 574 456 565 461 569 456 l 575 456 l 578 464 l 569 472 l 564 465 m 574 372 l 578 379 l 569 389 l 561 381 m 196 500 b 204 511 203 500 204 504 b 189 503 199 511 189 510 m 531 344 b 524 333 525 344 524 338 l 538 333 b 531 344 538 338 536 344 m 449 39 l 456 49 l 447 56 l 442 47 m 571 333 l 581 339 l 572 347 l 564 340 m 153 372 l 154 372 l 161 382 l 156 389 l 147 378 m 593 353 l 600 360 l 592 369 l 586 360 m 136 353 l 144 361 l 136 367 l 128 361 m 614 542 l 622 547 l 614 556 l 606 547 m 551 350 l 558 358 l 553 367 l 544 357 m 596 394 l 603 401 l 594 408 l 586 403 m 614 331 l 622 338 l 613 344 l 606 339 m 529 206 l 539 213 l 532 219 l 522 211 m 153 119 l 154 119 b 158 125 157 119 158 122 l 158 128 l 153 136 l 147 129 m 521 121 b 533 129 528 121 533 121 l 528 136 m 592 517 l 597 524 b 585 532 597 532 592 532 m 190 583 l 204 583 b 199 594 204 588 203 594 l 197 594 m 176 450 b 171 439 172 450 171 443 l 182 439 b 176 450 182 443 181 450 m 574 550 b 568 539 569 550 568 543 l 579 539 b 574 550 579 543 578 550 m 574 206 l 581 211 l 576 219 l 567 211 m 532 292 l 539 297 l 532 306 l 525 299 m 529 747 l 536 754 l 529 761 l 522 753 m 156 497 l 164 504 l 156 511 l 150 506 m 217 61 l 222 68 l 214 75 l 208 68 m 531 372 l 539 379 l 531 386 l 525 379 m 510 728 l 517 735 l 508 742 l 503 735 m 154 331 l 161 338 l 153 344 l 147 338 m 551 186 l 561 194 l 553 200 l 547 193 m 178 308 l 183 315 l 176 322 l 169 317 m 510 186 l 517 193 l 511 200 l 503 192 m 197 81 l 206 89 l 199 94 l 192 88 m 510 100 l 517 107 l 508 114 l 503 108 m 483 756 b 496 746 483 750 492 747 b 489 758 496 750 494 758 l 483 756 m 113 250 l 119 257 l 115 264 l 106 256 m 594 311 l 600 318 l 592 325 l 586 319 m 233 81 l 242 81 l 242 92 l 233 92 m 129 268 b 142 275 135 268 142 268 l 135 281 m 464 111 l 463 101 b 472 108 467 101 472 103 b 467 114 472 111 469 114 m 176 367 b 171 354 171 367 171 358 b 181 361 175 354 181 356 l 176 367 m 93 408 b 88 396 88 408 88 400 b 97 403 92 396 97 397 l 93 408 m 529 542 b 535 554 535 542 535 550 b 525 547 531 554 525 553 m 572 300 b 565 290 568 300 565 294 b 578 297 571 290 578 290 l 572 300 m 153 206 b 158 213 157 206 158 210 b 153 219 158 215 157 219 l 150 213 m 113 292 l 119 296 l 119 297 l 114 303 l 106 296 m 181 154 b 171 144 174 154 171 151 l 181 144 l 181 154 m 233 710 b 243 719 240 710 243 713 l 233 719 m 154 167 l 161 169 b 149 179 158 175 156 179 m 133 186 l 142 192 l 135 197 l 128 193 m 217 603 l 222 608 l 217 617 l 211 608 m 531 458 l 536 464 l 531 472 l 525 464 m 593 683 l 597 690 l 592 697 l 586 690 m 196 206 l 200 213 l 194 219 l 189 213 m 551 433 l 558 440 l 553 447 l 547 440 m 240 42 l 247 47 l 240 53 l 233 47 m 154 417 l 161 422 l 154 428 l 147 422 m 133 436 l 139 443 l 133 450 l 128 443 m 156 247 l 161 254 l 156 261 l 150 254 m 135 225 l 142 231 l 135 239 l 131 232 m 590 228 l 597 236 l 590 242 l 586 235 m 322 -3 l 328 4 l 321 11 l 317 4 m 625 482 b 631 478 625 479 628 478 l 636 483 l 632 489 l 631 489 l 625 483 m 135 314 l 142 318 l 133 325 l 128 319 m 178 392 l 183 397 l 176 406 l 172 399 m 593 436 l 600 444 l 594 450 l 589 443 m 94 353 l 100 358 l 92 367 l 89 360 m 190 415 b 200 424 194 415 199 419 l 194 431 m 136 478 l 142 482 l 133 489 l 128 485 m 614 292 l 619 296 l 611 303 l 606 299 m 192 458 l 204 458 b 197 467 204 463 203 467 m 192 250 l 200 250 l 200 258 l 192 258 m 256 731 l 264 731 l 264 739 l 256 739 m 447 81 b 457 89 453 81 457 83 l 447 89 m 178 478 l 183 482 l 183 483 l 178 489 l 172 483 m 175 103 l 181 108 l 175 114 l 169 108 m 115 167 l 119 172 l 114 178 l 108 172 m 176 228 l 181 233 l 175 239 l 169 233 m 282 750 l 286 757 l 281 761 l 275 757 m 596 561 l 600 567 l 594 572 l 589 567 m 217 647 l 222 653 l 218 658 l 211 651 m 114 333 l 119 338 l 113 344 l 108 339 m 322 792 l 328 796 l 321 803 l 317 797 m 154 456 l 158 461 l 153 467 l 147 463 m 528 250 l 533 256 l 529 261 l 522 254 m 592 272 l 597 276 l 590 283 l 586 278 m 94 269 l 100 274 l 92 281 l 89 275 m 553 478 l 558 482 l 550 489 l 547 483 m 553 269 l 558 274 l 550 281 l 547 275 m 178 186 l 183 190 l 176 197 l 172 193 m 524 711 l 538 711 l 529 719 m 528 417 b 533 422 531 417 533 419 l 529 428 l 525 422 m 525 672 b 531 667 525 669 528 667 l 533 672 l 529 678 l 525 672 m 483 131 b 489 125 483 128 486 125 l 492 131 l 488 136 l 483 131 m 133 394 b 139 400 136 394 139 397 l 135 406 l 131 400 m 485 797 b 493 789 485 792 488 789 b 485 797 493 794 490 797 m 89 446 b 97 438 89 440 92 438 b 89 446 97 443 94 446 m 629 406 b 638 397 629 400 632 397 b 629 406 638 403 635 406 m 111 210 l 119 214 l 114 219 l 111 219 m 176 272 l 182 281 l 171 281 m 614 583 l 619 588 l 614 592 l 608 588 m 588 481 l 599 481 l 593 489 m 115 417 l 119 422 l 114 428 l 111 422 m 154 625 l 158 631 l 154 636 l 150 631 m 190 292 l 201 292 l 196 300 m 161 82 l 161 93 l 153 88 m 175 564 l 181 571 l 176 575 l 172 571 m 117 542 l 117 546 l 114 553 l 108 547 m 599 603 b 594 614 599 606 599 613 l 592 608 m 508 153 b 515 147 508 149 511 147 b 508 156 515 151 513 156 l 508 153 m 178 603 l 181 603 l 178 611 l 176 611 l 172 607 m 565 249 l 575 254 l 569 258 m 176 64 l 181 68 l 176 72 l 172 68 m 203 46 l 203 54 l 194 50 m 92 231 l 97 236 l 93 239 l 89 235 m 217 106 l 222 108 b 214 113 221 111 217 113 m 115 499 l 110 508 l 106 504 m 261 19 l 264 28 l 257 28 m 531 503 l 536 503 b 532 508 536 506 535 508 l 531 508 m 297 775 l 303 775 b 299 781 303 778 301 781 l 297 781 m 172 653 b 178 647 172 649 174 647 b 172 653 178 651 176 653 m 525 631 b 531 625 525 626 526 625 b 525 631 531 629 529 631 m 590 644 l 594 650 l 586 650 m 364 3 l 364 8 l 357 8 m 611 628 l 617 628 l 617 631 l 611 631 m 572 711 l 575 711 b 572 717 575 714 575 715 m 153 297 b 158 294 154 294 156 294 l 158 297 l 153 297 m 175 528 b 181 525 176 525 178 525 l 181 528 l 175 528 m 192 383 b 197 381 193 381 194 381 l 197 383 l 192 383 m 550 608 l 556 608 l 553 611 m 425 817 l 428 817 l 428 819 l 425 819 m 194 339 l 197 339 l 197 342 l 194 342 m 550 147 l 553 147 l 553 150 l 550 150 m 553 647 l 556 647 l 556 650 l 553 650 m 553 317 l 556 317 l 556 319 l 553 319 m 153 586 l 156 586 l 156 589 l 153 589 m 472 775 b 471 776 472 776 471 776 b 469 775 471 776 469 776 b 471 774 469 774 471 774 b 472 775 471 774 472 774 m 531 171 b 529 169 529 171 529 169 b 531 168 529 169 529 168 b 532 169 532 168 532 169 b 531 171 532 169 532 171 m 75 340 b 74 339 74 340 74 339 b 75 338 74 339 74 338 b 76 339 76 338 76 339 b 75 340 76 339 76 340 m 239 671 b 238 669 238 671 238 669 b 239 668 238 669 238 668 b 240 669 240 668 240 669 b 239 671 240 669 240 671 m 383 22 l 386 25 l 383 25 m 531 586 l 531 589 l 528 589 m 214 150 l 217 153 l 214 153 "},"Å’":{"ha":1044,"x_min":0,"x_max":0,"o":"m 328 -32 b 225 21 324 -22 231 8 l 226 29 l 218 24 b 67 288 121 24 67 210 l 67 360 l 69 363 b 481 810 132 571 217 810 b 664 721 553 810 614 769 b 881 811 694 721 793 811 b 1042 726 943 811 1015 788 b 913 579 1042 642 1006 579 l 892 579 l 878 590 b 933 715 879 636 933 665 l 933 735 b 882 765 924 758 906 765 b 733 528 769 765 733 617 b 858 421 733 454 789 421 b 949 432 889 421 918 432 l 961 432 l 964 426 b 694 124 961 396 694 299 b 790 21 694 63 726 21 b 1125 374 967 21 1061 239 l 1133 376 l 1150 368 l 1150 365 b 867 -4 1090 243 1018 40 b 783 -32 839 -12 807 -12 b 565 51 661 -32 626 51 b 386 -32 515 51 429 -6 l 328 -32 m 228 360 b 365 21 228 267 231 21 b 586 469 563 21 586 326 b 456 760 586 560 585 760 b 228 360 294 760 228 486 m 732 357 b 789 381 744 357 789 365 l 778 388 l 731 388 l 722 368 m 163 421 l 189 446 l 181 454 l 156 426 m 214 581 b 224 565 214 574 215 565 l 231 572 b 221 581 231 579 226 581 l 214 581 m 206 121 b 214 131 211 121 214 125 l 214 132 l 204 138 l 194 129 m 161 82 l 169 93 l 161 104 l 153 94 m 131 404 l 139 396 l 150 406 l 140 413 l 131 406 m 181 357 l 192 364 b 174 372 192 371 179 372 m 163 213 b 171 225 171 213 171 218 l 167 225 b 156 219 164 225 156 225 m 119 207 l 128 215 l 128 217 l 119 224 l 111 214 m 181 485 l 183 485 b 189 488 185 485 189 485 l 189 490 l 181 499 l 179 499 l 172 492 m 182 399 l 189 404 l 182 415 l 172 407 m 100 354 l 108 364 l 100 371 l 92 364 m 203 376 l 211 383 l 201 393 l 194 386 m 226 104 l 231 113 l 221 121 l 214 114 m 139 229 l 150 239 l 143 246 l 133 235 m 119 265 b 113 253 114 265 113 257 l 113 250 l 128 257 l 119 265 m 139 146 l 146 161 b 131 151 140 161 131 158 m 185 104 l 192 113 l 183 118 l 175 110 m 160 251 l 169 257 l 161 265 l 153 258 m 185 65 l 192 72 l 183 79 l 175 71 m 517 774 l 525 779 l 515 788 l 508 779 m 119 376 l 125 385 l 118 393 l 111 385 m 639 646 l 647 654 l 642 663 l 633 654 m 224 146 l 231 154 l 221 163 l 217 154 m 140 482 l 147 490 l 140 499 l 133 490 m 121 335 l 128 344 l 122 351 l 114 343 m 206 82 l 211 90 l 204 99 l 197 92 m 664 640 b 657 628 658 640 657 632 b 669 635 661 628 669 629 l 664 640 m 197 253 b 208 260 201 253 208 254 l 201 265 l 197 265 m 625 594 b 613 585 618 594 613 593 l 625 585 l 625 594 m 613 639 b 624 626 613 632 615 626 b 613 639 624 635 622 639 m 182 229 l 189 236 l 183 243 l 175 238 m 156 467 b 167 461 156 463 163 461 l 167 472 b 156 467 163 472 156 471 m 690 481 b 685 493 690 485 690 493 l 683 493 l 678 488 l 678 486 m 203 168 l 208 175 l 203 182 l 194 176 m 621 543 l 628 550 l 621 557 l 614 549 m 225 63 l 231 69 l 225 76 l 217 69 m 140 315 l 147 322 l 142 329 l 133 322 m 558 732 l 564 739 l 558 746 l 550 740 m 163 374 l 169 381 l 163 388 l 156 381 m 640 149 l 647 156 l 642 163 l 633 153 m 203 513 b 196 504 199 513 196 508 l 210 504 b 203 513 210 508 207 513 m 571 767 b 578 754 571 761 571 754 l 581 760 b 571 767 581 764 575 767 m 203 585 b 210 597 210 585 210 592 b 200 590 206 597 200 594 m 663 418 l 664 418 l 667 426 l 661 432 l 656 425 m 576 713 l 583 719 l 583 721 l 578 726 l 572 719 m 972 649 l 981 654 l 974 660 l 972 660 l 967 654 m 654 471 b 664 461 654 464 657 461 l 664 471 l 654 471 m 204 421 l 211 426 l 204 432 l 197 428 m 789 754 l 794 760 l 788 765 l 781 760 m 201 543 l 208 550 l 201 557 l 197 550 m 704 626 l 708 633 l 704 640 l 697 633 m 140 354 l 144 361 l 140 368 l 133 361 m 121 421 l 128 426 l 121 432 l 114 426 m 182 149 l 183 149 l 189 154 l 189 156 b 183 160 189 158 186 160 l 178 154 m 533 751 l 539 758 l 535 765 l 528 757 m 139 443 l 147 450 l 140 454 l 133 449 m 953 629 b 960 642 958 629 960 638 l 947 633 m 286 4 l 292 10 l 283 18 l 281 11 m 758 733 l 769 738 b 761 743 768 740 764 743 l 758 743 m 631 574 b 636 568 631 571 633 568 l 642 574 l 639 579 l 631 574 m 197 340 l 206 340 l 206 349 l 197 349 m 572 129 l 582 129 b 575 138 582 133 579 138 l 572 138 m 156 174 b 165 169 157 169 163 169 b 161 179 165 172 165 178 l 156 174 m 678 279 b 688 275 679 275 685 275 b 683 285 688 278 688 283 l 678 279 m 219 654 b 229 650 221 650 226 650 b 225 660 229 653 229 658 l 219 654 m 208 222 b 197 215 204 222 197 221 l 208 215 l 208 222 m 643 396 l 649 408 l 636 403 m 121 460 l 126 472 l 114 467 m 204 460 l 210 472 l 197 467 m 286 710 l 292 717 l 286 721 l 281 717 m 597 649 l 603 656 l 597 660 l 592 656 m 621 671 l 625 676 l 621 682 l 614 676 m 994 713 l 1000 718 l 994 724 l 989 718 m 599 149 l 606 154 l 600 160 l 594 153 m 100 399 l 106 403 l 99 410 l 94 404 m 99 232 l 106 239 l 101 243 l 94 236 m 181 563 l 189 569 l 183 574 l 178 567 m 182 318 l 189 321 l 182 326 l 175 321 m 200 49 b 206 43 200 46 203 43 l 208 49 l 204 54 l 200 49 m 181 193 b 186 199 183 193 186 196 l 181 201 l 175 197 m 196 297 l 208 301 l 201 307 m 139 110 b 146 118 144 110 146 114 l 139 118 m 365 757 l 376 757 l 371 765 m 625 500 l 625 511 l 617 506 m 599 565 l 603 572 l 599 576 l 594 572 m 158 299 l 167 299 l 167 304 l 158 304 m 639 25 l 647 31 l 642 35 l 639 35 m 244 88 l 247 93 l 244 99 l 239 93 m 314 733 l 310 743 l 303 738 m 971 690 l 978 696 l 972 699 l 967 694 m 243 46 l 247 51 l 244 57 l 239 50 m 593 699 b 600 690 593 694 596 690 l 600 699 l 593 699 m 968 743 b 975 735 968 739 971 735 l 975 743 l 968 743 m 135 282 b 142 274 135 278 138 274 l 142 282 l 135 282 m 138 532 b 144 524 138 528 140 524 l 144 532 l 138 532 m 686 690 l 686 700 l 678 696 m 281 676 b 289 672 282 674 286 672 b 285 679 289 675 288 679 l 281 676 m 661 513 b 657 504 658 511 657 507 b 664 508 660 504 664 506 l 661 513 m 136 197 b 143 193 136 194 140 193 b 139 201 143 196 142 200 l 136 197 m 614 722 b 618 715 614 719 615 715 l 622 718 b 614 722 621 721 617 722 m 158 508 b 165 504 158 506 163 504 b 161 513 165 507 164 511 l 158 508 m 265 651 l 269 656 l 265 660 l 261 656 m 703 463 l 707 471 l 699 471 m 706 672 l 706 681 l 697 676 m 224 607 l 228 611 l 225 615 l 219 611 m 497 43 l 500 49 l 496 51 l 492 49 m 660 46 l 664 49 l 658 54 l 656 51 m 178 276 l 183 276 l 183 282 l 178 282 m 122 171 l 122 179 l 115 179 m 100 318 l 100 321 b 97 326 100 324 99 325 b 94 322 96 325 94 324 m 122 307 b 119 301 119 306 119 304 l 125 301 b 122 307 125 304 125 306 m 469 782 b 475 776 469 779 472 776 l 475 782 l 469 782 m 953 681 b 957 674 953 678 954 674 l 958 674 b 953 681 958 676 956 679 m 681 571 b 683 565 681 569 682 567 l 686 568 b 681 571 685 569 682 571 m 658 257 b 661 263 660 258 661 261 b 656 260 660 263 657 261 m 597 735 l 600 735 l 600 740 l 597 740 m 411 4 l 414 4 l 414 10 l 411 10 m 931 776 l 933 776 l 933 782 l 931 782 m 303 696 l 308 696 l 308 699 l 303 699 m 619 424 l 622 426 l 619 429 l 617 426 m 225 199 b 222 193 222 197 222 196 l 225 193 l 225 199 m 950 757 b 956 760 953 757 954 757 l 950 760 m 703 257 l 706 260 l 700 260 m 658 551 l 661 551 l 661 554 l 658 554 m 244 674 l 244 679 l 242 676 m 664 10 l 667 10 l 667 13 l 664 13 m 428 779 l 433 779 l 433 782 m 722 735 l 725 735 l 725 738 l 722 738 m 658 676 l 661 676 l 661 679 l 658 679 m 992 674 l 994 674 l 994 676 l 992 676 m 764 -10 b 763 -11 763 -10 763 -11 b 764 -12 763 -11 763 -12 b 765 -11 765 -12 765 -11 b 764 -10 765 -11 765 -10 m 325 721 b 324 722 325 722 324 722 b 322 721 324 722 322 722 b 324 719 322 719 324 719 b 325 721 324 719 325 719 m 325 8 b 324 7 324 8 324 7 b 325 6 324 7 324 6 b 326 7 326 6 326 7 b 325 8 326 7 326 8 m 511 71 b 510 69 510 71 510 69 b 511 68 510 69 510 68 b 513 69 513 68 513 69 b 511 71 513 69 513 71 m 681 199 b 679 197 679 199 679 197 b 681 196 679 197 679 196 b 682 197 682 196 682 197 b 681 199 682 197 682 199 m 475 31 b 474 29 474 31 474 29 b 475 28 474 29 474 28 b 476 29 476 28 476 29 b 475 31 476 29 476 31 m 100 279 b 99 281 100 281 99 281 b 97 279 99 281 97 281 b 99 278 97 278 99 278 b 100 279 99 278 100 278 m 683 29 b 682 31 683 31 682 31 b 681 29 682 31 681 31 b 682 28 681 28 682 28 b 683 29 682 28 683 28 m 600 615 b 597 611 599 614 597 613 l 597 610 b 600 614 599 611 600 613 l 600 615 m 972 615 b 971 614 971 615 971 614 b 972 613 971 614 971 613 b 974 614 974 613 974 614 b 972 615 974 614 974 615 m 706 590 b 704 592 706 592 704 592 b 703 590 704 592 703 592 b 704 589 703 589 704 589 b 706 590 704 589 706 589 m 703 425 b 701 424 701 425 701 424 b 703 422 701 424 701 422 b 704 424 704 422 704 424 b 703 425 704 424 704 425 m 222 486 b 221 485 221 486 221 485 b 222 483 221 485 221 483 b 224 485 224 483 224 485 b 222 486 224 485 224 486 m 219 489 b 218 488 218 489 218 488 b 219 486 218 488 218 486 b 221 488 221 486 221 488 b 219 489 221 488 221 489 m 264 696 l 267 696 l 267 699 m 1014 699 l 1017 699 l 1017 701 m 556 110 l 558 113 l 556 113 m 636 363 l 639 365 l 636 365 m 242 638 l 244 638 l 244 640 "},"P":{"ha":590,"x_min":0,"x_max":0,"o":"m 69 401 b 94 846 69 481 46 804 b 231 792 132 846 231 847 b 215 628 231 739 221 681 l 222 621 l 225 624 b 417 835 261 704 311 835 b 569 621 528 835 569 714 l 569 593 b 542 488 554 560 556 521 b 194 246 482 346 347 253 b 169 138 169 226 169 167 b 172 15 169 97 176 54 l 153 -4 l 111 -4 b 53 68 83 15 53 28 l 53 185 b 69 401 53 257 69 329 m 189 307 b 194 288 189 303 193 292 b 433 644 372 288 433 497 b 374 771 433 683 429 771 b 189 307 263 771 189 397 m 114 185 b 139 214 126 186 139 201 l 133 221 l 106 194 m 174 665 b 183 681 182 665 183 674 l 176 681 b 167 672 171 681 167 679 m 113 643 l 122 653 l 114 663 l 103 654 m 175 496 l 183 506 l 175 515 l 164 507 m 193 518 b 203 533 201 518 203 526 l 200 533 b 186 526 196 533 186 533 m 154 474 l 167 485 l 157 493 l 147 483 m 128 47 b 142 39 128 39 135 39 b 132 54 142 46 140 54 l 128 47 m 133 535 l 142 544 l 133 554 l 125 544 m 135 749 l 147 758 l 138 765 l 128 757 m 94 596 b 86 581 88 596 86 586 b 100 589 93 581 100 581 l 94 596 m 485 685 l 492 688 l 492 694 l 488 704 l 481 701 l 481 694 m 138 665 l 144 665 b 133 679 144 672 142 679 l 128 672 m 126 133 b 133 124 126 129 128 124 l 139 131 b 126 139 139 139 133 139 m 104 74 b 114 60 104 68 107 60 l 117 63 l 118 74 l 104 74 m 113 560 b 121 572 119 560 121 567 l 118 572 b 106 565 114 572 106 572 m 151 393 l 161 401 l 153 410 l 144 401 m 194 560 l 203 569 l 194 576 l 186 569 m 113 726 l 122 736 l 114 743 l 106 735 m 151 435 l 161 443 l 153 451 l 144 442 m 354 324 b 367 311 354 314 357 311 l 367 324 l 354 324 m 150 561 b 163 574 160 561 163 564 l 150 574 m 175 579 l 181 588 l 175 596 b 167 588 171 596 167 592 m 92 346 b 85 333 86 346 85 338 b 100 340 90 333 97 335 l 92 346 m 83 457 b 94 450 83 451 90 450 l 94 464 b 83 457 90 464 83 463 m 481 525 b 493 519 481 519 489 519 b 488 532 493 524 493 532 l 486 532 l 481 526 m 488 563 b 497 568 492 563 496 564 b 488 574 496 572 492 574 l 481 568 m 153 643 l 154 643 l 158 651 l 153 660 l 144 651 m 135 499 l 142 507 l 136 515 l 128 508 m 174 749 l 181 757 l 175 765 l 167 757 m 92 204 l 100 213 l 94 221 l 86 213 m 174 457 l 181 464 l 174 474 l 167 465 m 110 393 l 119 401 l 111 410 l 106 401 m 156 771 l 164 776 l 154 785 l 147 776 m 111 143 l 119 151 l 113 160 l 106 151 m 174 621 l 181 628 l 172 638 l 167 628 m 93 165 l 100 172 l 92 182 l 86 174 m 154 99 l 161 107 l 153 115 l 147 108 m 111 771 l 119 779 l 114 788 l 106 778 m 465 749 l 472 756 l 464 765 l 458 758 m 113 18 l 119 28 l 114 35 l 106 25 m 404 351 l 411 361 l 406 368 l 397 358 m 447 765 l 453 774 l 444 782 l 439 776 m 175 413 l 181 419 l 172 429 l 167 422 m 467 551 b 460 539 461 551 460 543 b 472 546 464 539 472 540 l 467 551 m 194 490 b 188 478 189 490 188 482 b 200 485 192 478 200 479 l 194 490 m 111 615 b 104 603 106 615 104 607 b 117 610 108 603 117 604 l 111 615 m 150 238 b 163 231 150 232 158 231 b 156 243 163 235 161 243 l 150 238 m 214 540 l 219 547 b 207 556 219 556 214 556 m 71 146 l 78 151 l 69 160 l 68 160 l 64 153 m 404 396 l 414 404 l 411 407 l 399 408 m 89 540 l 99 540 b 92 551 99 546 99 551 l 89 551 m 90 263 b 85 251 86 263 85 256 l 96 251 b 90 263 96 256 94 263 m 526 740 b 521 729 522 740 521 733 l 532 729 b 526 740 532 733 531 740 m 449 726 l 456 735 l 449 740 l 442 732 m 90 290 l 100 296 l 92 304 l 86 296 m 106 282 l 104 274 l 115 274 b 108 285 115 278 114 285 m 153 518 l 161 526 l 154 532 l 147 525 m 126 790 l 138 790 l 132 807 m 468 415 l 475 419 l 465 429 l 461 422 m 544 629 b 554 622 544 624 550 622 b 549 635 554 626 554 635 l 544 629 m 508 718 b 501 708 503 718 501 713 b 514 714 506 708 514 708 l 508 718 m 196 657 b 190 644 190 657 190 649 b 200 651 194 644 200 646 l 196 657 m 113 226 l 117 233 l 110 243 l 106 236 m 89 415 b 96 428 96 415 96 422 b 86 421 92 428 86 425 m 93 82 l 97 89 l 97 90 l 92 96 l 86 89 m 503 458 b 513 468 510 458 513 461 l 503 468 m 383 332 l 389 339 l 383 346 l 378 339 m 92 121 l 97 128 l 92 135 l 86 128 m 486 438 l 494 442 l 486 449 l 481 443 m 133 413 l 139 419 l 133 426 l 128 419 m 132 582 l 139 589 l 133 596 l 128 589 m 176 788 l 181 794 l 175 801 l 169 794 m 113 688 l 117 694 l 111 701 l 106 694 m 507 665 l 514 672 l 507 679 l 503 672 m 468 707 l 475 713 l 467 718 l 461 713 m 94 374 b 100 378 97 374 100 375 l 100 379 l 94 385 l 93 385 l 89 379 m 133 332 l 142 339 l 135 343 l 128 338 m 425 376 l 431 382 l 424 390 l 419 383 m 447 438 l 453 443 l 446 451 l 442 444 m 204 728 b 197 740 204 732 203 740 l 192 736 m 115 435 l 119 440 l 113 446 l 106 442 m 115 521 l 121 531 b 108 525 117 531 108 531 m 192 774 l 200 774 l 200 782 l 192 782 m 128 710 l 136 710 l 136 718 l 128 718 m 157 268 l 161 275 l 156 279 l 150 274 m 107 103 l 119 108 l 113 115 m 531 649 l 536 654 l 531 660 l 525 654 m 174 707 l 181 713 l 175 718 l 169 713 m 113 479 l 119 485 l 113 490 l 108 485 m 464 624 l 469 628 l 463 635 l 458 629 m 446 521 l 453 528 l 447 532 l 442 526 m 468 790 l 472 794 l 467 801 l 461 796 m 467 457 l 472 463 l 468 468 l 461 461 m 154 688 l 158 694 l 154 701 l 150 694 m 153 21 b 158 26 156 21 158 24 l 154 32 l 150 26 m 133 454 l 139 460 b 129 467 136 463 133 465 m 89 43 b 96 51 94 43 96 47 l 89 51 m 190 688 l 201 688 l 194 696 m 126 626 l 138 626 l 132 635 m 126 251 l 138 251 l 132 260 m 418 793 l 429 793 l 424 801 m 107 815 l 118 815 l 113 824 m 460 499 l 471 499 l 465 507 m 149 65 l 160 65 l 154 74 m 126 82 l 138 82 l 132 90 m 443 399 l 454 399 l 447 407 m 469 667 l 469 678 l 461 671 m 531 521 l 536 525 l 531 529 l 525 525 m 382 382 b 386 374 382 379 383 375 l 389 378 b 382 382 389 381 385 382 m 111 324 b 107 315 108 322 107 318 b 114 319 110 315 114 317 l 111 324 m 379 794 l 389 799 l 385 804 m 69 104 l 75 108 l 71 113 l 67 108 m 174 376 l 178 381 l 174 385 l 169 381 m 90 667 l 100 672 l 96 676 m 126 372 l 136 378 l 132 382 m 528 688 l 533 688 l 533 693 l 528 693 m 92 626 l 94 635 l 88 635 m 447 807 l 447 815 l 440 815 m 483 488 b 489 482 483 485 486 482 l 489 488 l 483 488 m 342 296 l 342 304 l 336 300 m 446 696 b 453 690 447 693 450 690 l 453 692 b 446 696 453 694 449 696 m 486 774 l 489 774 l 489 779 l 486 779 m 131 296 l 136 296 l 136 299 l 131 299 m 69 193 b 72 188 69 190 69 189 l 72 193 l 69 193 m 197 610 b 192 607 194 610 193 610 l 197 607 l 197 610 m 528 607 l 531 607 l 531 610 l 528 610 m 153 815 l 156 821 l 153 821 m 481 735 l 483 735 l 483 738 l 481 738 m 506 754 l 508 754 l 508 757 l 506 757 m 131 175 b 129 174 129 175 129 174 b 131 172 129 174 129 172 b 132 174 132 172 132 174 b 131 175 132 174 132 175 m 157 151 b 153 149 156 151 154 150 l 154 149 b 158 151 156 149 157 150 m 156 194 b 154 193 154 194 154 193 b 156 192 154 193 154 192 b 157 193 157 192 157 193 b 156 194 157 193 157 194 m 403 818 b 407 815 404 817 406 815 l 408 815 b 404 818 407 817 406 818 l 403 818 m 175 551 b 174 550 174 551 174 550 b 175 549 174 550 174 549 b 176 550 176 549 176 550 b 175 551 176 550 176 551 m 153 156 b 151 154 151 156 151 154 b 153 153 151 154 151 153 b 154 154 154 153 154 154 b 153 156 154 154 154 156 m 97 754 l 97 757 l 94 757 m 153 607 l 156 610 l 153 610 m 133 171 l 136 171 l 136 174 "},"Q":{"ha":718,"x_min":0,"x_max":0,"o":"m 779 -321 b 521 -106 674 -321 576 -172 b 68 350 379 64 68 -147 b 68 386 68 361 67 375 b 107 504 72 421 94 471 b 447 847 163 675 240 847 b 682 494 622 847 682 636 b 549 83 682 360 640 186 b 446 -7 526 58 446 25 b 532 -42 446 -21 519 -36 b 690 -156 585 -65 649 -115 l 690 -157 l 685 -168 l 696 -174 l 696 -164 b 876 -272 751 -200 826 -232 b 779 -321 872 -300 803 -321 m 231 344 b 338 17 231 274 240 17 b 524 546 522 17 524 417 b 414 794 524 621 522 794 b 231 344 254 794 231 458 m 532 699 b 547 689 532 690 540 689 b 539 703 547 696 547 703 l 532 699 m 582 397 b 590 406 586 397 590 401 l 583 414 l 574 408 m 707 -274 b 718 -279 707 -279 715 -279 l 721 -279 l 721 -265 b 707 -274 717 -265 707 -268 m 133 538 b 119 524 122 538 119 535 b 133 538 131 524 133 526 m 528 807 b 514 793 517 807 514 804 b 528 807 525 793 528 796 m 649 -175 l 657 -165 l 650 -158 l 640 -165 m 101 378 l 110 386 l 101 394 l 93 388 m 563 378 l 564 378 b 569 390 569 378 569 386 b 557 385 565 390 557 390 l 557 383 m 206 561 l 213 569 l 207 578 l 199 569 m 542 772 l 551 779 l 542 786 l 535 779 m 692 -214 l 701 -207 l 692 -200 l 685 -206 m 168 147 b 175 160 174 147 175 156 b 163 153 171 160 163 158 m 122 413 b 129 400 122 408 124 400 l 135 406 b 122 413 135 411 126 413 m 688 -257 b 697 -244 696 -257 697 -251 l 688 -244 m 526 710 l 526 724 b 515 718 522 724 515 722 l 515 717 m 644 -203 b 650 -214 644 -207 646 -214 b 656 -203 654 -214 656 -207 l 644 -203 m 672 -236 l 674 -236 l 679 -231 l 679 -229 b 667 -224 679 -224 671 -224 m 665 -189 l 671 -194 l 672 -194 b 678 -182 678 -194 678 -186 l 665 -187 m 518 750 l 526 757 l 519 764 l 513 757 m 628 336 l 635 344 l 628 350 l 621 344 m 204 525 l 207 522 b 214 533 213 522 214 529 l 203 533 m 604 317 l 617 317 b 608 325 617 322 614 325 l 604 325 m 186 544 l 196 550 l 189 556 l 179 549 m 203 618 b 210 608 203 614 204 608 l 215 613 b 203 618 215 618 207 618 m 599 428 b 608 421 599 422 604 421 b 603 433 608 425 608 433 l 599 428 m 138 428 b 143 422 138 425 140 422 b 150 432 149 422 150 428 l 140 431 l 138 428 m 140 554 b 150 546 140 549 144 546 b 144 558 150 550 150 558 l 140 554 m 454 821 b 463 813 454 815 457 813 l 463 826 l 454 821 m 186 378 l 188 378 l 193 383 l 186 389 l 179 385 m 604 669 l 610 678 l 604 683 l 599 678 l 599 676 m 597 553 b 607 543 597 546 600 543 l 607 553 l 597 553 m 593 307 b 583 297 586 307 583 304 l 593 297 l 593 307 m 733 -258 l 742 -246 b 729 -253 738 -246 729 -247 m 188 586 l 193 592 l 186 600 l 182 594 m 172 524 b 167 536 172 528 172 536 l 163 529 m 233 585 b 228 597 233 589 233 597 l 224 590 m 249 692 l 250 692 l 257 697 l 253 703 l 251 703 l 246 697 m 140 214 l 150 214 b 143 222 150 218 147 222 l 140 222 m 499 775 b 506 785 504 775 506 781 b 496 779 503 785 496 783 m 140 469 b 146 464 140 467 143 464 l 151 467 b 146 472 151 469 149 472 l 140 469 m 146 253 l 151 258 l 146 264 l 140 258 m 582 650 l 588 656 l 582 661 l 576 656 m 544 650 l 549 656 l 543 661 l 538 656 m 186 461 l 193 467 l 188 472 l 182 467 m 582 531 b 588 525 582 528 585 525 l 590 532 l 586 536 l 582 531 m 142 514 b 150 506 142 508 144 506 b 142 514 150 511 147 514 m 226 631 b 233 639 232 631 233 635 l 226 639 m 140 296 b 149 303 144 296 149 297 l 140 303 m 629 -150 l 635 -146 l 629 -142 l 624 -146 m 604 628 l 610 632 l 604 636 l 599 632 m 561 672 l 565 678 l 561 683 l 557 678 m 181 131 l 192 131 l 186 139 m 271 714 l 276 718 l 271 722 l 265 718 m 549 568 l 549 579 l 540 574 m 756 -275 l 761 -267 l 750 -267 m 628 -192 l 633 -183 l 622 -183 m 186 169 l 192 178 l 181 178 m 129 440 l 129 451 l 121 446 m 163 451 b 168 444 163 447 164 444 l 171 444 b 163 451 171 449 167 451 m 206 153 b 210 160 208 153 210 157 b 201 156 207 160 203 158 m 185 632 b 192 628 185 629 189 628 b 188 636 192 631 190 635 l 185 632 m 171 610 l 171 618 l 163 614 m 633 296 l 628 306 l 624 301 m 121 278 l 126 278 l 126 283 l 121 283 m 249 653 l 254 653 l 254 658 l 249 658 m 538 736 l 543 736 b 539 742 543 739 542 742 l 538 742 m 771 -253 l 776 -253 b 772 -247 776 -250 775 -247 l 771 -247 m 604 472 b 601 467 601 471 601 469 l 607 467 b 604 472 607 469 607 471 m 210 197 b 207 192 207 196 207 194 l 213 192 b 210 197 213 194 213 196 m 185 422 b 190 428 188 422 190 425 l 185 428 m 143 131 b 149 136 146 131 149 133 l 143 136 m 601 506 b 607 511 604 506 607 508 l 601 511 m 143 172 b 149 178 146 172 149 175 l 143 178 m 604 283 b 610 278 604 279 606 278 b 604 283 610 282 608 283 m 226 89 b 232 92 229 89 231 89 b 228 94 231 93 229 94 l 226 94 m 710 -231 b 715 -228 713 -231 714 -231 b 711 -225 714 -226 713 -225 l 710 -225 m 204 489 b 210 486 206 488 208 486 b 207 492 210 488 208 490 l 204 489 m 560 633 l 563 633 l 563 639 l 560 639 m 643 383 l 649 383 l 649 386 l 643 386 m 188 50 l 190 53 l 188 56 l 185 53 m 568 275 l 571 281 l 569 281 b 565 278 568 281 567 279 m 143 381 b 149 383 146 381 147 381 l 143 383 m 601 381 b 604 386 604 382 604 383 l 601 386 m 710 -192 l 713 -192 l 710 -186 m 585 214 l 590 214 l 588 217 m 207 236 l 210 236 l 210 239 l 207 239 m 588 -108 l 590 -106 l 585 -106 m 571 199 b 569 197 569 199 569 197 b 571 196 569 197 569 196 b 572 197 572 196 572 197 b 571 199 572 197 572 199 m 207 447 b 206 446 206 447 206 446 b 207 444 206 446 206 444 b 208 446 208 444 208 446 b 207 447 208 446 208 447 m 168 572 b 167 574 168 574 167 574 b 165 572 167 574 165 574 b 167 571 165 571 167 571 b 168 572 167 571 168 571 m 207 656 b 206 657 207 657 206 657 b 204 656 206 657 204 657 b 206 654 204 654 206 654 b 207 656 206 654 207 654 m 126 486 b 125 488 126 488 125 488 b 124 486 125 488 124 488 b 125 485 124 485 125 485 b 126 486 125 485 126 485 m 590 258 b 589 260 590 260 589 260 b 588 258 589 260 588 260 b 589 257 588 257 589 257 b 590 258 589 257 590 257 m 210 407 b 208 406 208 407 208 406 b 210 404 208 406 208 404 b 211 406 211 404 211 406 b 210 407 211 406 211 407 m 796 -271 b 794 -272 794 -271 794 -272 b 796 -274 794 -272 794 -274 b 797 -272 797 -274 797 -272 b 796 -271 797 -272 797 -271 m 210 654 b 208 653 208 654 208 653 b 210 651 208 653 208 651 b 211 653 211 651 211 653 b 210 654 211 653 211 654 m 249 28 l 251 28 l 249 31 m 560 506 l 563 506 l 560 508 "},"R":{"ha":614,"x_min":0,"x_max":0,"o":"m 233 303 b 183 244 201 303 183 275 b 167 3 183 211 199 3 l 103 3 b 58 69 71 3 69 49 l 58 122 l 61 125 b 58 219 56 132 58 207 b 83 703 58 378 74 544 b 93 821 85 743 88 782 b 103 847 94 824 97 847 l 147 847 b 239 782 183 825 239 842 b 225 626 239 729 225 679 l 225 603 l 228 600 l 233 603 b 425 831 264 689 315 831 b 578 644 526 831 578 735 b 356 333 578 472 479 418 l 347 325 b 458 261 371 313 444 276 b 606 -42 535 181 517 44 b 531 -81 585 -64 549 -60 l 492 -81 b 406 -6 468 -46 429 -53 b 233 303 353 97 407 303 m 208 342 l 224 340 b 444 669 381 340 444 542 b 390 767 444 706 439 767 b 289 658 339 767 304 700 b 203 418 282 640 203 421 l 203 347 m 121 181 b 150 211 132 181 150 200 l 143 217 l 114 192 m 143 744 l 158 757 l 147 764 l 136 753 m 122 639 l 133 653 l 122 658 l 114 649 m 114 232 b 129 222 114 224 122 222 l 129 225 b 122 239 129 229 129 239 l 114 232 m 124 722 l 133 732 l 124 739 l 114 731 m 104 200 l 111 210 l 101 219 l 94 210 m 186 494 l 192 504 l 185 514 l 175 504 m 143 531 l 153 540 l 143 550 l 136 542 m 164 472 l 175 482 l 167 489 l 156 481 m 160 431 l 172 440 l 163 447 l 153 439 m 349 283 l 361 293 l 351 300 l 342 292 m 165 639 l 172 649 l 161 658 l 156 650 m 171 699 b 157 685 160 699 157 696 b 171 699 168 685 171 688 m 117 693 b 129 685 117 685 122 685 l 129 690 b 122 700 129 694 128 700 l 117 693 m 489 564 l 492 558 l 507 558 b 496 569 507 564 501 568 l 489 565 m 468 7 b 476 -6 468 1 469 -6 l 483 1 b 472 7 483 7 475 7 l 468 7 m 99 331 b 110 343 106 331 110 336 l 104 343 b 94 336 100 343 94 342 m 146 661 l 153 669 l 144 678 l 136 669 m 121 767 l 131 774 l 122 783 l 114 774 m 103 575 l 111 582 l 103 592 l 94 583 m 185 575 l 192 583 l 185 592 l 175 583 m 449 449 b 458 433 449 443 451 433 l 461 440 b 449 449 461 449 456 449 m 183 408 l 192 417 l 182 425 l 175 418 m 206 556 l 214 564 l 204 572 l 197 565 m 121 139 l 131 149 l 124 156 l 114 147 m 182 661 l 192 671 l 183 678 l 175 668 m 392 203 l 400 211 l 390 219 l 383 214 m 185 617 l 192 625 l 182 633 l 175 626 m 122 389 l 128 399 l 119 408 l 114 399 m 142 786 l 150 796 l 142 806 l 136 796 m 125 56 l 131 63 l 121 72 l 114 65 m 94 542 b 106 535 94 536 101 535 l 106 549 b 94 542 101 549 94 547 m 94 419 b 106 413 94 414 101 413 l 106 426 b 94 419 101 426 94 425 m 199 738 b 208 725 200 733 203 725 l 214 731 b 201 738 214 736 206 738 l 199 738 m 142 578 l 150 586 l 142 594 l 136 589 l 136 588 m 460 -28 l 464 -19 l 457 -11 l 450 -21 m 163 97 l 169 106 l 165 114 l 156 107 m 497 683 l 503 692 l 496 700 l 489 692 m 456 764 l 464 772 l 456 781 l 450 774 m 121 556 l 131 563 l 121 569 l 114 564 m 144 408 l 150 418 l 144 425 l 136 417 m 433 78 l 442 86 l 433 94 l 428 86 m 119 597 l 128 606 l 122 614 l 114 606 m 164 517 l 169 524 l 163 531 b 156 524 158 531 156 528 l 156 522 m 79 142 l 86 150 l 78 158 l 72 150 m 144 497 l 153 503 l 143 511 l 136 503 m 163 392 l 172 400 l 163 406 l 156 400 m 144 328 l 153 335 l 143 342 l 136 336 m 167 767 l 175 772 l 165 781 l 158 774 m 104 164 l 111 171 l 101 178 l 94 172 m 144 119 l 150 128 l 142 136 l 136 129 m 101 369 b 110 382 108 369 110 376 b 97 375 106 382 97 381 m 474 533 l 483 544 l 476 550 l 469 540 m 164 228 b 171 240 169 228 171 236 b 158 233 167 240 158 239 m 469 794 b 482 788 469 789 478 788 b 475 800 482 792 481 800 l 469 794 m 183 456 b 190 468 189 456 190 464 b 178 461 186 468 178 467 m 158 272 b 171 265 158 267 167 265 b 164 278 171 269 169 278 l 158 272 m 533 650 l 539 644 l 547 650 l 540 658 l 533 651 m 497 -25 l 503 -19 l 503 -18 l 497 -11 l 489 -17 m 178 708 l 183 703 l 192 711 l 186 717 l 178 710 m 206 517 l 211 525 l 206 531 l 197 524 m 103 286 l 108 294 l 103 300 l 94 293 m 121 97 l 128 104 l 121 111 l 114 107 m 415 228 l 422 235 l 417 242 l 408 235 m 417 392 l 422 400 l 415 406 l 408 400 m 517 661 l 525 669 l 517 675 l 511 669 m 125 517 l 131 522 l 124 531 l 117 522 m 101 119 l 108 125 l 101 133 l 94 125 m 471 464 b 478 453 471 460 472 453 l 481 456 l 482 464 l 471 464 m 94 246 l 106 253 l 106 254 b 99 258 106 257 101 258 l 94 258 m 121 269 l 128 275 l 119 283 l 114 276 m 476 747 l 483 753 l 475 761 l 469 754 m 183 747 l 192 756 l 185 761 l 178 754 m 143 36 l 150 43 l 142 50 l 136 44 m 119 17 l 128 24 l 121 31 l 114 22 m 183 786 l 192 794 l 185 800 l 178 792 m 428 246 b 439 256 435 246 439 249 l 428 256 m 100 447 l 106 457 l 101 464 l 94 454 m 218 551 b 225 542 218 547 219 542 b 231 547 228 542 231 544 l 228 550 l 218 551 m 119 811 l 129 810 b 122 819 129 814 128 819 b 117 814 119 819 117 817 m 136 628 b 146 621 136 622 142 621 l 144 631 l 142 633 b 136 628 139 633 136 631 m 94 43 b 100 39 94 40 97 39 l 106 44 b 101 50 106 47 104 50 l 100 50 l 94 44 m 497 517 l 503 522 l 503 524 l 497 531 l 492 525 m 122 475 l 128 482 l 128 483 l 122 489 l 117 483 m 103 747 l 108 756 l 103 761 l 97 756 l 97 754 m 157 28 b 167 18 157 21 160 18 l 167 28 l 157 28 m 469 621 b 481 626 474 621 481 622 l 474 631 l 469 631 m 165 561 l 172 567 l 165 572 l 158 567 m 538 725 l 544 732 l 538 736 l 531 731 m 476 -44 l 483 -39 l 475 -33 l 469 -39 m 438 -3 l 444 0 l 438 8 l 431 1 m 456 517 l 464 524 l 456 528 l 450 522 m 203 475 l 211 481 l 203 486 l 197 481 m 517 706 l 518 706 l 522 711 l 517 717 b 511 713 514 717 511 715 l 511 711 m 124 433 l 131 438 l 122 444 l 117 439 m 435 786 l 439 793 l 433 800 l 428 794 m 100 622 l 106 629 l 99 636 l 94 631 m 476 706 l 483 710 l 475 717 l 469 713 m 203 642 l 211 649 l 206 653 l 197 647 m 107 664 l 111 669 b 106 675 111 672 108 675 l 100 669 m 103 81 l 106 86 l 100 92 b 94 86 97 92 94 89 m 139 456 l 149 456 b 142 464 149 460 146 464 l 139 464 m 411 265 b 419 275 417 265 419 269 l 411 275 m 206 683 l 211 689 l 204 694 l 200 688 m 475 494 l 481 500 l 475 506 l 469 500 m 206 769 l 211 775 l 204 781 l 200 775 m 142 247 l 147 253 l 140 258 l 136 253 m 475 664 l 481 669 l 475 675 l 469 668 m 558 622 l 564 626 l 560 633 l 553 626 m 331 350 l 336 356 l 331 361 l 325 356 m 433 122 l 439 126 l 433 133 l 428 126 m 429 507 b 436 497 429 503 432 497 l 439 500 b 429 507 439 504 433 507 m 432 203 l 439 208 l 433 214 l 428 207 m 394 789 l 400 793 l 393 800 l 389 794 m 475 206 l 481 211 l 476 217 l 469 210 m 142 78 l 147 82 l 140 89 l 136 83 m 457 725 l 464 731 l 458 736 l 453 729 m 497 61 l 503 68 l 499 72 l 492 65 m 143 369 l 147 375 b 142 381 147 378 144 381 l 139 374 m 164 144 l 169 147 b 164 153 169 150 167 153 l 158 149 m 472 42 b 478 36 472 39 475 36 l 481 42 l 476 47 l 472 42 m 426 40 l 436 42 l 439 44 l 435 50 m 117 321 b 125 313 117 315 119 313 b 117 321 125 318 122 321 m 78 182 l 86 186 l 81 192 l 78 192 m 74 103 l 83 103 l 83 113 m 185 331 l 189 336 l 183 339 l 178 335 m 410 111 b 417 103 410 107 411 103 l 417 111 l 410 111 m 160 613 b 164 603 160 610 160 604 l 167 606 b 160 613 167 610 164 613 m 518 -44 l 522 -39 l 519 -33 l 514 -40 m 539 683 l 544 689 b 536 693 543 692 539 693 m 136 708 l 146 708 l 140 717 m 139 292 l 147 292 b 142 297 147 294 144 297 l 139 297 m 78 274 b 85 269 78 271 82 269 b 81 278 85 272 83 276 l 78 274 m 496 478 l 500 482 l 496 486 l 492 482 m 354 372 l 358 378 l 356 381 l 350 376 m 164 64 l 169 67 l 164 69 l 158 67 m 492 728 l 497 732 l 493 736 l 492 736 m 497 17 l 503 21 l 499 25 l 497 25 m 494 103 b 500 108 497 103 500 106 l 494 108 m 456 806 l 456 814 l 450 810 m 392 417 l 397 419 b 393 422 396 421 394 422 l 392 422 m 142 167 l 144 167 l 144 172 l 142 172 m 183 544 l 189 544 l 189 547 l 183 547 m 539 561 l 542 567 l 540 567 b 536 564 539 567 538 565 m 517 750 l 519 750 b 517 756 519 753 519 754 m 161 814 l 167 814 b 163 817 165 815 164 817 l 161 817 m 181 375 l 183 375 l 183 378 l 181 378 m 308 333 l 314 333 l 311 336 m 161 192 l 167 192 l 164 194 m 539 606 l 542 606 l 542 608 l 539 608 m 478 589 b 476 588 476 589 476 588 b 478 586 476 588 476 586 b 479 588 479 586 479 588 b 478 589 479 588 479 589 m 81 229 b 83 225 81 228 82 226 l 83 226 b 81 231 83 228 82 229 m 481 585 b 479 583 479 585 479 583 b 481 582 479 583 479 582 b 482 583 482 582 482 583 b 481 585 482 583 482 585 m 372 360 b 371 358 371 360 371 358 b 372 357 371 358 371 357 b 374 358 374 357 374 358 b 372 360 374 358 374 360 m 558 671 b 557 669 557 671 557 669 b 558 668 557 669 557 668 b 560 669 560 668 560 669 b 558 671 560 669 560 671 m 83 314 l 86 314 l 83 317 "},"S":{"ha":624,"x_min":0,"x_max":0,"o":"m 60 157 b 222 279 115 226 118 279 b 279 261 233 279 279 279 b 168 125 279 247 168 193 b 285 32 168 58 226 32 b 457 193 374 32 457 101 b 129 596 457 390 129 361 b 368 843 129 750 249 792 l 415 843 b 549 711 475 796 549 811 b 403 590 549 632 475 590 b 354 607 394 590 354 590 b 451 738 354 624 451 672 b 388 796 451 779 429 796 b 243 644 303 796 243 726 b 576 242 243 436 576 458 l 576 224 b 510 85 542 200 540 121 b 307 -10 458 25 371 29 l 278 -11 b 60 121 168 -11 115 31 m 485 132 l 499 118 l 503 118 l 510 121 l 488 143 l 485 136 m 379 351 l 390 363 l 378 374 l 368 364 m 82 115 l 96 115 l 99 124 l 89 132 l 79 124 m 422 390 l 432 401 l 422 410 l 413 401 m 246 536 b 254 521 246 531 247 521 l 263 528 b 246 536 263 535 251 536 m 356 374 l 368 382 l 358 390 l 349 381 m 440 374 b 449 382 444 374 449 378 l 439 390 l 432 385 m 190 682 b 183 668 183 682 183 672 l 183 665 l 199 672 l 190 682 m 106 163 l 115 172 l 108 179 l 99 172 m 169 563 l 179 571 l 171 579 l 163 571 m 149 207 l 157 215 l 149 224 l 140 217 m 128 115 l 138 124 l 129 132 l 121 124 m 190 543 l 199 550 l 189 560 l 182 551 m 165 519 b 178 532 175 519 178 522 l 165 532 m 129 185 l 135 194 l 128 204 l 121 193 m 401 335 l 413 343 l 403 349 l 393 340 m 357 415 l 363 422 b 357 432 363 426 361 431 b 351 422 353 431 351 426 m 393 379 l 399 374 l 400 374 b 407 381 404 374 407 376 l 401 388 l 393 381 m 440 332 l 449 339 l 440 346 l 432 342 m 318 457 l 326 465 l 318 471 l 310 465 m 503 313 l 510 319 l 501 329 l 496 319 m 319 376 l 326 382 l 317 390 l 310 385 m 435 61 b 446 56 435 57 442 56 l 446 69 l 435 63 m 142 179 b 147 168 142 175 143 168 b 153 179 151 168 153 175 l 142 179 m 454 364 b 461 357 454 360 457 357 l 468 363 l 463 368 l 454 365 m 497 353 b 510 358 501 353 510 353 l 510 360 l 504 365 l 503 365 m 525 290 l 532 296 l 524 304 l 518 296 m 443 624 l 449 631 l 443 638 l 435 631 m 543 274 l 551 281 l 544 288 l 538 281 m 108 96 l 115 101 l 108 110 l 101 103 m 232 460 l 240 467 l 233 474 l 226 465 m 228 764 b 239 753 228 756 231 753 b 228 764 239 761 236 764 m 338 407 b 331 399 333 407 331 403 l 344 399 b 338 407 344 403 342 407 m 501 689 b 511 699 508 689 511 692 l 501 699 m 110 207 l 118 213 l 111 218 l 104 213 m 194 626 l 201 632 l 196 638 l 188 632 m 232 540 l 238 547 l 233 554 l 226 547 m 214 521 l 218 528 l 214 535 l 207 528 m 294 440 l 301 443 l 294 451 l 288 444 m 296 479 l 304 485 l 297 490 l 290 485 m 422 354 l 429 360 l 422 365 l 415 360 m 525 210 l 532 217 l 525 221 l 518 215 m 129 151 l 135 157 b 131 163 135 160 133 163 l 129 163 l 124 157 l 124 156 m 193 501 l 199 508 l 194 515 l 188 507 m 294 396 l 301 404 l 296 410 l 290 403 m 504 274 l 510 279 l 503 288 l 499 281 m 164 240 b 171 229 164 236 165 229 l 176 235 l 164 240 m 165 607 l 174 607 l 174 615 l 165 615 m 276 460 l 279 465 b 274 471 279 468 276 471 l 268 467 m 257 479 l 260 488 l 254 490 l 249 486 m 461 649 l 468 656 l 456 661 m 463 396 l 468 401 l 463 407 l 457 403 m 522 335 l 529 342 l 522 346 l 518 340 m 256 774 l 260 779 l 256 785 l 249 778 m 400 418 l 407 424 l 400 429 l 396 424 m 503 649 l 510 656 l 504 660 l 499 654 m 506 732 l 510 738 b 504 743 510 740 507 743 l 501 738 m 440 292 l 449 296 l 443 301 l 440 301 m 256 438 l 260 443 l 254 446 l 249 443 m 214 732 l 219 740 l 208 740 m 172 688 l 176 693 l 172 699 l 168 693 m 503 229 l 508 238 l 497 238 m 126 76 l 132 81 l 128 85 l 124 82 m 229 508 b 236 504 229 506 233 504 b 232 513 236 507 235 511 l 229 508 m 210 568 l 214 576 l 206 576 m 147 54 l 151 58 l 147 63 l 143 60 m 529 254 l 529 257 l 525 263 l 521 257 m 171 35 l 174 40 l 169 43 l 165 40 m 461 315 l 465 318 l 461 324 l 457 319 m 150 543 l 154 547 l 150 551 l 146 547 m 335 442 l 343 446 l 338 449 l 335 449 m 544 232 l 550 242 l 540 236 m 149 107 b 144 99 146 106 144 101 l 151 101 l 149 107 m 483 374 l 489 383 l 479 378 m 489 208 l 483 218 l 479 214 m 232 713 l 238 715 l 232 718 l 226 715 m 104 138 l 114 138 l 107 143 m 418 613 l 424 613 l 424 615 l 418 615 m 151 588 l 151 593 l 146 593 m 210 610 b 215 613 213 610 214 610 l 210 613 m 85 154 l 88 154 l 88 157 l 85 157 m 418 818 l 421 818 l 421 821 l 418 821 m 543 193 l 546 196 l 540 196 m 213 651 l 215 654 l 210 654 m 190 465 l 193 465 l 193 468 l 190 468 m 524 715 b 522 714 522 715 522 714 b 524 713 522 714 522 713 b 525 714 525 713 525 714 b 524 715 525 714 525 715 m 315 428 b 314 426 314 428 314 426 b 315 425 314 426 314 425 b 317 426 317 425 317 426 b 315 428 317 426 317 428 m 485 342 b 483 340 483 342 483 340 b 485 339 483 340 483 339 b 486 340 486 339 486 340 b 485 342 486 340 486 342 m 485 635 b 483 636 485 636 483 636 b 482 635 483 636 482 636 b 483 633 482 633 483 633 b 485 635 483 633 485 633 m 482 676 b 481 675 481 676 481 675 b 482 674 481 675 481 674 b 483 675 483 674 483 675 b 482 676 483 675 483 676 m 276 508 b 275 507 275 508 275 507 b 276 506 275 507 275 506 b 278 507 278 506 278 507 b 276 508 278 507 278 508 m 132 236 b 131 235 131 236 131 235 b 132 233 131 235 131 233 b 133 235 133 233 133 235 b 132 236 133 235 133 236 m 504 779 b 503 781 504 781 503 781 b 501 779 503 781 501 781 b 503 778 501 778 503 778 b 504 779 503 778 504 778 m 482 300 b 481 299 481 300 481 299 b 482 297 481 299 481 297 b 483 299 483 297 483 299 b 482 300 483 299 483 300 m 460 79 l 463 79 l 460 82 m 501 151 l 504 151 l 501 154 m 485 257 l 485 260 l 482 260 m 526 174 l 529 174 l 526 176 "},"T":{"ha":726,"x_min":0,"x_max":0,"o":"m 279 168 b 313 517 279 282 279 406 b 426 751 326 564 426 733 b 268 819 426 801 306 819 b 121 646 175 819 121 731 b 218 519 121 590 154 519 b 261 524 232 519 247 524 b 163 467 261 482 194 467 b 24 592 83 467 49 525 b 281 853 24 740 129 853 b 585 786 386 853 476 786 l 621 786 b 726 875 664 804 694 842 l 729 875 l 735 871 b 569 697 735 796 646 697 b 482 717 539 697 513 717 b 431 461 422 717 431 497 b 343 -11 431 376 464 -11 b 279 11 332 -11 279 -8 m 389 489 l 396 494 b 382 522 396 506 386 513 b 399 536 389 525 399 526 l 388 547 b 379 531 379 547 379 536 l 379 528 l 360 519 m 364 110 b 381 96 364 96 368 96 b 364 110 381 106 372 110 m 344 111 l 357 121 l 347 128 l 338 117 m 354 32 l 354 47 b 340 40 350 47 340 44 l 340 39 m 349 489 l 357 497 l 349 506 l 340 497 m 307 72 b 314 85 313 72 314 81 l 314 88 l 299 81 m 356 529 l 356 535 b 347 544 356 540 353 544 l 340 539 m 389 114 l 390 114 l 396 119 l 396 121 b 389 128 396 125 393 128 l 382 122 m 390 572 l 399 579 l 392 586 l 382 581 m 368 550 l 376 558 l 368 564 l 360 557 m 392 444 l 399 453 l 392 461 l 385 454 m 390 72 l 399 81 l 390 86 l 382 82 m 397 376 b 383 365 389 376 383 375 b 397 376 392 365 397 367 m 383 254 b 390 242 383 250 385 242 l 396 247 b 383 254 396 253 388 254 m 363 600 l 368 594 l 376 601 l 371 608 l 363 601 m 328 108 b 322 97 324 108 322 101 l 333 97 b 328 108 333 101 332 108 m 507 747 l 513 742 l 514 742 b 519 754 519 742 519 750 l 507 749 m 347 72 l 354 79 l 347 86 l 340 82 m 388 153 l 396 161 l 390 167 l 382 161 m 383 43 b 390 33 383 39 385 33 l 396 38 b 383 43 396 43 388 43 m 72 646 b 78 633 72 642 72 633 l 82 639 b 72 646 82 644 76 646 m 532 722 b 539 735 538 722 539 731 b 529 726 533 735 529 732 m 374 149 b 364 139 367 149 364 146 l 374 139 l 374 149 m 124 774 b 114 764 117 774 114 771 l 124 764 l 124 774 m 329 50 l 335 57 l 329 64 l 324 57 m 350 158 l 354 165 l 347 172 l 343 165 m 369 383 l 374 390 l 368 397 l 363 392 m 369 53 l 374 60 l 368 67 l 363 61 m 135 497 b 144 493 136 493 142 493 b 140 503 144 496 144 501 l 135 497 m 329 147 b 325 138 325 146 325 140 b 335 142 328 138 333 138 l 329 147 m 579 733 b 575 724 575 732 575 726 b 585 728 578 724 583 724 l 579 733 m 371 472 l 376 475 b 371 481 376 478 374 481 l 365 476 m 304 158 l 313 164 l 307 169 l 304 169 m 304 31 l 313 36 l 307 42 l 304 42 m 410 478 b 403 469 404 478 403 474 l 410 469 l 410 478 m 393 408 l 399 413 l 393 417 l 388 413 m 453 761 l 457 767 l 453 772 l 449 767 m 63 657 l 63 668 l 54 661 m 114 522 b 118 514 114 519 115 515 l 121 518 b 114 522 121 521 117 522 m 388 622 b 396 618 389 619 393 618 b 392 625 396 621 394 625 l 388 622 m 115 560 b 122 556 115 557 119 556 b 118 564 122 558 121 563 l 115 560 m 388 329 b 394 325 388 326 392 325 b 390 333 394 328 393 332 l 388 329 m 556 744 l 560 749 l 556 753 l 551 749 m 369 178 l 374 182 l 364 188 m 414 517 b 410 525 414 519 413 524 l 407 519 m 410 556 l 415 556 l 415 561 l 410 561 m 349 238 l 354 244 l 350 247 l 349 247 m 488 767 b 492 764 489 765 490 764 b 496 767 493 764 494 765 b 492 769 494 768 493 769 b 488 767 490 769 489 768 m 368 264 l 374 264 b 369 269 374 267 372 269 l 368 269 m 301 125 b 307 122 303 124 304 122 l 310 122 l 306 128 b 301 125 304 128 303 126 m 371 311 b 368 306 368 310 368 308 l 374 306 b 371 311 374 308 374 310 m 365 225 b 371 222 367 222 368 222 l 371 228 b 365 225 368 228 367 228 m 532 767 b 535 761 532 764 532 763 b 538 767 538 763 538 764 l 532 767 m 365 22 b 371 17 365 19 368 17 l 371 22 l 365 22 m 326 181 b 332 186 329 181 332 183 l 326 186 m 596 750 b 601 744 596 747 599 744 l 601 750 l 596 750 m 413 606 b 407 600 408 606 407 604 b 413 606 411 600 413 601 m 388 289 b 390 283 388 286 388 285 l 390 289 l 388 289 m 96 708 b 99 703 96 706 96 704 l 99 708 l 96 708 m 57 622 l 60 622 l 60 625 l 57 625 m 304 247 l 307 247 l 307 250 l 304 250 m 76 683 l 76 689 l 74 686 m 618 733 b 617 735 618 735 617 735 b 615 733 617 735 615 735 b 617 732 615 732 617 732 b 618 733 617 732 618 732 m 329 478 b 328 476 328 478 328 476 b 329 475 328 476 328 475 b 331 476 331 475 331 476 b 329 478 331 476 331 478 m 99 582 b 97 581 97 582 97 581 b 99 579 97 581 97 579 b 100 581 100 579 100 581 b 99 582 100 581 100 582 m 307 207 b 306 206 306 207 306 206 b 307 204 306 206 306 204 b 308 206 308 204 308 206 b 307 207 308 206 308 207 m 63 621 b 61 619 61 621 61 619 b 63 618 61 619 61 618 b 64 619 64 618 64 619 b 63 621 64 619 64 621 m 349 458 b 347 457 347 458 347 457 b 349 456 347 457 347 456 b 350 457 350 456 350 457 b 349 458 350 457 350 458 m 372 436 b 368 433 371 436 369 435 l 374 436 "},"Ãž":{"ha":763,"x_min":0,"x_max":0,"o":"m 658 701 l 658 710 b 692 647 665 689 674 668 b 281 -3 686 378 600 39 l 272 -11 b 244 -272 272 -64 296 -251 b 164 -161 172 -272 164 -226 l 164 94 b 181 856 164 347 175 603 l 206 869 l 239 869 b 285 844 249 865 285 858 l 285 636 l 292 633 l 297 636 b 532 811 353 722 418 811 b 657 713 633 811 639 767 l 650 706 m 281 36 b 553 631 506 36 553 463 b 485 756 553 682 557 756 b 283 522 393 756 303 601 b 269 368 271 472 269 419 b 272 42 269 260 272 150 m 258 511 l 267 519 l 256 531 l 247 521 m 593 717 l 600 728 l 590 739 l 583 729 m 633 653 b 626 636 628 651 626 642 b 642 647 635 636 642 638 l 633 653 m 200 133 b 189 118 190 133 189 126 l 208 125 l 200 133 m 615 492 l 625 500 l 614 508 l 606 501 m 260 597 l 267 607 l 257 614 l 250 604 m 229 -115 b 238 -128 229 -122 229 -128 l 244 -124 b 229 -115 244 -117 233 -115 m 593 681 l 600 688 l 590 697 l 583 688 m 614 617 l 622 626 l 617 633 l 606 625 m 236 758 b 229 747 231 758 229 751 l 243 747 b 236 758 243 751 242 758 m 583 644 l 589 639 l 590 639 b 597 646 594 639 597 642 l 592 653 l 583 646 m 239 575 l 244 585 l 238 592 l 231 583 m 589 514 l 600 521 l 592 528 l 583 521 m 239 75 l 244 82 l 238 92 l 231 82 m 572 411 l 581 417 l 571 425 l 564 417 m 572 744 l 581 751 l 574 758 l 564 751 m 217 639 l 222 644 l 222 646 l 213 656 l 208 649 m 239 117 l 244 122 l 235 131 l 228 124 m 235 700 l 242 708 l 242 711 b 238 717 242 714 240 717 l 236 717 l 231 707 m 197 6 b 190 -7 192 6 190 -3 b 203 0 194 -7 203 -6 l 197 6 m 239 172 b 232 160 233 172 232 164 b 244 167 236 160 244 161 l 239 172 m 239 494 l 244 503 l 236 508 l 231 503 l 231 501 m 606 585 b 611 575 606 581 607 575 l 617 581 b 606 588 617 586 610 588 m 217 -28 l 225 -19 l 219 -14 l 218 -14 l 211 -22 m 647 668 b 658 663 647 664 654 663 l 658 674 b 647 668 654 674 647 672 m 635 681 l 642 689 l 635 694 l 628 688 m 200 -175 l 206 -168 l 200 -161 l 192 -168 m 238 -89 l 244 -83 l 238 -75 l 231 -83 m 631 558 l 639 557 l 639 568 b 628 561 635 568 628 567 m 592 761 l 597 768 l 590 775 l 583 769 m 543 235 b 554 224 543 226 546 224 b 543 235 554 232 551 235 m 236 619 l 244 624 l 236 631 l 228 626 m 192 247 l 201 246 l 200 256 l 197 258 l 189 250 m 214 108 l 213 99 b 222 106 217 99 222 100 b 217 111 222 108 219 111 m 239 297 b 232 288 233 297 232 292 l 242 289 l 244 292 b 239 297 244 294 242 297 m 253 481 b 263 474 253 475 258 474 b 257 486 263 478 263 486 l 253 481 m 654 506 b 649 493 649 506 649 497 b 658 500 653 493 658 494 l 654 506 m 633 608 b 626 599 628 608 626 603 b 639 606 632 599 636 600 l 633 608 m 192 201 b 201 211 199 201 201 204 l 192 211 m 233 201 b 243 211 240 201 243 204 l 233 211 m 649 631 b 658 621 649 624 651 621 l 658 631 l 649 631 m 238 -50 l 242 -43 l 238 -36 l 231 -43 m 239 -172 l 244 -167 l 239 -161 l 231 -167 m 633 725 l 642 731 l 635 736 l 628 731 m 278 578 l 283 585 l 278 592 l 272 583 m 592 600 l 597 607 l 593 614 l 586 606 m 231 542 b 243 535 233 538 239 535 l 238 547 l 231 542 m 233 0 b 242 -7 233 -6 238 -7 l 242 6 l 233 0 m 253 642 l 263 642 b 256 650 263 646 260 650 l 253 650 m 544 775 b 554 768 544 769 550 768 b 549 778 554 771 553 778 l 544 775 m 608 375 b 618 371 610 371 615 371 b 614 381 618 374 618 379 l 608 375 m 233 375 b 243 371 235 371 240 371 b 239 381 243 374 243 379 l 233 375 m 606 333 b 615 329 607 329 613 329 b 611 339 615 332 615 338 l 606 333 m 265 557 l 260 569 l 253 563 m 217 764 l 222 769 l 217 775 l 211 769 m 589 433 l 594 439 l 589 444 l 583 438 m 611 703 l 617 707 l 611 714 l 606 708 m 572 703 l 578 710 l 572 714 l 567 710 m 194 661 l 200 667 l 194 672 l 189 667 m 260 808 l 264 814 l 260 819 l 253 814 m 238 244 l 242 250 l 238 256 l 231 250 m 257 350 l 261 356 b 256 361 261 358 258 361 l 253 356 m 258 683 l 264 686 b 258 692 264 689 261 692 l 253 688 m 233 42 b 239 36 233 39 236 36 l 242 42 l 238 47 l 233 42 m 217 14 b 222 19 219 14 222 17 l 218 25 l 214 19 m 260 433 l 264 440 l 251 446 m 192 -46 l 200 -42 l 194 -36 l 192 -36 m 214 724 l 222 728 l 217 733 l 214 733 m 217 -194 l 222 -190 l 217 -186 l 211 -190 m 197 -214 l 203 -210 l 197 -206 l 192 -210 m 239 331 l 244 335 l 239 339 l 233 335 m 614 663 l 614 674 l 606 668 m 194 36 l 200 40 l 194 47 l 192 42 m 192 369 l 199 378 l 188 378 m 569 369 l 578 369 l 578 375 l 569 375 m 238 453 l 243 461 l 232 461 m 196 78 l 200 83 l 197 89 l 192 83 m 239 664 l 244 667 l 238 672 l 233 668 m 258 14 l 261 18 l 257 25 l 253 19 m 607 422 b 614 414 607 418 610 414 l 614 422 l 607 422 m 219 225 l 219 235 l 211 231 m 172 17 l 182 17 l 176 25 m 569 453 l 578 453 b 572 458 578 456 575 458 l 569 458 m 547 394 l 556 394 b 550 400 556 397 553 400 l 547 400 m 194 172 b 190 164 192 171 190 167 b 197 168 193 164 197 165 l 194 172 m 190 -125 l 199 -125 l 194 -117 m 572 288 l 572 296 l 564 292 m 219 268 l 219 276 l 211 272 m 219 600 l 222 604 l 217 608 l 214 606 m 651 586 b 656 578 651 583 653 579 l 658 583 l 651 586 m 214 519 l 219 519 l 219 525 l 214 525 m 194 747 l 200 747 l 200 753 l 194 753 m 506 186 l 511 186 l 511 192 l 506 192 m 608 747 l 614 747 l 614 753 l 608 753 m 222 807 l 218 817 l 214 813 m 658 539 l 658 546 l 650 542 m 172 64 b 176 61 174 63 175 61 b 181 64 178 61 179 63 b 176 67 179 65 178 67 b 172 64 175 67 174 65 m 572 547 b 569 542 571 546 569 544 l 569 539 l 575 542 l 572 547 m 192 292 l 197 292 b 193 297 197 294 196 297 l 192 297 m 172 -106 b 178 -108 174 -108 175 -108 l 178 -103 b 172 -106 175 -103 174 -103 m 258 -103 b 253 -108 256 -103 253 -106 l 258 -108 l 258 -103 m 194 589 b 200 583 194 586 197 583 l 200 589 l 194 589 m 592 483 b 586 478 589 483 586 481 l 592 478 l 592 483 m 192 -83 b 197 -86 193 -86 194 -86 l 197 -81 l 192 -83 m 194 622 l 201 628 l 194 628 m 214 564 b 219 561 215 563 218 561 b 217 567 219 563 218 565 l 214 564 m 256 728 l 261 728 l 261 731 l 256 731 m 214 -144 b 219 -147 215 -147 217 -147 l 219 -144 l 214 -144 m 547 267 l 550 267 l 550 269 l 547 269 m 633 433 l 636 433 l 636 436 l 633 436 m 572 494 l 572 500 l 569 497 m 194 708 l 197 708 l 197 711 l 194 711 m 256 103 b 254 104 256 104 254 104 b 253 103 254 104 253 104 b 254 101 253 101 254 101 b 256 103 254 101 256 101 m 175 -19 b 174 -21 174 -19 174 -21 b 175 -22 174 -21 174 -22 b 176 -21 176 -22 176 -21 b 175 -19 176 -21 176 -19 m 181 -62 b 179 -64 179 -62 179 -64 b 181 -65 179 -64 179 -65 b 182 -64 182 -65 182 -64 b 181 -62 182 -64 182 -62 m 258 231 b 257 229 257 231 257 229 b 258 228 257 229 257 228 b 260 229 260 228 260 229 b 258 231 260 229 260 231 m 533 293 b 532 292 532 293 532 292 b 533 290 532 292 532 290 b 535 292 535 290 535 292 b 533 293 535 292 535 293 m 217 -60 b 215 -61 215 -60 215 -61 b 217 -62 215 -61 215 -62 b 218 -61 218 -62 218 -61 b 217 -60 218 -61 218 -60 m 239 -204 b 238 -206 238 -204 238 -206 b 239 -207 238 -206 238 -207 b 240 -206 240 -207 240 -206 b 239 -204 240 -206 240 -204 m 178 -60 b 176 -61 176 -60 176 -61 b 178 -62 176 -61 176 -62 b 179 -61 179 -62 179 -61 b 178 -60 179 -61 179 -60 m 425 63 b 424 61 424 63 424 61 b 425 60 424 61 424 60 b 426 61 426 60 426 61 b 425 63 426 61 426 63 m 217 -101 b 215 -103 215 -101 215 -103 b 217 -104 215 -103 215 -104 b 218 -103 218 -104 218 -103 b 217 -101 218 -103 218 -101 m 219 -62 b 218 -64 218 -62 218 -64 b 219 -65 218 -64 218 -65 b 221 -64 221 -65 221 -64 b 219 -62 221 -64 221 -62 m 672 607 b 671 606 671 607 671 606 b 672 604 671 606 671 604 b 674 606 674 604 674 606 b 672 607 674 606 674 607 m 219 439 b 218 440 219 440 218 440 b 217 439 218 440 217 440 b 218 438 217 438 218 438 b 219 439 218 438 219 438 m 256 -17 b 253 -21 254 -18 253 -19 l 253 -22 b 256 -18 254 -21 256 -19 l 256 -17 m 611 542 l 614 544 l 611 544 m 194 542 l 197 544 l 194 544 m 572 664 l 575 664 l 575 667 m 657 713 b 658 710 657 711 658 711 l 658 713 "}}}
